<?xml version="1.0" encoding="utf-8" standalone="no"?>
<!DOCTYPE svg PUBLIC "-//W3C//DTD SVG 1.1//EN"
  "http://www.w3.org/Graphics/SVG/1.1/DTD/svg11.dtd">
<!-- Created with matplotlib (https://matplotlib.org/) -->
<svg height="648pt" version="1.1" viewBox="0 0 1008 648" width="1008pt" xmlns="http://www.w3.org/2000/svg" xmlns:xlink="http://www.w3.org/1999/xlink">
 <defs>
  <style type="text/css">
*{stroke-linecap:butt;stroke-linejoin:round;}
  </style>
 </defs>
 <g id="figure_1">
  <g id="patch_1">
   <path d="M 0 648 
L 1008 648 
L 1008 0 
L 0 0 
z
" style="fill:#ffffff;"/>
  </g>
  <g id="axes_1">
   <g id="patch_2">
    <path d="M 127.48 547.52 
L 971.4825 547.52 
L 971.4825 84.64 
L 127.48 84.64 
z
" style="fill:#ffffff;"/>
   </g>
   <g id="matplotlib.axis_1">
    <g id="xtick_1">
     <g id="text_1">
      <!-- 0 -->
      <defs>
       <path d="M 31.78125 66.40625 
Q 24.171875 66.40625 20.328125 58.90625 
Q 16.5 51.421875 16.5 36.375 
Q 16.5 21.390625 20.328125 13.890625 
Q 24.171875 6.390625 31.78125 6.390625 
Q 39.453125 6.390625 43.28125 13.890625 
Q 47.125 21.390625 47.125 36.375 
Q 47.125 51.421875 43.28125 58.90625 
Q 39.453125 66.40625 31.78125 66.40625 
z
M 31.78125 74.21875 
Q 44.046875 74.21875 50.515625 64.515625 
Q 56.984375 54.828125 56.984375 36.375 
Q 56.984375 17.96875 50.515625 8.265625 
Q 44.046875 -1.421875 31.78125 -1.421875 
Q 19.53125 -1.421875 13.0625 8.265625 
Q 6.59375 17.96875 6.59375 36.375 
Q 6.59375 54.828125 13.0625 64.515625 
Q 19.53125 74.21875 31.78125 74.21875 
z
" id="DejaVuSans-48"/>
      </defs>
      <g transform="translate(156.3 577.315313)scale(0.3 -0.3)">
       <use xlink:href="#DejaVuSans-48"/>
      </g>
     </g>
    </g>
    <g id="xtick_2">
     <g id="text_2">
      <!-- 50 -->
      <defs>
       <path d="M 10.796875 72.90625 
L 49.515625 72.90625 
L 49.515625 64.59375 
L 19.828125 64.59375 
L 19.828125 46.734375 
Q 21.96875 47.46875 24.109375 47.828125 
Q 26.265625 48.1875 28.421875 48.1875 
Q 40.625 48.1875 47.75 41.5 
Q 54.890625 34.8125 54.890625 23.390625 
Q 54.890625 11.625 47.5625 5.09375 
Q 40.234375 -1.421875 26.90625 -1.421875 
Q 22.3125 -1.421875 17.546875 -0.640625 
Q 12.796875 0.140625 7.71875 1.703125 
L 7.71875 11.625 
Q 12.109375 9.234375 16.796875 8.0625 
Q 21.484375 6.890625 26.703125 6.890625 
Q 35.15625 6.890625 40.078125 11.328125 
Q 45.015625 15.765625 45.015625 23.390625 
Q 45.015625 31 40.078125 35.4375 
Q 35.15625 39.890625 26.703125 39.890625 
Q 22.75 39.890625 18.8125 39.015625 
Q 14.890625 38.140625 10.796875 36.28125 
z
" id="DejaVuSans-53"/>
      </defs>
      <g transform="translate(322.736755 577.315313)scale(0.3 -0.3)">
       <use xlink:href="#DejaVuSans-53"/>
       <use x="63.623047" xlink:href="#DejaVuSans-48"/>
      </g>
     </g>
    </g>
    <g id="xtick_3">
     <g id="text_3">
      <!-- 100 -->
      <defs>
       <path d="M 12.40625 8.296875 
L 28.515625 8.296875 
L 28.515625 63.921875 
L 10.984375 60.40625 
L 10.984375 69.390625 
L 28.421875 72.90625 
L 38.28125 72.90625 
L 38.28125 8.296875 
L 54.390625 8.296875 
L 54.390625 0 
L 12.40625 0 
z
" id="DejaVuSans-49"/>
      </defs>
      <g transform="translate(489.173509 577.315313)scale(0.3 -0.3)">
       <use xlink:href="#DejaVuSans-49"/>
       <use x="63.623047" xlink:href="#DejaVuSans-48"/>
       <use x="127.246094" xlink:href="#DejaVuSans-48"/>
      </g>
     </g>
    </g>
    <g id="xtick_4">
     <g id="text_4">
      <!-- 150 -->
      <g transform="translate(665.154014 577.315313)scale(0.3 -0.3)">
       <use xlink:href="#DejaVuSans-49"/>
       <use x="63.623047" xlink:href="#DejaVuSans-53"/>
       <use x="127.246094" xlink:href="#DejaVuSans-48"/>
      </g>
     </g>
    </g>
    <g id="xtick_5">
     <g id="text_5">
      <!-- 200 -->
      <defs>
       <path d="M 19.1875 8.296875 
L 53.609375 8.296875 
L 53.609375 0 
L 7.328125 0 
L 7.328125 8.296875 
Q 12.9375 14.109375 22.625 23.890625 
Q 32.328125 33.6875 34.8125 36.53125 
Q 39.546875 41.84375 41.421875 45.53125 
Q 43.3125 49.21875 43.3125 52.78125 
Q 43.3125 58.59375 39.234375 62.25 
Q 35.15625 65.921875 28.609375 65.921875 
Q 23.96875 65.921875 18.8125 64.3125 
Q 13.671875 62.703125 7.8125 59.421875 
L 7.8125 69.390625 
Q 13.765625 71.78125 18.9375 73 
Q 24.125 74.21875 28.421875 74.21875 
Q 39.75 74.21875 46.484375 68.546875 
Q 53.21875 62.890625 53.21875 53.421875 
Q 53.21875 48.921875 51.53125 44.890625 
Q 49.859375 40.875 45.40625 35.40625 
Q 44.1875 33.984375 37.640625 27.21875 
Q 31.109375 20.453125 19.1875 8.296875 
z
" id="DejaVuSans-50"/>
      </defs>
      <g transform="translate(841.134518 577.315313)scale(0.3 -0.3)">
       <use xlink:href="#DejaVuSans-50"/>
       <use x="63.623047" xlink:href="#DejaVuSans-48"/>
       <use x="127.246094" xlink:href="#DejaVuSans-48"/>
      </g>
     </g>
    </g>
    <g id="text_6">
     <!-- Hours (since start of test) -->
     <defs>
      <path d="M 9.1875 72.90625 
L 27.984375 72.90625 
L 27.984375 45.125 
L 55.71875 45.125 
L 55.71875 72.90625 
L 74.515625 72.90625 
L 74.515625 0 
L 55.71875 0 
L 55.71875 30.90625 
L 27.984375 30.90625 
L 27.984375 0 
L 9.1875 0 
z
" id="DejaVuSans-Bold-72"/>
      <path d="M 34.421875 43.5 
Q 28.609375 43.5 25.5625 39.328125 
Q 22.515625 35.15625 22.515625 27.296875 
Q 22.515625 19.4375 25.5625 15.25 
Q 28.609375 11.078125 34.421875 11.078125 
Q 40.140625 11.078125 43.15625 15.25 
Q 46.1875 19.4375 46.1875 27.296875 
Q 46.1875 35.15625 43.15625 39.328125 
Q 40.140625 43.5 34.421875 43.5 
z
M 34.421875 56 
Q 48.53125 56 56.46875 48.375 
Q 64.40625 40.765625 64.40625 27.296875 
Q 64.40625 13.8125 56.46875 6.1875 
Q 48.53125 -1.421875 34.421875 -1.421875 
Q 20.265625 -1.421875 12.28125 6.1875 
Q 4.296875 13.8125 4.296875 27.296875 
Q 4.296875 40.765625 12.28125 48.375 
Q 20.265625 56 34.421875 56 
z
" id="DejaVuSans-Bold-111"/>
      <path d="M 7.8125 21.296875 
L 7.8125 54.6875 
L 25.390625 54.6875 
L 25.390625 49.21875 
Q 25.390625 44.78125 25.34375 38.0625 
Q 25.296875 31.34375 25.296875 29.109375 
Q 25.296875 22.515625 25.640625 19.609375 
Q 25.984375 16.703125 26.8125 15.375 
Q 27.875 13.671875 29.609375 12.734375 
Q 31.34375 11.8125 33.59375 11.8125 
Q 39.0625 11.8125 42.1875 16.015625 
Q 45.3125 20.21875 45.3125 27.6875 
L 45.3125 54.6875 
L 62.796875 54.6875 
L 62.796875 0 
L 45.3125 0 
L 45.3125 7.90625 
Q 41.359375 3.125 36.9375 0.84375 
Q 32.515625 -1.421875 27.203125 -1.421875 
Q 17.71875 -1.421875 12.765625 4.390625 
Q 7.8125 10.203125 7.8125 21.296875 
z
" id="DejaVuSans-Bold-117"/>
      <path d="M 49.03125 39.796875 
Q 46.734375 40.875 44.453125 41.375 
Q 42.1875 41.890625 39.890625 41.890625 
Q 33.15625 41.890625 29.515625 37.5625 
Q 25.875 33.25 25.875 25.203125 
L 25.875 0 
L 8.40625 0 
L 8.40625 54.6875 
L 25.875 54.6875 
L 25.875 45.703125 
Q 29.25 51.078125 33.609375 53.53125 
Q 37.984375 56 44.09375 56 
Q 44.96875 56 45.984375 55.921875 
Q 47.015625 55.859375 48.96875 55.609375 
z
" id="DejaVuSans-Bold-114"/>
      <path d="M 51.125 52.984375 
L 51.125 39.703125 
Q 45.515625 42.046875 40.28125 43.21875 
Q 35.0625 44.390625 30.421875 44.390625 
Q 25.4375 44.390625 23.015625 43.140625 
Q 20.609375 41.890625 20.609375 39.3125 
Q 20.609375 37.203125 22.4375 36.078125 
Q 24.265625 34.96875 29 34.421875 
L 32.078125 33.984375 
Q 45.515625 32.28125 50.140625 28.375 
Q 54.78125 24.46875 54.78125 16.109375 
Q 54.78125 7.375 48.328125 2.96875 
Q 41.890625 -1.421875 29.109375 -1.421875 
Q 23.6875 -1.421875 17.890625 -0.5625 
Q 12.109375 0.296875 6 2 
L 6 15.28125 
Q 11.234375 12.75 16.71875 11.46875 
Q 22.21875 10.203125 27.875 10.203125 
Q 33.015625 10.203125 35.59375 11.609375 
Q 38.1875 13.03125 38.1875 15.828125 
Q 38.1875 18.171875 36.40625 19.3125 
Q 34.625 20.453125 29.296875 21.09375 
L 26.21875 21.484375 
Q 14.546875 22.953125 9.859375 26.90625 
Q 5.171875 30.859375 5.171875 38.921875 
Q 5.171875 47.609375 11.125 51.796875 
Q 17.09375 56 29.390625 56 
Q 34.234375 56 39.546875 55.265625 
Q 44.875 54.546875 51.125 52.984375 
z
" id="DejaVuSans-Bold-115"/>
      <path id="DejaVuSans-Bold-32"/>
      <path d="M 37.703125 -13.1875 
L 23.1875 -13.1875 
Q 15.71875 -1.125 12.15625 9.734375 
Q 8.59375 20.609375 8.59375 31.296875 
Q 8.59375 42 12.171875 52.953125 
Q 15.765625 63.921875 23.1875 75.875 
L 37.703125 75.875 
Q 31.453125 64.3125 28.328125 53.25 
Q 25.203125 42.1875 25.203125 31.390625 
Q 25.203125 20.609375 28.296875 9.515625 
Q 31.390625 -1.5625 37.703125 -13.1875 
z
" id="DejaVuSans-Bold-40"/>
      <path d="M 8.40625 54.6875 
L 25.875 54.6875 
L 25.875 0 
L 8.40625 0 
z
M 8.40625 75.984375 
L 25.875 75.984375 
L 25.875 61.71875 
L 8.40625 61.71875 
z
" id="DejaVuSans-Bold-105"/>
      <path d="M 63.375 33.296875 
L 63.375 0 
L 45.796875 0 
L 45.796875 5.421875 
L 45.796875 25.484375 
Q 45.796875 32.5625 45.484375 35.25 
Q 45.171875 37.9375 44.390625 39.203125 
Q 43.359375 40.921875 41.59375 41.875 
Q 39.84375 42.828125 37.59375 42.828125 
Q 32.125 42.828125 29 38.59375 
Q 25.875 34.375 25.875 26.90625 
L 25.875 0 
L 8.40625 0 
L 8.40625 54.6875 
L 25.875 54.6875 
L 25.875 46.6875 
Q 29.828125 51.46875 34.265625 53.734375 
Q 38.71875 56 44.09375 56 
Q 53.5625 56 58.46875 50.1875 
Q 63.375 44.390625 63.375 33.296875 
z
" id="DejaVuSans-Bold-110"/>
      <path d="M 52.59375 52.984375 
L 52.59375 38.71875 
Q 49.03125 41.15625 45.4375 42.328125 
Q 41.84375 43.5 37.984375 43.5 
Q 30.671875 43.5 26.59375 39.234375 
Q 22.515625 34.96875 22.515625 27.296875 
Q 22.515625 19.625 26.59375 15.34375 
Q 30.671875 11.078125 37.984375 11.078125 
Q 42.09375 11.078125 45.78125 12.296875 
Q 49.46875 13.53125 52.59375 15.921875 
L 52.59375 1.609375 
Q 48.484375 0.09375 44.265625 -0.65625 
Q 40.046875 -1.421875 35.796875 -1.421875 
Q 21 -1.421875 12.640625 6.171875 
Q 4.296875 13.765625 4.296875 27.296875 
Q 4.296875 40.828125 12.640625 48.40625 
Q 21 56 35.796875 56 
Q 40.09375 56 44.265625 55.25 
Q 48.4375 54.5 52.59375 52.984375 
z
" id="DejaVuSans-Bold-99"/>
      <path d="M 62.984375 27.484375 
L 62.984375 22.515625 
L 22.125 22.515625 
Q 22.75 16.359375 26.5625 13.28125 
Q 30.375 10.203125 37.203125 10.203125 
Q 42.71875 10.203125 48.5 11.84375 
Q 54.296875 13.484375 60.40625 16.796875 
L 60.40625 3.328125 
Q 54.203125 0.984375 48 -0.21875 
Q 41.796875 -1.421875 35.59375 -1.421875 
Q 20.75 -1.421875 12.515625 6.125 
Q 4.296875 13.671875 4.296875 27.296875 
Q 4.296875 40.671875 12.375 48.328125 
Q 20.453125 56 34.625 56 
Q 47.515625 56 55.25 48.234375 
Q 62.984375 40.484375 62.984375 27.484375 
z
M 45.015625 33.296875 
Q 45.015625 38.28125 42.109375 41.328125 
Q 39.203125 44.390625 34.515625 44.390625 
Q 29.4375 44.390625 26.265625 41.53125 
Q 23.09375 38.671875 22.3125 33.296875 
z
" id="DejaVuSans-Bold-101"/>
      <path d="M 27.484375 70.21875 
L 27.484375 54.6875 
L 45.515625 54.6875 
L 45.515625 42.1875 
L 27.484375 42.1875 
L 27.484375 19 
Q 27.484375 15.1875 29 13.84375 
Q 30.515625 12.5 35.015625 12.5 
L 44 12.5 
L 44 0 
L 29 0 
Q 18.65625 0 14.328125 4.3125 
Q 10.015625 8.640625 10.015625 19 
L 10.015625 42.1875 
L 1.3125 42.1875 
L 1.3125 54.6875 
L 10.015625 54.6875 
L 10.015625 70.21875 
z
" id="DejaVuSans-Bold-116"/>
      <path d="M 32.90625 24.609375 
Q 27.4375 24.609375 24.671875 22.75 
Q 21.921875 20.90625 21.921875 17.28125 
Q 21.921875 13.96875 24.140625 12.078125 
Q 26.375 10.203125 30.328125 10.203125 
Q 35.25 10.203125 38.625 13.734375 
Q 42 17.28125 42 22.609375 
L 42 24.609375 
z
M 59.625 31.203125 
L 59.625 0 
L 42 0 
L 42 8.109375 
Q 38.484375 3.125 34.078125 0.84375 
Q 29.6875 -1.421875 23.390625 -1.421875 
Q 14.890625 -1.421875 9.59375 3.53125 
Q 4.296875 8.5 4.296875 16.40625 
Q 4.296875 26.03125 10.90625 30.515625 
Q 17.53125 35.015625 31.6875 35.015625 
L 42 35.015625 
L 42 36.375 
Q 42 40.53125 38.71875 42.453125 
Q 35.453125 44.390625 28.515625 44.390625 
Q 22.90625 44.390625 18.0625 43.265625 
Q 13.234375 42.140625 9.078125 39.890625 
L 9.078125 53.21875 
Q 14.703125 54.59375 20.359375 55.296875 
Q 26.03125 56 31.6875 56 
Q 46.484375 56 53.046875 50.171875 
Q 59.625 44.34375 59.625 31.203125 
z
" id="DejaVuSans-Bold-97"/>
      <path d="M 44.390625 75.984375 
L 44.390625 64.5 
L 34.71875 64.5 
Q 31 64.5 29.53125 63.15625 
Q 28.078125 61.8125 28.078125 58.5 
L 28.078125 54.6875 
L 43.015625 54.6875 
L 43.015625 42.1875 
L 28.078125 42.1875 
L 28.078125 0 
L 10.59375 0 
L 10.59375 42.1875 
L 1.90625 42.1875 
L 1.90625 54.6875 
L 10.59375 54.6875 
L 10.59375 58.5 
Q 10.59375 67.4375 15.578125 71.703125 
Q 20.5625 75.984375 31 75.984375 
z
" id="DejaVuSans-Bold-102"/>
      <path d="M 8.015625 -13.1875 
Q 14.265625 -1.5625 17.390625 9.515625 
Q 20.515625 20.609375 20.515625 31.390625 
Q 20.515625 42.1875 17.390625 53.25 
Q 14.265625 64.3125 8.015625 75.875 
L 22.515625 75.875 
Q 29.9375 63.921875 33.515625 52.953125 
Q 37.109375 42 37.109375 31.296875 
Q 37.109375 20.609375 33.546875 9.734375 
Q 29.984375 -1.125 22.515625 -13.1875 
z
" id="DejaVuSans-Bold-41"/>
     </defs>
     <g transform="translate(271.662656 627.428437)scale(0.38 -0.38)">
      <use xlink:href="#DejaVuSans-Bold-72"/>
      <use x="83.691406" xlink:href="#DejaVuSans-Bold-111"/>
      <use x="152.392578" xlink:href="#DejaVuSans-Bold-117"/>
      <use x="223.583984" xlink:href="#DejaVuSans-Bold-114"/>
      <use x="272.900391" xlink:href="#DejaVuSans-Bold-115"/>
      <use x="332.421875" xlink:href="#DejaVuSans-Bold-32"/>
      <use x="367.236328" xlink:href="#DejaVuSans-Bold-40"/>
      <use x="412.939453" xlink:href="#DejaVuSans-Bold-115"/>
      <use x="472.460938" xlink:href="#DejaVuSans-Bold-105"/>
      <use x="506.738281" xlink:href="#DejaVuSans-Bold-110"/>
      <use x="577.929688" xlink:href="#DejaVuSans-Bold-99"/>
      <use x="637.207031" xlink:href="#DejaVuSans-Bold-101"/>
      <use x="705.029297" xlink:href="#DejaVuSans-Bold-32"/>
      <use x="739.84375" xlink:href="#DejaVuSans-Bold-115"/>
      <use x="799.365234" xlink:href="#DejaVuSans-Bold-116"/>
      <use x="847.167969" xlink:href="#DejaVuSans-Bold-97"/>
      <use x="914.648438" xlink:href="#DejaVuSans-Bold-114"/>
      <use x="963.964844" xlink:href="#DejaVuSans-Bold-116"/>
      <use x="1011.767578" xlink:href="#DejaVuSans-Bold-32"/>
      <use x="1046.582031" xlink:href="#DejaVuSans-Bold-111"/>
      <use x="1115.283203" xlink:href="#DejaVuSans-Bold-102"/>
      <use x="1158.789062" xlink:href="#DejaVuSans-Bold-32"/>
      <use x="1193.603516" xlink:href="#DejaVuSans-Bold-116"/>
      <use x="1241.40625" xlink:href="#DejaVuSans-Bold-101"/>
      <use x="1309.228516" xlink:href="#DejaVuSans-Bold-115"/>
      <use x="1368.75" xlink:href="#DejaVuSans-Bold-116"/>
      <use x="1416.552734" xlink:href="#DejaVuSans-Bold-41"/>
     </g>
    </g>
   </g>
   <g id="matplotlib.axis_2">
    <g id="ytick_1">
     <g id="text_7">
      <!-- 0 -->
      <g transform="translate(101.3925 530.583076)scale(0.3 -0.3)">
       <use xlink:href="#DejaVuSans-48"/>
      </g>
     </g>
    </g>
    <g id="ytick_2">
     <g id="text_8">
      <!-- 50 -->
      <g transform="translate(82.305 449.820299)scale(0.3 -0.3)">
       <use xlink:href="#DejaVuSans-53"/>
       <use x="63.623047" xlink:href="#DejaVuSans-48"/>
      </g>
     </g>
    </g>
    <g id="ytick_3">
     <g id="text_9">
      <!-- 100 -->
      <g transform="translate(63.2175 369.057522)scale(0.3 -0.3)">
       <use xlink:href="#DejaVuSans-49"/>
       <use x="63.623047" xlink:href="#DejaVuSans-48"/>
       <use x="127.246094" xlink:href="#DejaVuSans-48"/>
      </g>
     </g>
    </g>
    <g id="ytick_4">
     <g id="text_10">
      <!-- 150 -->
      <g transform="translate(63.2175 288.294744)scale(0.3 -0.3)">
       <use xlink:href="#DejaVuSans-49"/>
       <use x="63.623047" xlink:href="#DejaVuSans-53"/>
       <use x="127.246094" xlink:href="#DejaVuSans-48"/>
      </g>
     </g>
    </g>
    <g id="ytick_5">
     <g id="text_11">
      <!-- 200 -->
      <g transform="translate(63.2175 207.531967)scale(0.3 -0.3)">
       <use xlink:href="#DejaVuSans-50"/>
       <use x="63.623047" xlink:href="#DejaVuSans-48"/>
       <use x="127.246094" xlink:href="#DejaVuSans-48"/>
      </g>
     </g>
    </g>
    <g id="ytick_6">
     <g id="text_12">
      <!-- 250 -->
      <g transform="translate(63.2175 126.76919)scale(0.3 -0.3)">
       <use xlink:href="#DejaVuSans-50"/>
       <use x="63.623047" xlink:href="#DejaVuSans-53"/>
       <use x="127.246094" xlink:href="#DejaVuSans-48"/>
      </g>
     </g>
    </g>
    <g id="text_13">
     <!-- Rides per hour -->
     <defs>
      <path d="M 35.890625 40.578125 
Q 41.796875 40.578125 44.359375 42.765625 
Q 46.921875 44.96875 46.921875 50 
Q 46.921875 54.984375 44.359375 57.125 
Q 41.796875 59.28125 35.890625 59.28125 
L 27.984375 59.28125 
L 27.984375 40.578125 
z
M 27.984375 27.59375 
L 27.984375 0 
L 9.1875 0 
L 9.1875 72.90625 
L 37.890625 72.90625 
Q 52.296875 72.90625 59 68.0625 
Q 65.71875 63.234375 65.71875 52.78125 
Q 65.71875 45.5625 62.21875 40.921875 
Q 58.734375 36.28125 51.703125 34.078125 
Q 55.5625 33.203125 58.609375 30.09375 
Q 61.671875 27 64.796875 20.703125 
L 75 0 
L 54.984375 0 
L 46.09375 18.109375 
Q 43.40625 23.578125 40.640625 25.578125 
Q 37.890625 27.59375 33.296875 27.59375 
z
" id="DejaVuSans-Bold-82"/>
      <path d="M 45.609375 46.6875 
L 45.609375 75.984375 
L 63.1875 75.984375 
L 63.1875 0 
L 45.609375 0 
L 45.609375 7.90625 
Q 42 3.078125 37.640625 0.828125 
Q 33.296875 -1.421875 27.59375 -1.421875 
Q 17.484375 -1.421875 10.984375 6.609375 
Q 4.5 14.65625 4.5 27.296875 
Q 4.5 39.9375 10.984375 47.96875 
Q 17.484375 56 27.59375 56 
Q 33.25 56 37.625 53.734375 
Q 42 51.46875 45.609375 46.6875 
z
M 34.078125 11.28125 
Q 39.703125 11.28125 42.65625 15.375 
Q 45.609375 19.484375 45.609375 27.296875 
Q 45.609375 35.109375 42.65625 39.203125 
Q 39.703125 43.3125 34.078125 43.3125 
Q 28.515625 43.3125 25.5625 39.203125 
Q 22.609375 35.109375 22.609375 27.296875 
Q 22.609375 19.484375 25.5625 15.375 
Q 28.515625 11.28125 34.078125 11.28125 
z
" id="DejaVuSans-Bold-100"/>
      <path d="M 25.875 7.90625 
L 25.875 -20.796875 
L 8.40625 -20.796875 
L 8.40625 54.6875 
L 25.875 54.6875 
L 25.875 46.6875 
Q 29.5 51.46875 33.890625 53.734375 
Q 38.28125 56 44 56 
Q 54.109375 56 60.59375 47.96875 
Q 67.09375 39.9375 67.09375 27.296875 
Q 67.09375 14.65625 60.59375 6.609375 
Q 54.109375 -1.421875 44 -1.421875 
Q 38.28125 -1.421875 33.890625 0.84375 
Q 29.5 3.125 25.875 7.90625 
z
M 37.5 43.3125 
Q 31.890625 43.3125 28.875 39.1875 
Q 25.875 35.0625 25.875 27.296875 
Q 25.875 19.53125 28.875 15.40625 
Q 31.890625 11.28125 37.5 11.28125 
Q 43.109375 11.28125 46.0625 15.375 
Q 49.03125 19.484375 49.03125 27.296875 
Q 49.03125 35.109375 46.0625 39.203125 
Q 43.109375 43.3125 37.5 43.3125 
z
" id="DejaVuSans-Bold-112"/>
      <path d="M 63.375 33.296875 
L 63.375 0 
L 45.796875 0 
L 45.796875 5.421875 
L 45.796875 25.390625 
Q 45.796875 32.5625 45.484375 35.25 
Q 45.171875 37.9375 44.390625 39.203125 
Q 43.359375 40.921875 41.59375 41.875 
Q 39.84375 42.828125 37.59375 42.828125 
Q 32.125 42.828125 29 38.59375 
Q 25.875 34.375 25.875 26.90625 
L 25.875 0 
L 8.40625 0 
L 8.40625 75.984375 
L 25.875 75.984375 
L 25.875 46.6875 
Q 29.828125 51.46875 34.265625 53.734375 
Q 38.71875 56 44.09375 56 
Q 53.5625 56 58.46875 50.1875 
Q 63.375 44.390625 63.375 33.296875 
z
" id="DejaVuSans-Bold-104"/>
     </defs>
     <g transform="translate(40.314688 473.578125)rotate(-90)scale(0.38 -0.38)">
      <use xlink:href="#DejaVuSans-Bold-82"/>
      <use x="77.001953" xlink:href="#DejaVuSans-Bold-105"/>
      <use x="111.279297" xlink:href="#DejaVuSans-Bold-100"/>
      <use x="182.861328" xlink:href="#DejaVuSans-Bold-101"/>
      <use x="250.683594" xlink:href="#DejaVuSans-Bold-115"/>
      <use x="310.205078" xlink:href="#DejaVuSans-Bold-32"/>
      <use x="345.019531" xlink:href="#DejaVuSans-Bold-112"/>
      <use x="416.601562" xlink:href="#DejaVuSans-Bold-101"/>
      <use x="484.423828" xlink:href="#DejaVuSans-Bold-114"/>
      <use x="533.740234" xlink:href="#DejaVuSans-Bold-32"/>
      <use x="568.554688" xlink:href="#DejaVuSans-Bold-104"/>
      <use x="639.746094" xlink:href="#DejaVuSans-Bold-111"/>
      <use x="708.447266" xlink:href="#DejaVuSans-Bold-117"/>
      <use x="779.638672" xlink:href="#DejaVuSans-Bold-114"/>
     </g>
    </g>
   </g>
   <g id="line2d_1">
    <path clip-path="url(#pd5a998270e)" d="M 165.84375 435.192132 
L 169.36336 472.343009 
L 172.88297 461.03622 
L 176.40258 478.804031 
L 179.92219 473.958265 
L 183.4418 480.419287 
L 186.961411 501.417609 
L 190.481021 509.493887 
L 194.000631 507.878631 
L 197.520241 512.724398 
L 201.039851 499.802353 
L 204.559461 503.032865 
L 208.079071 464.266731 
L 211.598681 422.270087 
L 215.118291 325.354754 
L 218.637901 234.900444 
L 222.157511 134.7546 
L 225.677122 137.985111 
L 229.196732 121.832555 
L 232.716342 115.371533 
L 236.235952 105.68 
L 239.755562 139.600366 
L 243.275172 249.437744 
L 246.794782 272.051321 
L 250.314392 422.270087 
L 253.834002 441.653154 
L 257.353612 475.57352 
L 260.873222 440.037898 
L 264.392833 498.187098 
L 267.912443 507.878631 
L 271.432053 507.878631 
L 274.951663 515.954909 
L 278.471273 517.570164 
L 281.990883 509.493887 
L 285.510493 465.881987 
L 289.030103 386.734465 
L 292.549713 331.815777 
L 296.069323 283.35811 
L 299.588933 378.658187 
L 303.108544 378.658187 
L 306.628154 335.046288 
L 310.147764 359.275121 
L 313.667374 352.814099 
L 317.186984 352.814099 
L 320.706594 328.585265 
L 324.226204 278.512344 
L 327.745814 331.815777 
L 331.265424 420.654832 
L 334.785034 438.422643 
L 338.304644 473.958265 
L 341.824255 473.958265 
L 345.343865 480.419287 
L 348.863475 493.341331 
L 352.383085 493.341331 
L 355.902695 514.339653 
L 359.422305 514.339653 
L 362.941915 515.954909 
L 366.461525 501.417609 
L 369.981135 443.268409 
L 373.500745 331.815777 
L 377.020356 171.905477 
L 380.539966 242.976721 
L 384.059576 407.732787 
L 387.579186 410.963298 
L 391.098796 393.195487 
L 394.618406 398.041254 
L 398.138016 364.120888 
L 401.657626 357.659865 
L 405.177236 322.124243 
L 408.696846 244.591977 
L 412.216456 259.129277 
L 415.736067 263.975044 
L 419.255677 375.427676 
L 422.775287 398.041254 
L 426.294897 425.500598 
L 429.814507 459.420965 
L 433.334117 504.64812 
L 436.853727 493.341331 
L 440.373337 511.109142 
L 443.892947 517.570164 
L 447.412557 515.954909 
L 450.932167 493.341331 
L 454.451778 452.959943 
L 457.971388 331.815777 
L 461.490998 115.371533 
L 465.010608 199.364822 
L 468.530218 407.732787 
L 472.049828 398.041254 
L 475.569438 401.271765 
L 479.089048 451.344687 
L 482.608658 404.502276 
L 486.128268 391.580232 
L 489.647878 354.429354 
L 493.167489 296.280155 
L 496.687099 317.278477 
L 500.206709 314.047966 
L 503.726319 422.270087 
L 507.245929 470.727754 
L 510.765539 475.57352 
L 514.285149 498.187098 
L 517.804759 501.417609 
L 521.324369 507.878631 
L 524.843979 517.570164 
L 528.363589 519.18542 
L 531.8832 519.18542 
L 535.40281 506.263376 
L 538.92242 477.188776 
L 542.44203 406.117532 
L 545.96164 272.051321 
L 549.48125 378.658187 
L 553.00086 465.881987 
L 556.52047 451.344687 
L 560.04008 417.424321 
L 563.55969 407.732787 
L 567.0793 409.348043 
L 570.598911 357.659865 
L 574.118521 362.505632 
L 577.638131 251.052999 
L 581.157741 196.134311 
L 584.677351 325.354754 
L 588.196961 377.042932 
L 591.716571 422.270087 
L 595.236181 407.732787 
L 598.755791 427.115854 
L 602.275401 488.495565 
L 605.795011 490.11082 
L 609.314622 512.724398 
L 612.834232 515.954909 
L 616.353842 515.954909 
L 619.873452 504.64812 
L 623.393062 456.190454 
L 626.912672 320.508988 
L 630.432282 141.215622 
L 633.951892 223.593655 
L 637.471502 383.503954 
L 640.991112 373.812421 
L 644.510722 356.04461 
L 648.030333 341.50731 
L 651.549943 373.812421 
L 655.069553 378.658187 
L 658.589163 312.43271 
L 665.628383 251.052999 
L 669.147993 343.122565 
L 672.667603 393.195487 
L 676.187213 414.193809 
L 679.706823 464.266731 
L 683.226433 457.805709 
L 686.746044 459.420965 
L 690.265654 480.419287 
L 693.785264 480.419287 
L 697.304874 507.878631 
L 700.824484 511.109142 
L 704.344094 511.109142 
L 707.863704 503.032865 
L 711.383314 464.266731 
L 714.902924 402.887021 
L 718.422534 380.273443 
L 721.942144 339.892054 
L 725.461755 293.049643 
L 728.981365 260.744533 
L 732.500975 192.9038 
L 736.020585 158.983433 
L 739.540195 158.983433 
L 743.059805 209.056355 
L 746.579415 260.744533 
L 750.099025 335.046288 
L 753.618635 373.812421 
L 757.138245 428.731109 
L 760.657856 461.03622 
L 764.177466 444.883665 
L 767.697076 485.265054 
L 771.216686 482.034542 
L 774.736296 485.265054 
L 778.255906 501.417609 
L 781.775516 506.263376 
L 785.295126 504.64812 
L 788.814736 517.570164 
L 792.334346 504.64812 
L 795.853956 494.956587 
L 799.373567 477.188776 
L 802.893177 461.03622 
L 806.412787 407.732787 
L 809.932397 370.58191 
L 813.452007 315.663221 
L 816.971617 251.052999 
L 820.491227 267.205555 
L 824.010837 304.356432 
L 827.530447 307.586943 
L 831.050057 294.664899 
L 834.569667 339.892054 
L 838.089278 423.885343 
L 841.608888 452.959943 
L 845.128498 464.266731 
L 848.648108 464.266731 
L 852.167718 491.726076 
L 855.687328 504.64812 
L 859.206938 514.339653 
L 862.726548 512.724398 
L 866.246158 519.18542 
L 869.765768 519.18542 
L 873.285378 496.571842 
L 876.804989 467.497243 
L 880.324599 375.427676 
L 883.844209 249.437744 
L 887.363819 251.052999 
L 890.883429 420.654832 
L 894.403039 419.039576 
L 897.922649 393.195487 
L 901.442259 422.270087 
L 904.961869 391.580232 
L 908.481479 388.349721 
L 912.001089 393.195487 
L 915.5207 288.203877 
L 919.04031 249.437744 
L 922.55992 293.049643 
L 926.07953 396.425998 
L 929.59914 410.963298 
L 933.11875 440.037898 
L 933.11875 440.037898 
" style="fill:none;stroke:#00c8fc;stroke-linecap:square;stroke-width:2;"/>
   </g>
   <g id="line2d_2">
    <path clip-path="url(#pd5a998270e)" d="M 165.84375 411.733463 
L 169.36336 431.272088 
L 172.88297 448.320815 
L 176.40258 464.714749 
L 179.92219 479.915755 
L 183.4418 498.112222 
L 186.961411 505.866058 
L 190.481021 516.405196 
L 194.000631 523.290304 
L 197.520241 525.641367 
L 201.039851 521.996549 
L 204.559461 497.363876 
L 208.079071 448.404676 
L 211.598681 379.79124 
L 215.118291 327.584148 
L 222.157511 283.074819 
L 225.677122 252.664188 
L 229.196732 232.340253 
L 232.716342 215.891886 
L 236.235952 216.264004 
L 239.755562 235.368339 
L 243.275172 290.458422 
L 246.794782 355.942141 
L 250.314392 397.985478 
L 253.834002 425.259035 
L 257.353612 447.627832 
L 260.873222 463.128824 
L 264.392833 474.360011 
L 267.912443 505.662278 
L 271.432053 504.759723 
L 274.951663 505.191227 
L 278.471273 497.592728 
L 281.990883 474.063596 
L 285.510493 419.813653 
L 289.030103 320.779277 
L 292.549713 235.770379 
L 296.069323 285.038655 
L 299.588933 330.982442 
L 303.108544 383.30307 
L 306.628154 426.938249 
L 310.147764 450.643694 
L 313.667374 443.001607 
L 317.186984 410.889888 
L 324.226204 332.543056 
L 327.745814 328.88942 
L 331.265424 341.09906 
L 334.785034 364.816495 
L 338.304644 398.441309 
L 341.824255 429.436256 
L 345.343865 458.13159 
L 348.863475 485.573672 
L 352.383085 503.535674 
L 355.902695 504.616093 
L 359.422305 501.210355 
L 362.941915 490.626786 
L 366.461525 465.588394 
L 369.981135 407.436002 
L 373.500745 312.060272 
L 377.020356 237.448706 
L 380.539966 286.280043 
L 384.059576 330.5422 
L 387.579186 367.184355 
L 391.098796 388.511761 
L 394.618406 393.81973 
L 398.138016 371.66308 
L 405.177236 294.083184 
L 408.696846 274.50489 
L 412.216456 284.776561 
L 415.736067 309.817359 
L 419.255677 345.760924 
L 422.775287 380.211025 
L 429.814507 456.395873 
L 433.334117 490.123677 
L 436.853727 510.702804 
L 440.373337 511.50963 
L 443.892947 509.605994 
L 447.412557 502.568507 
L 450.932167 477.703725 
L 454.451778 432.169326 
L 457.971388 347.776481 
L 461.490998 235.10346 
L 465.010608 275.457909 
L 468.530218 318.695411 
L 472.049828 354.468567 
L 475.569438 372.305574 
L 479.089048 375.435428 
L 482.608658 352.684444 
L 486.128268 314.386453 
L 489.647878 290.634179 
L 493.167489 278.692142 
L 500.206709 337.720162 
L 503.726319 369.370406 
L 510.765539 435.813725 
L 514.285149 468.104618 
L 517.804759 493.078143 
L 521.324369 503.005459 
L 524.843979 504.617781 
L 528.363589 503.869639 
L 531.8832 498.506128 
L 535.40281 485.955624 
L 538.92242 466.367924 
L 542.44203 388.650474 
L 545.96164 278.132043 
L 549.48125 285.508572 
L 553.00086 337.105593 
L 556.52047 384.464552 
L 560.04008 396.345342 
L 563.55969 365.939788 
L 567.0793 327.447074 
L 570.598911 296.202542 
L 574.118521 270.370505 
L 577.638131 261.66561 
L 581.157741 278.767709 
L 584.677351 311.444174 
L 588.196961 355.155709 
L 591.716571 392.65232 
L 595.236181 428.313444 
L 602.275401 479.454995 
L 605.795011 494.821647 
L 609.314622 499.20637 
L 612.834232 504.476469 
L 616.353842 504.533317 
L 619.873452 497.480579 
L 623.393062 472.07711 
L 626.912672 409.840585 
L 630.432282 317.242702 
L 633.951892 274.922358 
L 637.471502 290.873081 
L 640.991112 301.600545 
L 644.510722 310.485856 
L 648.030333 304.806188 
L 651.549943 273.940354 
L 655.069553 250.590748 
L 658.589163 229.218434 
L 662.108773 228.717512 
L 665.628383 262.984117 
L 669.147993 306.362685 
L 676.187213 397.038485 
L 679.706823 436.063114 
L 683.226433 460.933689 
L 686.746044 484.973435 
L 690.265654 495.348005 
L 693.785264 499.695314 
L 697.304874 501.070805 
L 700.824484 503.383418 
L 704.344094 497.505583 
L 707.863704 478.588405 
L 711.383314 435.071109 
L 718.422534 309.964969 
L 721.942144 329.857375 
L 725.461755 340.315388 
L 728.981365 324.444916 
L 732.500975 303.478241 
L 736.020585 277.16946 
L 739.540195 264.455164 
L 743.059805 258.242015 
L 746.579415 270.413613 
L 750.099025 315.48972 
L 753.618635 352.706675 
L 757.138245 387.424515 
L 760.657856 424.859374 
L 764.177466 454.958296 
L 767.697076 478.935156 
L 771.216686 501.268978 
L 774.736296 503.213725 
L 778.255906 507.992563 
L 781.775516 515.150869 
L 785.295126 520.963371 
L 788.814736 522.374526 
L 792.334346 517.402629 
L 795.853956 490.11163 
L 802.893177 376.225618 
L 806.412787 333.168408 
L 809.932397 354.970266 
L 813.452007 354.58421 
L 816.971617 352.730152 
L 820.491227 329.376639 
L 824.010837 312.645819 
L 827.530447 306.617977 
L 831.050057 318.068112 
L 834.569667 337.762678 
L 838.089278 373.37696 
L 841.608888 406.805154 
L 848.648108 463.740977 
L 852.167718 483.137221 
L 855.687328 494.563545 
L 859.206938 526.48 
L 862.726548 520.325942 
L 866.246158 515.32983 
L 869.765768 509.061854 
L 873.285378 486.582147 
L 876.804989 441.116949 
L 880.324599 359.669039 
L 883.844209 247.450617 
L 887.363819 274.241317 
L 894.403039 380.573284 
L 897.922649 428.126806 
L 901.442259 455.854517 
L 904.961869 458.351206 
L 908.481479 435.328675 
L 912.001089 394.285654 
L 915.5207 331.737893 
L 919.04031 311.320669 
L 922.55992 319.339409 
L 926.07953 349.239357 
L 929.59914 387.289266 
L 933.11875 422.978992 
L 933.11875 422.978992 
" style="fill:none;stroke:#db4437;stroke-dasharray:7.4,3.2;stroke-dashoffset:0;stroke-width:2;"/>
   </g>
   <g id="patch_3">
    <path d="M 127.48 547.52 
L 127.48 84.64 
" style="fill:none;opacity:0;"/>
   </g>
   <g id="patch_4">
    <path d="M 971.4825 547.52 
L 971.4825 84.64 
" style="fill:none;opacity:0;"/>
   </g>
   <g id="patch_5">
    <path d="M 127.48 547.52 
L 971.4825 547.52 
" style="fill:none;opacity:0;"/>
   </g>
   <g id="patch_6">
    <path d="M 127.48 84.64 
L 971.4825 84.64 
" style="fill:none;opacity:0;"/>
   </g>
   <g id="text_14">
    <!-- Prediction of Citi Bike Use in Fall -->
    <defs>
     <path d="M 9.1875 72.90625 
L 40.375 72.90625 
Q 54.296875 72.90625 61.734375 66.71875 
Q 69.1875 60.546875 69.1875 49.125 
Q 69.1875 37.640625 61.734375 31.46875 
Q 54.296875 25.296875 40.375 25.296875 
L 27.984375 25.296875 
L 27.984375 0 
L 9.1875 0 
z
M 27.984375 59.28125 
L 27.984375 38.921875 
L 38.375 38.921875 
Q 43.84375 38.921875 46.828125 41.578125 
Q 49.8125 44.234375 49.8125 49.125 
Q 49.8125 54 46.828125 56.640625 
Q 43.84375 59.28125 38.375 59.28125 
z
" id="DejaVuSans-Bold-80"/>
     <path d="M 67 4 
Q 61.8125 1.3125 56.203125 -0.046875 
Q 50.59375 -1.421875 44.484375 -1.421875 
Q 26.265625 -1.421875 15.625 8.765625 
Q 4.984375 18.953125 4.984375 36.375 
Q 4.984375 53.859375 15.625 64.03125 
Q 26.265625 74.21875 44.484375 74.21875 
Q 50.59375 74.21875 56.203125 72.84375 
Q 61.8125 71.484375 67 68.796875 
L 67 53.71875 
Q 61.765625 57.28125 56.6875 58.9375 
Q 51.609375 60.59375 46 60.59375 
Q 35.9375 60.59375 30.171875 54.140625 
Q 24.421875 47.703125 24.421875 36.375 
Q 24.421875 25.09375 30.171875 18.640625 
Q 35.9375 12.203125 46 12.203125 
Q 51.609375 12.203125 56.6875 13.859375 
Q 61.765625 15.53125 67 19.09375 
z
" id="DejaVuSans-Bold-67"/>
     <path d="M 38.375 44.671875 
Q 42.828125 44.671875 45.109375 46.625 
Q 47.40625 48.578125 47.40625 52.390625 
Q 47.40625 56.15625 45.109375 58.125 
Q 42.828125 60.109375 38.375 60.109375 
L 27.984375 60.109375 
L 27.984375 44.671875 
z
M 39.015625 12.796875 
Q 44.671875 12.796875 47.53125 15.1875 
Q 50.390625 17.578125 50.390625 22.40625 
Q 50.390625 27.15625 47.5625 29.515625 
Q 44.734375 31.890625 39.015625 31.890625 
L 27.984375 31.890625 
L 27.984375 12.796875 
z
M 56.5 39.015625 
Q 62.546875 37.25 65.859375 32.515625 
Q 69.1875 27.78125 69.1875 20.90625 
Q 69.1875 10.359375 62.0625 5.171875 
Q 54.9375 0 40.375 0 
L 9.1875 0 
L 9.1875 72.90625 
L 37.40625 72.90625 
Q 52.59375 72.90625 59.40625 68.3125 
Q 66.21875 63.71875 66.21875 53.609375 
Q 66.21875 48.296875 63.71875 44.5625 
Q 61.234375 40.828125 56.5 39.015625 
z
" id="DejaVuSans-Bold-66"/>
     <path d="M 8.40625 75.984375 
L 25.875 75.984375 
L 25.875 34.625 
L 46 54.6875 
L 66.3125 54.6875 
L 39.59375 29.59375 
L 68.40625 0 
L 47.21875 0 
L 25.875 22.796875 
L 25.875 0 
L 8.40625 0 
z
" id="DejaVuSans-Bold-107"/>
     <path d="M 9.1875 72.90625 
L 27.984375 72.90625 
L 27.984375 29.203125 
Q 27.984375 20.171875 30.9375 16.28125 
Q 33.890625 12.40625 40.578125 12.40625 
Q 47.3125 12.40625 50.265625 16.28125 
Q 53.21875 20.171875 53.21875 29.203125 
L 53.21875 72.90625 
L 72.015625 72.90625 
L 72.015625 29.203125 
Q 72.015625 13.71875 64.25 6.140625 
Q 56.5 -1.421875 40.578125 -1.421875 
Q 24.703125 -1.421875 16.9375 6.140625 
Q 9.1875 13.71875 9.1875 29.203125 
z
" id="DejaVuSans-Bold-85"/>
     <path d="M 9.1875 72.90625 
L 59.90625 72.90625 
L 59.90625 58.6875 
L 27.984375 58.6875 
L 27.984375 45.125 
L 58.015625 45.125 
L 58.015625 30.90625 
L 27.984375 30.90625 
L 27.984375 0 
L 9.1875 0 
z
" id="DejaVuSans-Bold-70"/>
     <path d="M 8.40625 75.984375 
L 25.875 75.984375 
L 25.875 0 
L 8.40625 0 
z
" id="DejaVuSans-Bold-108"/>
    </defs>
    <g transform="translate(132.900781 44.64)scale(0.45 -0.45)">
     <use xlink:href="#DejaVuSans-Bold-80"/>
     <use x="73.291016" xlink:href="#DejaVuSans-Bold-114"/>
     <use x="122.607422" xlink:href="#DejaVuSans-Bold-101"/>
     <use x="190.429688" xlink:href="#DejaVuSans-Bold-100"/>
     <use x="262.011719" xlink:href="#DejaVuSans-Bold-105"/>
     <use x="296.289062" xlink:href="#DejaVuSans-Bold-99"/>
     <use x="355.566406" xlink:href="#DejaVuSans-Bold-116"/>
     <use x="403.369141" xlink:href="#DejaVuSans-Bold-105"/>
     <use x="437.646484" xlink:href="#DejaVuSans-Bold-111"/>
     <use x="506.347656" xlink:href="#DejaVuSans-Bold-110"/>
     <use x="577.539062" xlink:href="#DejaVuSans-Bold-32"/>
     <use x="612.353516" xlink:href="#DejaVuSans-Bold-111"/>
     <use x="681.054688" xlink:href="#DejaVuSans-Bold-102"/>
     <use x="724.560547" xlink:href="#DejaVuSans-Bold-32"/>
     <use x="759.375" xlink:href="#DejaVuSans-Bold-67"/>
     <use x="832.763672" xlink:href="#DejaVuSans-Bold-105"/>
     <use x="867.041016" xlink:href="#DejaVuSans-Bold-116"/>
     <use x="914.84375" xlink:href="#DejaVuSans-Bold-105"/>
     <use x="949.121094" xlink:href="#DejaVuSans-Bold-32"/>
     <use x="983.935547" xlink:href="#DejaVuSans-Bold-66"/>
     <use x="1060.15625" xlink:href="#DejaVuSans-Bold-105"/>
     <use x="1094.433594" xlink:href="#DejaVuSans-Bold-107"/>
     <use x="1160.90625" xlink:href="#DejaVuSans-Bold-101"/>
     <use x="1228.728516" xlink:href="#DejaVuSans-Bold-32"/>
     <use x="1263.542969" xlink:href="#DejaVuSans-Bold-85"/>
     <use x="1344.744141" xlink:href="#DejaVuSans-Bold-115"/>
     <use x="1404.265625" xlink:href="#DejaVuSans-Bold-101"/>
     <use x="1472.087891" xlink:href="#DejaVuSans-Bold-32"/>
     <use x="1506.902344" xlink:href="#DejaVuSans-Bold-105"/>
     <use x="1541.179688" xlink:href="#DejaVuSans-Bold-110"/>
     <use x="1612.371094" xlink:href="#DejaVuSans-Bold-32"/>
     <use x="1647.185547" xlink:href="#DejaVuSans-Bold-70"/>
     <use x="1715.417969" xlink:href="#DejaVuSans-Bold-97"/>
     <use x="1782.898438" xlink:href="#DejaVuSans-Bold-108"/>
     <use x="1817.175781" xlink:href="#DejaVuSans-Bold-108"/>
    </g>
   </g>
   <g id="legend_1">
    <g id="patch_7">
     <path d="M 324.446094 106.528388 
L 774.516406 106.528388 
Q 780.516406 106.528388 780.516406 100.528388 
L 780.516406 59.494013 
Q 780.516406 53.494013 774.516406 53.494013 
L 324.446094 53.494013 
Q 318.446094 53.494013 318.446094 59.494013 
L 318.446094 100.528388 
Q 318.446094 106.528388 324.446094 106.528388 
z
" style="fill:#ffffff;opacity:0.8;"/>
    </g>
    <g id="line2d_3">
     <path d="M 330.446094 77.789325 
L 390.446094 77.789325 
" style="fill:none;stroke:#00c8fc;stroke-linecap:square;stroke-width:2;"/>
    </g>
    <g id="line2d_4"/>
    <g id="text_15">
     <!-- True -->
     <defs>
      <path d="M -0.296875 72.90625 
L 61.375 72.90625 
L 61.375 64.59375 
L 35.5 64.59375 
L 35.5 0 
L 25.59375 0 
L 25.59375 64.59375 
L -0.296875 64.59375 
z
" id="DejaVuSans-84"/>
      <path d="M 41.109375 46.296875 
Q 39.59375 47.171875 37.8125 47.578125 
Q 36.03125 48 33.890625 48 
Q 26.265625 48 22.1875 43.046875 
Q 18.109375 38.09375 18.109375 28.8125 
L 18.109375 0 
L 9.078125 0 
L 9.078125 54.6875 
L 18.109375 54.6875 
L 18.109375 46.1875 
Q 20.953125 51.171875 25.484375 53.578125 
Q 30.03125 56 36.53125 56 
Q 37.453125 56 38.578125 55.875 
Q 39.703125 55.765625 41.0625 55.515625 
z
" id="DejaVuSans-114"/>
      <path d="M 8.5 21.578125 
L 8.5 54.6875 
L 17.484375 54.6875 
L 17.484375 21.921875 
Q 17.484375 14.15625 20.5 10.265625 
Q 23.53125 6.390625 29.59375 6.390625 
Q 36.859375 6.390625 41.078125 11.03125 
Q 45.3125 15.671875 45.3125 23.6875 
L 45.3125 54.6875 
L 54.296875 54.6875 
L 54.296875 0 
L 45.3125 0 
L 45.3125 8.40625 
Q 42.046875 3.421875 37.71875 1 
Q 33.40625 -1.421875 27.6875 -1.421875 
Q 18.265625 -1.421875 13.375 4.4375 
Q 8.5 10.296875 8.5 21.578125 
z
M 31.109375 56 
z
" id="DejaVuSans-117"/>
      <path d="M 56.203125 29.59375 
L 56.203125 25.203125 
L 14.890625 25.203125 
Q 15.484375 15.921875 20.484375 11.0625 
Q 25.484375 6.203125 34.421875 6.203125 
Q 39.59375 6.203125 44.453125 7.46875 
Q 49.3125 8.734375 54.109375 11.28125 
L 54.109375 2.78125 
Q 49.265625 0.734375 44.1875 -0.34375 
Q 39.109375 -1.421875 33.890625 -1.421875 
Q 20.796875 -1.421875 13.15625 6.1875 
Q 5.515625 13.8125 5.515625 26.8125 
Q 5.515625 40.234375 12.765625 48.109375 
Q 20.015625 56 32.328125 56 
Q 43.359375 56 49.78125 48.890625 
Q 56.203125 41.796875 56.203125 29.59375 
z
M 47.21875 32.234375 
Q 47.125 39.59375 43.09375 43.984375 
Q 39.0625 48.390625 32.421875 48.390625 
Q 24.90625 48.390625 20.390625 44.140625 
Q 15.875 39.890625 15.1875 32.171875 
z
" id="DejaVuSans-101"/>
     </defs>
     <g transform="translate(414.446094 88.289325)scale(0.3 -0.3)">
      <use xlink:href="#DejaVuSans-84"/>
      <use x="60.865234" xlink:href="#DejaVuSans-114"/>
      <use x="101.978516" xlink:href="#DejaVuSans-117"/>
      <use x="165.357422" xlink:href="#DejaVuSans-101"/>
     </g>
    </g>
    <g id="line2d_5">
     <path d="M 542.508594 77.789325 
L 602.508594 77.789325 
" style="fill:none;stroke:#db4437;stroke-dasharray:7.4,3.2;stroke-dashoffset:0;stroke-width:2;"/>
    </g>
    <g id="line2d_6"/>
    <g id="text_16">
     <!-- Predicted -->
     <defs>
      <path d="M 19.671875 64.796875 
L 19.671875 37.40625 
L 32.078125 37.40625 
Q 38.96875 37.40625 42.71875 40.96875 
Q 46.484375 44.53125 46.484375 51.125 
Q 46.484375 57.671875 42.71875 61.234375 
Q 38.96875 64.796875 32.078125 64.796875 
z
M 9.8125 72.90625 
L 32.078125 72.90625 
Q 44.34375 72.90625 50.609375 67.359375 
Q 56.890625 61.8125 56.890625 51.125 
Q 56.890625 40.328125 50.609375 34.8125 
Q 44.34375 29.296875 32.078125 29.296875 
L 19.671875 29.296875 
L 19.671875 0 
L 9.8125 0 
z
" id="DejaVuSans-80"/>
      <path d="M 45.40625 46.390625 
L 45.40625 75.984375 
L 54.390625 75.984375 
L 54.390625 0 
L 45.40625 0 
L 45.40625 8.203125 
Q 42.578125 3.328125 38.25 0.953125 
Q 33.9375 -1.421875 27.875 -1.421875 
Q 17.96875 -1.421875 11.734375 6.484375 
Q 5.515625 14.40625 5.515625 27.296875 
Q 5.515625 40.1875 11.734375 48.09375 
Q 17.96875 56 27.875 56 
Q 33.9375 56 38.25 53.625 
Q 42.578125 51.265625 45.40625 46.390625 
z
M 14.796875 27.296875 
Q 14.796875 17.390625 18.875 11.75 
Q 22.953125 6.109375 30.078125 6.109375 
Q 37.203125 6.109375 41.296875 11.75 
Q 45.40625 17.390625 45.40625 27.296875 
Q 45.40625 37.203125 41.296875 42.84375 
Q 37.203125 48.484375 30.078125 48.484375 
Q 22.953125 48.484375 18.875 42.84375 
Q 14.796875 37.203125 14.796875 27.296875 
z
" id="DejaVuSans-100"/>
      <path d="M 9.421875 54.6875 
L 18.40625 54.6875 
L 18.40625 0 
L 9.421875 0 
z
M 9.421875 75.984375 
L 18.40625 75.984375 
L 18.40625 64.59375 
L 9.421875 64.59375 
z
" id="DejaVuSans-105"/>
      <path d="M 48.78125 52.59375 
L 48.78125 44.1875 
Q 44.96875 46.296875 41.140625 47.34375 
Q 37.3125 48.390625 33.40625 48.390625 
Q 24.65625 48.390625 19.8125 42.84375 
Q 14.984375 37.3125 14.984375 27.296875 
Q 14.984375 17.28125 19.8125 11.734375 
Q 24.65625 6.203125 33.40625 6.203125 
Q 37.3125 6.203125 41.140625 7.25 
Q 44.96875 8.296875 48.78125 10.40625 
L 48.78125 2.09375 
Q 45.015625 0.34375 40.984375 -0.53125 
Q 36.96875 -1.421875 32.421875 -1.421875 
Q 20.0625 -1.421875 12.78125 6.34375 
Q 5.515625 14.109375 5.515625 27.296875 
Q 5.515625 40.671875 12.859375 48.328125 
Q 20.21875 56 33.015625 56 
Q 37.15625 56 41.109375 55.140625 
Q 45.0625 54.296875 48.78125 52.59375 
z
" id="DejaVuSans-99"/>
      <path d="M 18.3125 70.21875 
L 18.3125 54.6875 
L 36.8125 54.6875 
L 36.8125 47.703125 
L 18.3125 47.703125 
L 18.3125 18.015625 
Q 18.3125 11.328125 20.140625 9.421875 
Q 21.96875 7.515625 27.59375 7.515625 
L 36.8125 7.515625 
L 36.8125 0 
L 27.59375 0 
Q 17.1875 0 13.234375 3.875 
Q 9.28125 7.765625 9.28125 18.015625 
L 9.28125 47.703125 
L 2.6875 47.703125 
L 2.6875 54.6875 
L 9.28125 54.6875 
L 9.28125 70.21875 
z
" id="DejaVuSans-116"/>
     </defs>
     <g transform="translate(626.508594 88.289325)scale(0.3 -0.3)">
      <use xlink:href="#DejaVuSans-80"/>
      <use x="60.287109" xlink:href="#DejaVuSans-114"/>
      <use x="101.369141" xlink:href="#DejaVuSans-101"/>
      <use x="162.892578" xlink:href="#DejaVuSans-100"/>
      <use x="226.369141" xlink:href="#DejaVuSans-105"/>
      <use x="254.152344" xlink:href="#DejaVuSans-99"/>
      <use x="309.132812" xlink:href="#DejaVuSans-116"/>
      <use x="348.341797" xlink:href="#DejaVuSans-101"/>
      <use x="409.865234" xlink:href="#DejaVuSans-100"/>
     </g>
    </g>
   </g>
  </g>
 </g>
 <defs>
  <clipPath id="pd5a998270e">
   <rect height="462.88" width="844.0025" x="127.48" y="84.64"/>
  </clipPath>
 </defs>
</svg>
