<?xml version="1.0" encoding="utf-8" standalone="no"?>
<!DOCTYPE svg PUBLIC "-//W3C//DTD SVG 1.1//EN"
  "http://www.w3.org/Graphics/SVG/1.1/DTD/svg11.dtd">
<!-- Created with matplotlib (https://matplotlib.org/) -->
<svg height="648pt" version="1.1" viewBox="0 0 1008 648" width="1008pt" xmlns="http://www.w3.org/2000/svg" xmlns:xlink="http://www.w3.org/1999/xlink">
 <defs>
  <style type="text/css">
*{stroke-linecap:butt;stroke-linejoin:round;}
  </style>
 </defs>
 <g id="figure_1">
  <g id="patch_1">
   <path d="M 0 648 
L 1008 648 
L 1008 0 
L 0 0 
z
" style="fill:#ffffff;"/>
  </g>
  <g id="axes_1">
   <g id="patch_2">
    <path d="M 127.57 547.52 
L 934.160625 547.52 
L 934.160625 84.64 
L 127.57 84.64 
z
" style="fill:#ffffff;"/>
   </g>
   <g id="matplotlib.axis_1">
    <g id="xtick_1">
     <g id="text_1">
      <!-- 0 -->
      <defs>
       <path d="M 31.78125 66.40625 
Q 24.171875 66.40625 20.328125 58.90625 
Q 16.5 51.421875 16.5 36.375 
Q 16.5 21.390625 20.328125 13.890625 
Q 24.171875 6.390625 31.78125 6.390625 
Q 39.453125 6.390625 43.28125 13.890625 
Q 47.125 21.390625 47.125 36.375 
Q 47.125 51.421875 43.28125 58.90625 
Q 39.453125 66.40625 31.78125 66.40625 
z
M 31.78125 74.21875 
Q 44.046875 74.21875 50.515625 64.515625 
Q 56.984375 54.828125 56.984375 36.375 
Q 56.984375 17.96875 50.515625 8.265625 
Q 44.046875 -1.421875 31.78125 -1.421875 
Q 19.53125 -1.421875 13.0625 8.265625 
Q 6.59375 17.96875 6.59375 36.375 
Q 6.59375 54.828125 13.0625 64.515625 
Q 19.53125 74.21875 31.78125 74.21875 
z
" id="DejaVuSans-48"/>
      </defs>
      <g transform="translate(154.68946 577.315313)scale(0.3 -0.3)">
       <use xlink:href="#DejaVuSans-48"/>
      </g>
     </g>
    </g>
    <g id="xtick_2">
     <g id="text_2">
      <!-- 50 -->
      <defs>
       <path d="M 10.796875 72.90625 
L 49.515625 72.90625 
L 49.515625 64.59375 
L 19.828125 64.59375 
L 19.828125 46.734375 
Q 21.96875 47.46875 24.109375 47.828125 
Q 26.265625 48.1875 28.421875 48.1875 
Q 40.625 48.1875 47.75 41.5 
Q 54.890625 34.8125 54.890625 23.390625 
Q 54.890625 11.625 47.5625 5.09375 
Q 40.234375 -1.421875 26.90625 -1.421875 
Q 22.3125 -1.421875 17.546875 -0.640625 
Q 12.796875 0.140625 7.71875 1.703125 
L 7.71875 11.625 
Q 12.109375 9.234375 16.796875 8.0625 
Q 21.484375 6.890625 26.703125 6.890625 
Q 35.15625 6.890625 40.078125 11.328125 
Q 45.015625 15.765625 45.015625 23.390625 
Q 45.015625 31 40.078125 35.4375 
Q 35.15625 39.890625 26.703125 39.890625 
Q 22.75 39.890625 18.8125 39.015625 
Q 14.890625 38.140625 10.796875 36.28125 
z
" id="DejaVuSans-53"/>
      </defs>
      <g transform="translate(313.325574 577.315313)scale(0.3 -0.3)">
       <use xlink:href="#DejaVuSans-53"/>
       <use x="63.623047" xlink:href="#DejaVuSans-48"/>
      </g>
     </g>
    </g>
    <g id="xtick_3">
     <g id="text_3">
      <!-- 100 -->
      <defs>
       <path d="M 12.40625 8.296875 
L 28.515625 8.296875 
L 28.515625 63.921875 
L 10.984375 60.40625 
L 10.984375 69.390625 
L 28.421875 72.90625 
L 38.28125 72.90625 
L 38.28125 8.296875 
L 54.390625 8.296875 
L 54.390625 0 
L 12.40625 0 
z
" id="DejaVuSans-49"/>
      </defs>
      <g transform="translate(471.961687 577.315313)scale(0.3 -0.3)">
       <use xlink:href="#DejaVuSans-49"/>
       <use x="63.623047" xlink:href="#DejaVuSans-48"/>
       <use x="127.246094" xlink:href="#DejaVuSans-48"/>
      </g>
     </g>
    </g>
    <g id="xtick_4">
     <g id="text_4">
      <!-- 150 -->
      <g transform="translate(640.141551 577.315313)scale(0.3 -0.3)">
       <use xlink:href="#DejaVuSans-49"/>
       <use x="63.623047" xlink:href="#DejaVuSans-53"/>
       <use x="127.246094" xlink:href="#DejaVuSans-48"/>
      </g>
     </g>
    </g>
    <g id="xtick_5">
     <g id="text_5">
      <!-- 200 -->
      <defs>
       <path d="M 19.1875 8.296875 
L 53.609375 8.296875 
L 53.609375 0 
L 7.328125 0 
L 7.328125 8.296875 
Q 12.9375 14.109375 22.625 23.890625 
Q 32.328125 33.6875 34.8125 36.53125 
Q 39.546875 41.84375 41.421875 45.53125 
Q 43.3125 49.21875 43.3125 52.78125 
Q 43.3125 58.59375 39.234375 62.25 
Q 35.15625 65.921875 28.609375 65.921875 
Q 23.96875 65.921875 18.8125 64.3125 
Q 13.671875 62.703125 7.8125 59.421875 
L 7.8125 69.390625 
Q 13.765625 71.78125 18.9375 73 
Q 24.125 74.21875 28.421875 74.21875 
Q 39.75 74.21875 46.484375 68.546875 
Q 53.21875 62.890625 53.21875 53.421875 
Q 53.21875 48.921875 51.53125 44.890625 
Q 49.859375 40.875 45.40625 35.40625 
Q 44.1875 33.984375 37.640625 27.21875 
Q 31.109375 20.453125 19.1875 8.296875 
z
" id="DejaVuSans-50"/>
      </defs>
      <g transform="translate(808.321414 577.315313)scale(0.3 -0.3)">
       <use xlink:href="#DejaVuSans-50"/>
       <use x="63.623047" xlink:href="#DejaVuSans-48"/>
       <use x="127.246094" xlink:href="#DejaVuSans-48"/>
      </g>
     </g>
    </g>
    <g id="text_6">
     <!-- Hours (since start of test) -->
     <defs>
      <path d="M 9.1875 72.90625 
L 27.984375 72.90625 
L 27.984375 45.125 
L 55.71875 45.125 
L 55.71875 72.90625 
L 74.515625 72.90625 
L 74.515625 0 
L 55.71875 0 
L 55.71875 30.90625 
L 27.984375 30.90625 
L 27.984375 0 
L 9.1875 0 
z
" id="DejaVuSans-Bold-72"/>
      <path d="M 34.421875 43.5 
Q 28.609375 43.5 25.5625 39.328125 
Q 22.515625 35.15625 22.515625 27.296875 
Q 22.515625 19.4375 25.5625 15.25 
Q 28.609375 11.078125 34.421875 11.078125 
Q 40.140625 11.078125 43.15625 15.25 
Q 46.1875 19.4375 46.1875 27.296875 
Q 46.1875 35.15625 43.15625 39.328125 
Q 40.140625 43.5 34.421875 43.5 
z
M 34.421875 56 
Q 48.53125 56 56.46875 48.375 
Q 64.40625 40.765625 64.40625 27.296875 
Q 64.40625 13.8125 56.46875 6.1875 
Q 48.53125 -1.421875 34.421875 -1.421875 
Q 20.265625 -1.421875 12.28125 6.1875 
Q 4.296875 13.8125 4.296875 27.296875 
Q 4.296875 40.765625 12.28125 48.375 
Q 20.265625 56 34.421875 56 
z
" id="DejaVuSans-Bold-111"/>
      <path d="M 7.8125 21.296875 
L 7.8125 54.6875 
L 25.390625 54.6875 
L 25.390625 49.21875 
Q 25.390625 44.78125 25.34375 38.0625 
Q 25.296875 31.34375 25.296875 29.109375 
Q 25.296875 22.515625 25.640625 19.609375 
Q 25.984375 16.703125 26.8125 15.375 
Q 27.875 13.671875 29.609375 12.734375 
Q 31.34375 11.8125 33.59375 11.8125 
Q 39.0625 11.8125 42.1875 16.015625 
Q 45.3125 20.21875 45.3125 27.6875 
L 45.3125 54.6875 
L 62.796875 54.6875 
L 62.796875 0 
L 45.3125 0 
L 45.3125 7.90625 
Q 41.359375 3.125 36.9375 0.84375 
Q 32.515625 -1.421875 27.203125 -1.421875 
Q 17.71875 -1.421875 12.765625 4.390625 
Q 7.8125 10.203125 7.8125 21.296875 
z
" id="DejaVuSans-Bold-117"/>
      <path d="M 49.03125 39.796875 
Q 46.734375 40.875 44.453125 41.375 
Q 42.1875 41.890625 39.890625 41.890625 
Q 33.15625 41.890625 29.515625 37.5625 
Q 25.875 33.25 25.875 25.203125 
L 25.875 0 
L 8.40625 0 
L 8.40625 54.6875 
L 25.875 54.6875 
L 25.875 45.703125 
Q 29.25 51.078125 33.609375 53.53125 
Q 37.984375 56 44.09375 56 
Q 44.96875 56 45.984375 55.921875 
Q 47.015625 55.859375 48.96875 55.609375 
z
" id="DejaVuSans-Bold-114"/>
      <path d="M 51.125 52.984375 
L 51.125 39.703125 
Q 45.515625 42.046875 40.28125 43.21875 
Q 35.0625 44.390625 30.421875 44.390625 
Q 25.4375 44.390625 23.015625 43.140625 
Q 20.609375 41.890625 20.609375 39.3125 
Q 20.609375 37.203125 22.4375 36.078125 
Q 24.265625 34.96875 29 34.421875 
L 32.078125 33.984375 
Q 45.515625 32.28125 50.140625 28.375 
Q 54.78125 24.46875 54.78125 16.109375 
Q 54.78125 7.375 48.328125 2.96875 
Q 41.890625 -1.421875 29.109375 -1.421875 
Q 23.6875 -1.421875 17.890625 -0.5625 
Q 12.109375 0.296875 6 2 
L 6 15.28125 
Q 11.234375 12.75 16.71875 11.46875 
Q 22.21875 10.203125 27.875 10.203125 
Q 33.015625 10.203125 35.59375 11.609375 
Q 38.1875 13.03125 38.1875 15.828125 
Q 38.1875 18.171875 36.40625 19.3125 
Q 34.625 20.453125 29.296875 21.09375 
L 26.21875 21.484375 
Q 14.546875 22.953125 9.859375 26.90625 
Q 5.171875 30.859375 5.171875 38.921875 
Q 5.171875 47.609375 11.125 51.796875 
Q 17.09375 56 29.390625 56 
Q 34.234375 56 39.546875 55.265625 
Q 44.875 54.546875 51.125 52.984375 
z
" id="DejaVuSans-Bold-115"/>
      <path id="DejaVuSans-Bold-32"/>
      <path d="M 37.703125 -13.1875 
L 23.1875 -13.1875 
Q 15.71875 -1.125 12.15625 9.734375 
Q 8.59375 20.609375 8.59375 31.296875 
Q 8.59375 42 12.171875 52.953125 
Q 15.765625 63.921875 23.1875 75.875 
L 37.703125 75.875 
Q 31.453125 64.3125 28.328125 53.25 
Q 25.203125 42.1875 25.203125 31.390625 
Q 25.203125 20.609375 28.296875 9.515625 
Q 31.390625 -1.5625 37.703125 -13.1875 
z
" id="DejaVuSans-Bold-40"/>
      <path d="M 8.40625 54.6875 
L 25.875 54.6875 
L 25.875 0 
L 8.40625 0 
z
M 8.40625 75.984375 
L 25.875 75.984375 
L 25.875 61.71875 
L 8.40625 61.71875 
z
" id="DejaVuSans-Bold-105"/>
      <path d="M 63.375 33.296875 
L 63.375 0 
L 45.796875 0 
L 45.796875 5.421875 
L 45.796875 25.484375 
Q 45.796875 32.5625 45.484375 35.25 
Q 45.171875 37.9375 44.390625 39.203125 
Q 43.359375 40.921875 41.59375 41.875 
Q 39.84375 42.828125 37.59375 42.828125 
Q 32.125 42.828125 29 38.59375 
Q 25.875 34.375 25.875 26.90625 
L 25.875 0 
L 8.40625 0 
L 8.40625 54.6875 
L 25.875 54.6875 
L 25.875 46.6875 
Q 29.828125 51.46875 34.265625 53.734375 
Q 38.71875 56 44.09375 56 
Q 53.5625 56 58.46875 50.1875 
Q 63.375 44.390625 63.375 33.296875 
z
" id="DejaVuSans-Bold-110"/>
      <path d="M 52.59375 52.984375 
L 52.59375 38.71875 
Q 49.03125 41.15625 45.4375 42.328125 
Q 41.84375 43.5 37.984375 43.5 
Q 30.671875 43.5 26.59375 39.234375 
Q 22.515625 34.96875 22.515625 27.296875 
Q 22.515625 19.625 26.59375 15.34375 
Q 30.671875 11.078125 37.984375 11.078125 
Q 42.09375 11.078125 45.78125 12.296875 
Q 49.46875 13.53125 52.59375 15.921875 
L 52.59375 1.609375 
Q 48.484375 0.09375 44.265625 -0.65625 
Q 40.046875 -1.421875 35.796875 -1.421875 
Q 21 -1.421875 12.640625 6.171875 
Q 4.296875 13.765625 4.296875 27.296875 
Q 4.296875 40.828125 12.640625 48.40625 
Q 21 56 35.796875 56 
Q 40.09375 56 44.265625 55.25 
Q 48.4375 54.5 52.59375 52.984375 
z
" id="DejaVuSans-Bold-99"/>
      <path d="M 62.984375 27.484375 
L 62.984375 22.515625 
L 22.125 22.515625 
Q 22.75 16.359375 26.5625 13.28125 
Q 30.375 10.203125 37.203125 10.203125 
Q 42.71875 10.203125 48.5 11.84375 
Q 54.296875 13.484375 60.40625 16.796875 
L 60.40625 3.328125 
Q 54.203125 0.984375 48 -0.21875 
Q 41.796875 -1.421875 35.59375 -1.421875 
Q 20.75 -1.421875 12.515625 6.125 
Q 4.296875 13.671875 4.296875 27.296875 
Q 4.296875 40.671875 12.375 48.328125 
Q 20.453125 56 34.625 56 
Q 47.515625 56 55.25 48.234375 
Q 62.984375 40.484375 62.984375 27.484375 
z
M 45.015625 33.296875 
Q 45.015625 38.28125 42.109375 41.328125 
Q 39.203125 44.390625 34.515625 44.390625 
Q 29.4375 44.390625 26.265625 41.53125 
Q 23.09375 38.671875 22.3125 33.296875 
z
" id="DejaVuSans-Bold-101"/>
      <path d="M 27.484375 70.21875 
L 27.484375 54.6875 
L 45.515625 54.6875 
L 45.515625 42.1875 
L 27.484375 42.1875 
L 27.484375 19 
Q 27.484375 15.1875 29 13.84375 
Q 30.515625 12.5 35.015625 12.5 
L 44 12.5 
L 44 0 
L 29 0 
Q 18.65625 0 14.328125 4.3125 
Q 10.015625 8.640625 10.015625 19 
L 10.015625 42.1875 
L 1.3125 42.1875 
L 1.3125 54.6875 
L 10.015625 54.6875 
L 10.015625 70.21875 
z
" id="DejaVuSans-Bold-116"/>
      <path d="M 32.90625 24.609375 
Q 27.4375 24.609375 24.671875 22.75 
Q 21.921875 20.90625 21.921875 17.28125 
Q 21.921875 13.96875 24.140625 12.078125 
Q 26.375 10.203125 30.328125 10.203125 
Q 35.25 10.203125 38.625 13.734375 
Q 42 17.28125 42 22.609375 
L 42 24.609375 
z
M 59.625 31.203125 
L 59.625 0 
L 42 0 
L 42 8.109375 
Q 38.484375 3.125 34.078125 0.84375 
Q 29.6875 -1.421875 23.390625 -1.421875 
Q 14.890625 -1.421875 9.59375 3.53125 
Q 4.296875 8.5 4.296875 16.40625 
Q 4.296875 26.03125 10.90625 30.515625 
Q 17.53125 35.015625 31.6875 35.015625 
L 42 35.015625 
L 42 36.375 
Q 42 40.53125 38.71875 42.453125 
Q 35.453125 44.390625 28.515625 44.390625 
Q 22.90625 44.390625 18.0625 43.265625 
Q 13.234375 42.140625 9.078125 39.890625 
L 9.078125 53.21875 
Q 14.703125 54.59375 20.359375 55.296875 
Q 26.03125 56 31.6875 56 
Q 46.484375 56 53.046875 50.171875 
Q 59.625 44.34375 59.625 31.203125 
z
" id="DejaVuSans-Bold-97"/>
      <path d="M 44.390625 75.984375 
L 44.390625 64.5 
L 34.71875 64.5 
Q 31 64.5 29.53125 63.15625 
Q 28.078125 61.8125 28.078125 58.5 
L 28.078125 54.6875 
L 43.015625 54.6875 
L 43.015625 42.1875 
L 28.078125 42.1875 
L 28.078125 0 
L 10.59375 0 
L 10.59375 42.1875 
L 1.90625 42.1875 
L 1.90625 54.6875 
L 10.59375 54.6875 
L 10.59375 58.5 
Q 10.59375 67.4375 15.578125 71.703125 
Q 20.5625 75.984375 31 75.984375 
z
" id="DejaVuSans-Bold-102"/>
      <path d="M 8.015625 -13.1875 
Q 14.265625 -1.5625 17.390625 9.515625 
Q 20.515625 20.609375 20.515625 31.390625 
Q 20.515625 42.1875 17.390625 53.25 
Q 14.265625 64.3125 8.015625 75.875 
L 22.515625 75.875 
Q 29.9375 63.921875 33.515625 52.953125 
Q 37.109375 42 37.109375 31.296875 
Q 37.109375 20.609375 33.546875 9.734375 
Q 29.984375 -1.125 22.515625 -13.1875 
z
" id="DejaVuSans-Bold-41"/>
     </defs>
     <g transform="translate(253.046719 627.428437)scale(0.38 -0.38)">
      <use xlink:href="#DejaVuSans-Bold-72"/>
      <use x="83.691406" xlink:href="#DejaVuSans-Bold-111"/>
      <use x="152.392578" xlink:href="#DejaVuSans-Bold-117"/>
      <use x="223.583984" xlink:href="#DejaVuSans-Bold-114"/>
      <use x="272.900391" xlink:href="#DejaVuSans-Bold-115"/>
      <use x="332.421875" xlink:href="#DejaVuSans-Bold-32"/>
      <use x="367.236328" xlink:href="#DejaVuSans-Bold-40"/>
      <use x="412.939453" xlink:href="#DejaVuSans-Bold-115"/>
      <use x="472.460938" xlink:href="#DejaVuSans-Bold-105"/>
      <use x="506.738281" xlink:href="#DejaVuSans-Bold-110"/>
      <use x="577.929688" xlink:href="#DejaVuSans-Bold-99"/>
      <use x="637.207031" xlink:href="#DejaVuSans-Bold-101"/>
      <use x="705.029297" xlink:href="#DejaVuSans-Bold-32"/>
      <use x="739.84375" xlink:href="#DejaVuSans-Bold-115"/>
      <use x="799.365234" xlink:href="#DejaVuSans-Bold-116"/>
      <use x="847.167969" xlink:href="#DejaVuSans-Bold-97"/>
      <use x="914.648438" xlink:href="#DejaVuSans-Bold-114"/>
      <use x="963.964844" xlink:href="#DejaVuSans-Bold-116"/>
      <use x="1011.767578" xlink:href="#DejaVuSans-Bold-32"/>
      <use x="1046.582031" xlink:href="#DejaVuSans-Bold-111"/>
      <use x="1115.283203" xlink:href="#DejaVuSans-Bold-102"/>
      <use x="1158.789062" xlink:href="#DejaVuSans-Bold-32"/>
      <use x="1193.603516" xlink:href="#DejaVuSans-Bold-116"/>
      <use x="1241.40625" xlink:href="#DejaVuSans-Bold-101"/>
      <use x="1309.228516" xlink:href="#DejaVuSans-Bold-115"/>
      <use x="1368.75" xlink:href="#DejaVuSans-Bold-116"/>
      <use x="1416.552734" xlink:href="#DejaVuSans-Bold-41"/>
     </g>
    </g>
   </g>
   <g id="matplotlib.axis_2">
    <g id="ytick_1">
     <g id="text_7">
      <!-- 0 -->
      <g transform="translate(101.4825 524.377449)scale(0.3 -0.3)">
       <use xlink:href="#DejaVuSans-48"/>
      </g>
     </g>
    </g>
    <g id="ytick_2">
     <g id="text_8">
      <!-- 50 -->
      <g transform="translate(82.395 455.80846)scale(0.3 -0.3)">
       <use xlink:href="#DejaVuSans-53"/>
       <use x="63.623047" xlink:href="#DejaVuSans-48"/>
      </g>
     </g>
    </g>
    <g id="ytick_3">
     <g id="text_9">
      <!-- 100 -->
      <g transform="translate(63.3075 387.239471)scale(0.3 -0.3)">
       <use xlink:href="#DejaVuSans-49"/>
       <use x="63.623047" xlink:href="#DejaVuSans-48"/>
       <use x="127.246094" xlink:href="#DejaVuSans-48"/>
      </g>
     </g>
    </g>
    <g id="ytick_4">
     <g id="text_10">
      <!-- 150 -->
      <g transform="translate(63.3075 318.670483)scale(0.3 -0.3)">
       <use xlink:href="#DejaVuSans-49"/>
       <use x="63.623047" xlink:href="#DejaVuSans-53"/>
       <use x="127.246094" xlink:href="#DejaVuSans-48"/>
      </g>
     </g>
    </g>
    <g id="ytick_5">
     <g id="text_11">
      <!-- 200 -->
      <g transform="translate(63.3075 250.101494)scale(0.3 -0.3)">
       <use xlink:href="#DejaVuSans-50"/>
       <use x="63.623047" xlink:href="#DejaVuSans-48"/>
       <use x="127.246094" xlink:href="#DejaVuSans-48"/>
      </g>
     </g>
    </g>
    <g id="ytick_6">
     <g id="text_12">
      <!-- 250 -->
      <g transform="translate(63.3075 181.532506)scale(0.3 -0.3)">
       <use xlink:href="#DejaVuSans-50"/>
       <use x="63.623047" xlink:href="#DejaVuSans-53"/>
       <use x="127.246094" xlink:href="#DejaVuSans-48"/>
      </g>
     </g>
    </g>
    <g id="ytick_7">
     <g id="text_13">
      <!-- 300 -->
      <defs>
       <path d="M 40.578125 39.3125 
Q 47.65625 37.796875 51.625 33 
Q 55.609375 28.21875 55.609375 21.1875 
Q 55.609375 10.40625 48.1875 4.484375 
Q 40.765625 -1.421875 27.09375 -1.421875 
Q 22.515625 -1.421875 17.65625 -0.515625 
Q 12.796875 0.390625 7.625 2.203125 
L 7.625 11.71875 
Q 11.71875 9.328125 16.59375 8.109375 
Q 21.484375 6.890625 26.8125 6.890625 
Q 36.078125 6.890625 40.9375 10.546875 
Q 45.796875 14.203125 45.796875 21.1875 
Q 45.796875 27.640625 41.28125 31.265625 
Q 36.765625 34.90625 28.71875 34.90625 
L 20.21875 34.90625 
L 20.21875 43.015625 
L 29.109375 43.015625 
Q 36.375 43.015625 40.234375 45.921875 
Q 44.09375 48.828125 44.09375 54.296875 
Q 44.09375 59.90625 40.109375 62.90625 
Q 36.140625 65.921875 28.71875 65.921875 
Q 24.65625 65.921875 20.015625 65.03125 
Q 15.375 64.15625 9.8125 62.3125 
L 9.8125 71.09375 
Q 15.4375 72.65625 20.34375 73.4375 
Q 25.25 74.21875 29.59375 74.21875 
Q 40.828125 74.21875 47.359375 69.109375 
Q 53.90625 64.015625 53.90625 55.328125 
Q 53.90625 49.265625 50.4375 45.09375 
Q 46.96875 40.921875 40.578125 39.3125 
z
" id="DejaVuSans-51"/>
      </defs>
      <g transform="translate(63.3075 112.963517)scale(0.3 -0.3)">
       <use xlink:href="#DejaVuSans-51"/>
       <use x="63.623047" xlink:href="#DejaVuSans-48"/>
       <use x="127.246094" xlink:href="#DejaVuSans-48"/>
      </g>
     </g>
    </g>
    <g id="text_14">
     <!-- Rides per hour -->
     <defs>
      <path d="M 35.890625 40.578125 
Q 41.796875 40.578125 44.359375 42.765625 
Q 46.921875 44.96875 46.921875 50 
Q 46.921875 54.984375 44.359375 57.125 
Q 41.796875 59.28125 35.890625 59.28125 
L 27.984375 59.28125 
L 27.984375 40.578125 
z
M 27.984375 27.59375 
L 27.984375 0 
L 9.1875 0 
L 9.1875 72.90625 
L 37.890625 72.90625 
Q 52.296875 72.90625 59 68.0625 
Q 65.71875 63.234375 65.71875 52.78125 
Q 65.71875 45.5625 62.21875 40.921875 
Q 58.734375 36.28125 51.703125 34.078125 
Q 55.5625 33.203125 58.609375 30.09375 
Q 61.671875 27 64.796875 20.703125 
L 75 0 
L 54.984375 0 
L 46.09375 18.109375 
Q 43.40625 23.578125 40.640625 25.578125 
Q 37.890625 27.59375 33.296875 27.59375 
z
" id="DejaVuSans-Bold-82"/>
      <path d="M 45.609375 46.6875 
L 45.609375 75.984375 
L 63.1875 75.984375 
L 63.1875 0 
L 45.609375 0 
L 45.609375 7.90625 
Q 42 3.078125 37.640625 0.828125 
Q 33.296875 -1.421875 27.59375 -1.421875 
Q 17.484375 -1.421875 10.984375 6.609375 
Q 4.5 14.65625 4.5 27.296875 
Q 4.5 39.9375 10.984375 47.96875 
Q 17.484375 56 27.59375 56 
Q 33.25 56 37.625 53.734375 
Q 42 51.46875 45.609375 46.6875 
z
M 34.078125 11.28125 
Q 39.703125 11.28125 42.65625 15.375 
Q 45.609375 19.484375 45.609375 27.296875 
Q 45.609375 35.109375 42.65625 39.203125 
Q 39.703125 43.3125 34.078125 43.3125 
Q 28.515625 43.3125 25.5625 39.203125 
Q 22.609375 35.109375 22.609375 27.296875 
Q 22.609375 19.484375 25.5625 15.375 
Q 28.515625 11.28125 34.078125 11.28125 
z
" id="DejaVuSans-Bold-100"/>
      <path d="M 25.875 7.90625 
L 25.875 -20.796875 
L 8.40625 -20.796875 
L 8.40625 54.6875 
L 25.875 54.6875 
L 25.875 46.6875 
Q 29.5 51.46875 33.890625 53.734375 
Q 38.28125 56 44 56 
Q 54.109375 56 60.59375 47.96875 
Q 67.09375 39.9375 67.09375 27.296875 
Q 67.09375 14.65625 60.59375 6.609375 
Q 54.109375 -1.421875 44 -1.421875 
Q 38.28125 -1.421875 33.890625 0.84375 
Q 29.5 3.125 25.875 7.90625 
z
M 37.5 43.3125 
Q 31.890625 43.3125 28.875 39.1875 
Q 25.875 35.0625 25.875 27.296875 
Q 25.875 19.53125 28.875 15.40625 
Q 31.890625 11.28125 37.5 11.28125 
Q 43.109375 11.28125 46.0625 15.375 
Q 49.03125 19.484375 49.03125 27.296875 
Q 49.03125 35.109375 46.0625 39.203125 
Q 43.109375 43.3125 37.5 43.3125 
z
" id="DejaVuSans-Bold-112"/>
      <path d="M 63.375 33.296875 
L 63.375 0 
L 45.796875 0 
L 45.796875 5.421875 
L 45.796875 25.390625 
Q 45.796875 32.5625 45.484375 35.25 
Q 45.171875 37.9375 44.390625 39.203125 
Q 43.359375 40.921875 41.59375 41.875 
Q 39.84375 42.828125 37.59375 42.828125 
Q 32.125 42.828125 29 38.59375 
Q 25.875 34.375 25.875 26.90625 
L 25.875 0 
L 8.40625 0 
L 8.40625 75.984375 
L 25.875 75.984375 
L 25.875 46.6875 
Q 29.828125 51.46875 34.265625 53.734375 
Q 38.71875 56 44.09375 56 
Q 53.5625 56 58.46875 50.1875 
Q 63.375 44.390625 63.375 33.296875 
z
" id="DejaVuSans-Bold-104"/>
     </defs>
     <g transform="translate(40.404688 473.578125)rotate(-90)scale(0.38 -0.38)">
      <use xlink:href="#DejaVuSans-Bold-82"/>
      <use x="77.001953" xlink:href="#DejaVuSans-Bold-105"/>
      <use x="111.279297" xlink:href="#DejaVuSans-Bold-100"/>
      <use x="182.861328" xlink:href="#DejaVuSans-Bold-101"/>
      <use x="250.683594" xlink:href="#DejaVuSans-Bold-115"/>
      <use x="310.205078" xlink:href="#DejaVuSans-Bold-32"/>
      <use x="345.019531" xlink:href="#DejaVuSans-Bold-112"/>
      <use x="416.601562" xlink:href="#DejaVuSans-Bold-101"/>
      <use x="484.423828" xlink:href="#DejaVuSans-Bold-114"/>
      <use x="533.740234" xlink:href="#DejaVuSans-Bold-32"/>
      <use x="568.554688" xlink:href="#DejaVuSans-Bold-104"/>
      <use x="639.746094" xlink:href="#DejaVuSans-Bold-111"/>
      <use x="708.447266" xlink:href="#DejaVuSans-Bold-117"/>
      <use x="779.638672" xlink:href="#DejaVuSans-Bold-114"/>
     </g>
    </g>
   </g>
   <g id="line2d_1">
    <path clip-path="url(#pe7fc73d57d)" d="M 164.23321 437.553905 
L 167.596807 385.441474 
L 170.960405 349.7856 
L 174.324002 277.102472 
L 177.687599 149.564153 
L 181.051197 133.107595 
L 184.414794 108.42276 
L 187.778391 166.02071 
L 191.141988 183.848647 
L 194.505586 208.533483 
L 197.869183 230.475559 
L 201.23278 299.044548 
L 204.596377 385.441474 
L 207.959975 434.811145 
L 211.323572 438.925285 
L 214.687169 470.467019 
L 218.050767 470.467019 
L 221.414364 486.923577 
L 224.777961 502.008754 
L 228.141558 506.122894 
L 231.505156 500.637374 
L 234.868753 504.751514 
L 238.23235 500.637374 
L 241.595947 488.294957 
L 244.959545 464.9815 
L 248.323142 438.925285 
L 251.686739 338.814561 
L 255.050336 288.07351 
L 258.413934 179.734508 
L 261.777531 112.536899 
L 265.141128 185.220027 
L 268.504726 112.536899 
L 271.868323 116.651038 
L 275.23192 215.390382 
L 278.595517 229.10418 
L 281.959115 308.644206 
L 288.686309 432.068386 
L 292.049906 471.838399 
L 295.413504 463.610121 
L 298.777101 502.008754 
L 302.140698 497.894615 
L 305.504296 500.637374 
L 308.867893 512.979792 
L 312.23149 511.608413 
L 315.595087 499.265995 
L 318.958685 456.753222 
L 322.322282 340.185941 
L 325.685879 211.276242 
L 329.049476 255.160395 
L 332.413074 404.64079 
L 335.776671 396.412512 
L 339.140268 406.01217 
L 342.503865 400.526651 
L 349.23106 367.613537 
L 352.594657 366.242157 
L 355.958255 326.472143 
L 359.321852 277.102472 
L 362.685449 299.044548 
L 366.049046 363.499397 
L 369.412644 436.182525 
L 372.776241 437.553905 
L 376.139838 464.9815 
L 382.867033 500.637374 
L 386.23063 507.494273 
L 389.594227 511.608413 
L 392.957824 511.608413 
L 396.321422 507.494273 
L 399.685019 486.923577 
L 403.048616 432.068386 
L 406.412214 314.129725 
L 409.775811 381.327334 
L 413.139408 481.438058 
L 416.503005 488.294957 
L 419.866603 499.265995 
L 423.2302 485.552197 
L 426.593797 478.695298 
L 429.957394 482.809437 
L 433.320992 436.182525 
L 436.684589 447.153563 
L 440.048186 454.010462 
L 443.411784 456.753222 
L 446.775381 485.552197 
L 450.138978 503.380134 
L 453.502575 491.037716 
L 456.866173 502.008754 
L 460.22977 510.237033 
L 463.593367 511.608413 
L 466.956964 511.608413 
L 470.320562 512.979792 
L 473.684159 512.979792 
L 477.047756 502.008754 
L 480.411353 480.066678 
L 483.774951 432.068386 
L 487.138548 377.213195 
L 490.502145 385.441474 
L 493.865743 460.867361 
L 497.22934 449.896323 
L 500.592937 466.35288 
L 503.956534 433.439766 
L 507.320132 426.582867 
L 510.683729 456.753222 
L 514.047326 410.126309 
L 517.410923 341.557321 
L 520.774521 294.930409 
L 524.138118 404.64079 
L 527.501715 414.240449 
L 530.865313 441.668044 
L 534.22891 471.838399 
L 537.592507 460.867361 
L 540.956104 502.008754 
L 544.319702 502.008754 
L 547.683299 508.865653 
L 551.046896 511.608413 
L 554.410493 508.865653 
L 557.774091 507.494273 
L 561.137688 477.323918 
L 564.501285 407.38355 
L 567.864882 299.044548 
L 571.22848 349.7856 
L 574.592077 429.325626 
L 577.955674 436.182525 
L 584.682869 436.182525 
L 588.046466 447.153563 
L 591.410063 432.068386 
L 594.773661 399.155271 
L 598.137258 347.04284 
L 601.500855 340.185941 
L 604.864452 377.213195 
L 608.22805 419.725968 
L 611.591647 441.668044 
L 614.955244 460.867361 
L 618.318841 478.695298 
L 621.682439 493.780476 
L 625.046036 502.008754 
L 628.409633 511.608413 
L 635.136828 511.608413 
L 638.500425 504.751514 
L 641.864022 488.294957 
L 645.22762 436.182525 
L 648.591217 347.04284 
L 651.954814 344.30008 
L 655.318411 432.068386 
L 658.682009 407.38355 
L 662.045606 393.669752 
L 665.409203 392.298372 
L 668.772801 377.213195 
L 672.136398 338.814561 
L 675.499995 349.7856 
L 678.863592 364.870777 
L 682.22719 344.30008 
L 685.590787 377.213195 
L 688.954384 451.267703 
L 692.317981 462.238741 
L 695.681579 475.952539 
L 699.045176 471.838399 
L 702.408773 484.180817 
L 705.77237 499.265995 
L 709.135968 506.122894 
L 712.499565 508.865653 
L 715.863162 510.237033 
L 719.22676 508.865653 
L 722.590357 506.122894 
L 725.953954 485.552197 
L 729.317551 459.495981 
L 732.681149 374.470435 
L 736.044746 334.700422 
L 739.408343 304.530067 
L 742.77194 197.562445 
L 746.135538 190.705546 
L 749.499135 164.64933 
L 752.862732 105.68 
L 756.226329 146.821393 
L 759.589927 176.991748 
L 762.953524 246.932117 
L 766.317121 330.586283 
L 769.680719 389.555613 
L 773.044316 440.296664 
L 776.407913 437.553905 
L 779.77151 440.296664 
L 783.135108 436.182525 
L 786.498705 485.552197 
L 789.862302 497.894615 
L 793.225899 508.865653 
L 796.589497 508.865653 
L 799.953094 510.237033 
L 803.316691 504.751514 
L 806.680289 493.780476 
L 810.043886 481.438058 
L 813.407483 440.296664 
L 816.77108 381.327334 
L 820.134678 344.30008 
L 823.498275 278.473851 
L 826.861872 267.502813 
L 830.225469 241.446597 
L 833.589067 161.906571 
L 836.952664 182.477267 
L 840.316261 251.046256 
L 843.679858 310.015586 
L 847.043456 393.669752 
L 850.407053 443.039424 
L 853.77065 459.495981 
L 857.134248 478.695298 
L 860.497845 484.180817 
L 863.861442 495.151855 
L 867.225039 500.637374 
L 870.588637 508.865653 
L 873.952234 508.865653 
L 877.315831 512.979792 
L 880.679428 504.751514 
L 884.043026 460.867361 
L 887.406623 403.269411 
L 890.77022 270.245573 
L 894.133818 336.071802 
L 897.497415 421.097348 
L 897.497415 421.097348 
" style="fill:none;stroke:#00c8fc;stroke-linecap:square;stroke-width:2;"/>
   </g>
   <g id="line2d_2">
    <path clip-path="url(#pe7fc73d57d)" d="M 164.23321 399.703836 
L 167.596807 318.638333 
L 170.960405 305.783698 
L 174.324002 294.990172 
L 177.687599 269.463144 
L 181.051197 237.023868 
L 184.414794 209.543645 
L 187.778391 186.869801 
L 191.141988 184.519668 
L 194.505586 203.369967 
L 197.869183 259.671514 
L 201.23278 337.090753 
L 204.596377 392.751778 
L 207.959975 425.345971 
L 211.323572 443.905173 
L 214.687169 456.796799 
L 218.050767 467.003567 
L 221.414364 500.871438 
L 224.777961 502.080829 
L 228.141558 503.68501 
L 231.505156 504.277252 
L 234.868753 500.526108 
L 238.23235 492.698596 
L 241.595947 468.800275 
L 244.959545 419.545746 
L 248.323142 337.173597 
L 251.686739 329.394863 
L 255.050336 335.837058 
L 258.413934 298.317321 
L 261.777531 254.016602 
L 265.141128 172.961269 
L 268.504726 146.753385 
L 271.868323 141.668131 
L 275.23192 173.979237 
L 278.595517 255.46051 
L 281.959115 330.233205 
L 285.322712 383.425 
L 288.686309 418.376884 
L 292.049906 440.197336 
L 295.413504 453.138786 
L 298.777101 462.477298 
L 302.140698 502.015442 
L 305.504296 497.922106 
L 308.867893 490.214142 
L 312.23149 475.411803 
L 315.595087 446.892349 
L 318.958685 396.476492 
L 322.322282 317.843307 
L 325.685879 287.580126 
L 329.049476 313.286863 
L 332.413074 344.925013 
L 335.776671 381.718444 
L 339.140268 393.784958 
L 342.503865 408.941827 
L 345.867463 398.811851 
L 349.23106 385.434045 
L 352.594657 364.37257 
L 355.958255 333.597852 
L 359.321852 308.687376 
L 362.685449 320.762176 
L 366.049046 369.425107 
L 369.412644 414.918501 
L 372.776241 442.388089 
L 376.139838 460.763947 
L 379.503435 474.384926 
L 382.867033 499.348988 
L 386.23063 497.873959 
L 389.594227 493.849708 
L 392.957824 483.711467 
L 396.321422 463.959777 
L 399.685019 426.017703 
L 403.048616 363.467936 
L 406.412214 308.179763 
L 409.775811 341.080531 
L 416.503005 413.472888 
L 419.866603 432.729546 
L 423.2302 446.606521 
L 426.593797 447.474347 
L 429.957394 440.595576 
L 433.320992 418.145092 
L 436.684589 405.619491 
L 440.048186 413.84258 
L 443.411784 437.003154 
L 446.775381 461.010382 
L 450.138978 481.745347 
L 453.502575 489.490326 
L 456.866173 493.272333 
L 460.22977 495.540321 
L 463.593367 526.48 
L 466.956964 525.293404 
L 470.320562 522.994511 
L 473.684159 518.583666 
L 477.047756 510.189717 
L 480.411353 491.105293 
L 483.774951 448.180864 
L 487.138548 385.35526 
L 490.502145 394.20663 
L 497.22934 464.196827 
L 500.592937 496.932924 
L 503.956534 495.141432 
L 507.320132 473.110181 
L 510.683729 446.876524 
L 517.410923 360.378973 
L 520.774521 343.112448 
L 524.138118 363.600698 
L 527.501715 409.489732 
L 530.865313 442.299961 
L 534.22891 465.861861 
L 537.592507 480.971174 
L 540.956104 492.682622 
L 544.319702 508.415888 
L 547.683299 508.934194 
L 551.046896 509.156066 
L 554.410493 506.445341 
L 557.774091 499.456439 
L 561.137688 480.662008 
L 564.501285 441.268915 
L 567.864882 373.107708 
L 571.22848 343.649054 
L 574.592077 388.882342 
L 577.955674 431.753597 
L 581.319272 454.684575 
L 584.682869 464.859091 
L 588.046466 446.410867 
L 591.410063 431.167183 
L 598.137258 391.27169 
L 601.500855 392.089441 
L 604.864452 417.084645 
L 608.22805 452.615839 
L 611.591647 472.311901 
L 614.955244 484.917205 
L 618.318841 491.446649 
L 621.682439 495.346097 
L 625.046036 513.39017 
L 628.409633 516.047258 
L 631.773231 518.368418 
L 635.136828 517.922217 
L 638.500425 515.269538 
L 641.864022 498.176292 
L 645.22762 466.01308 
L 648.591217 406.16002 
L 651.954814 389.819087 
L 658.682009 442.006511 
L 662.045606 456.720531 
L 665.409203 470.487942 
L 668.772801 456.938392 
L 672.136398 422.785238 
L 675.499995 396.385486 
L 678.863592 373.38944 
L 682.22719 378.073676 
L 685.590787 414.721549 
L 688.954384 447.895658 
L 692.317981 469.559066 
L 695.681579 481.656202 
L 699.045176 490.210444 
L 702.408773 495.494029 
L 705.77237 514.400636 
L 709.135968 517.29953 
L 712.499565 519.893767 
L 715.863162 520.989916 
L 719.22676 518.244711 
L 722.590357 507.284894 
L 725.953954 479.165944 
L 729.317551 412.227166 
L 732.681149 321.210821 
L 736.044746 313.447321 
L 739.408343 315.874815 
L 742.77194 289.454453 
L 746.135538 254.935612 
L 749.499135 237.738205 
L 752.862732 212.168614 
L 756.226329 195.96103 
L 759.589927 201.046221 
L 762.953524 240.85208 
L 766.317121 320.361347 
L 769.680719 377.397518 
L 773.044316 415.805819 
L 776.407913 440.984792 
L 779.77151 457.635617 
L 783.135108 468.533751 
L 786.498705 506.93821 
L 789.862302 506.202442 
L 793.225899 504.675967 
L 796.589497 504.074207 
L 799.953094 501.30335 
L 803.316691 492.703174 
L 806.680289 465.153226 
L 810.043886 419.180249 
L 813.407483 334.752338 
L 816.77108 304.500185 
L 820.134678 320.935189 
L 823.498275 315.12434 
L 826.861872 295.654225 
L 830.225469 292.283028 
L 833.589067 282.587321 
L 836.952664 278.152183 
L 840.316261 289.982594 
L 843.679858 337.623278 
L 847.043456 390.322107 
L 850.407053 426.538703 
L 853.77065 449.509811 
L 857.134248 465.210798 
L 860.497845 475.376742 
L 863.861442 482.520939 
L 867.225039 506.055171 
L 870.588637 504.596158 
L 873.952234 499.947348 
L 877.315831 488.840678 
L 880.679428 466.673968 
L 884.043026 425.449479 
L 887.406623 351.471355 
L 890.77022 319.971503 
L 894.133818 335.185415 
L 897.497415 382.732436 
L 897.497415 382.732436 
" style="fill:none;stroke:#db4437;stroke-dasharray:7.4,3.2;stroke-dashoffset:0;stroke-width:2;"/>
   </g>
   <g id="patch_3">
    <path d="M 127.57 547.52 
L 127.57 84.64 
" style="fill:none;opacity:0;"/>
   </g>
   <g id="patch_4">
    <path d="M 934.160625 547.52 
L 934.160625 84.64 
" style="fill:none;opacity:0;"/>
   </g>
   <g id="patch_5">
    <path d="M 127.57 547.52 
L 934.160625 547.52 
" style="fill:none;opacity:0;"/>
   </g>
   <g id="patch_6">
    <path d="M 127.57 84.64 
L 934.160625 84.64 
" style="fill:none;opacity:0;"/>
   </g>
   <g id="text_15">
    <!-- Prediction of Citi Bike Use in Spring -->
    <defs>
     <path d="M 9.1875 72.90625 
L 40.375 72.90625 
Q 54.296875 72.90625 61.734375 66.71875 
Q 69.1875 60.546875 69.1875 49.125 
Q 69.1875 37.640625 61.734375 31.46875 
Q 54.296875 25.296875 40.375 25.296875 
L 27.984375 25.296875 
L 27.984375 0 
L 9.1875 0 
z
M 27.984375 59.28125 
L 27.984375 38.921875 
L 38.375 38.921875 
Q 43.84375 38.921875 46.828125 41.578125 
Q 49.8125 44.234375 49.8125 49.125 
Q 49.8125 54 46.828125 56.640625 
Q 43.84375 59.28125 38.375 59.28125 
z
" id="DejaVuSans-Bold-80"/>
     <path d="M 67 4 
Q 61.8125 1.3125 56.203125 -0.046875 
Q 50.59375 -1.421875 44.484375 -1.421875 
Q 26.265625 -1.421875 15.625 8.765625 
Q 4.984375 18.953125 4.984375 36.375 
Q 4.984375 53.859375 15.625 64.03125 
Q 26.265625 74.21875 44.484375 74.21875 
Q 50.59375 74.21875 56.203125 72.84375 
Q 61.8125 71.484375 67 68.796875 
L 67 53.71875 
Q 61.765625 57.28125 56.6875 58.9375 
Q 51.609375 60.59375 46 60.59375 
Q 35.9375 60.59375 30.171875 54.140625 
Q 24.421875 47.703125 24.421875 36.375 
Q 24.421875 25.09375 30.171875 18.640625 
Q 35.9375 12.203125 46 12.203125 
Q 51.609375 12.203125 56.6875 13.859375 
Q 61.765625 15.53125 67 19.09375 
z
" id="DejaVuSans-Bold-67"/>
     <path d="M 38.375 44.671875 
Q 42.828125 44.671875 45.109375 46.625 
Q 47.40625 48.578125 47.40625 52.390625 
Q 47.40625 56.15625 45.109375 58.125 
Q 42.828125 60.109375 38.375 60.109375 
L 27.984375 60.109375 
L 27.984375 44.671875 
z
M 39.015625 12.796875 
Q 44.671875 12.796875 47.53125 15.1875 
Q 50.390625 17.578125 50.390625 22.40625 
Q 50.390625 27.15625 47.5625 29.515625 
Q 44.734375 31.890625 39.015625 31.890625 
L 27.984375 31.890625 
L 27.984375 12.796875 
z
M 56.5 39.015625 
Q 62.546875 37.25 65.859375 32.515625 
Q 69.1875 27.78125 69.1875 20.90625 
Q 69.1875 10.359375 62.0625 5.171875 
Q 54.9375 0 40.375 0 
L 9.1875 0 
L 9.1875 72.90625 
L 37.40625 72.90625 
Q 52.59375 72.90625 59.40625 68.3125 
Q 66.21875 63.71875 66.21875 53.609375 
Q 66.21875 48.296875 63.71875 44.5625 
Q 61.234375 40.828125 56.5 39.015625 
z
" id="DejaVuSans-Bold-66"/>
     <path d="M 8.40625 75.984375 
L 25.875 75.984375 
L 25.875 34.625 
L 46 54.6875 
L 66.3125 54.6875 
L 39.59375 29.59375 
L 68.40625 0 
L 47.21875 0 
L 25.875 22.796875 
L 25.875 0 
L 8.40625 0 
z
" id="DejaVuSans-Bold-107"/>
     <path d="M 9.1875 72.90625 
L 27.984375 72.90625 
L 27.984375 29.203125 
Q 27.984375 20.171875 30.9375 16.28125 
Q 33.890625 12.40625 40.578125 12.40625 
Q 47.3125 12.40625 50.265625 16.28125 
Q 53.21875 20.171875 53.21875 29.203125 
L 53.21875 72.90625 
L 72.015625 72.90625 
L 72.015625 29.203125 
Q 72.015625 13.71875 64.25 6.140625 
Q 56.5 -1.421875 40.578125 -1.421875 
Q 24.703125 -1.421875 16.9375 6.140625 
Q 9.1875 13.71875 9.1875 29.203125 
z
" id="DejaVuSans-Bold-85"/>
     <path d="M 59.90625 70.609375 
L 59.90625 55.171875 
Q 53.90625 57.859375 48.1875 59.21875 
Q 42.484375 60.59375 37.40625 60.59375 
Q 30.671875 60.59375 27.4375 58.734375 
Q 24.21875 56.890625 24.21875 52.984375 
Q 24.21875 50.046875 26.390625 48.40625 
Q 28.5625 46.78125 34.28125 45.609375 
L 42.28125 44 
Q 54.4375 41.546875 59.5625 36.5625 
Q 64.703125 31.59375 64.703125 22.40625 
Q 64.703125 10.359375 57.546875 4.46875 
Q 50.390625 -1.421875 35.6875 -1.421875 
Q 28.765625 -1.421875 21.78125 -0.09375 
Q 14.796875 1.21875 7.8125 3.8125 
L 7.8125 19.671875 
Q 14.796875 15.96875 21.3125 14.078125 
Q 27.828125 12.203125 33.890625 12.203125 
Q 40.046875 12.203125 43.3125 14.25 
Q 46.578125 16.3125 46.578125 20.125 
Q 46.578125 23.53125 44.359375 25.390625 
Q 42.140625 27.25 35.5 28.71875 
L 28.21875 30.328125 
Q 17.28125 32.671875 12.21875 37.796875 
Q 7.171875 42.921875 7.171875 51.609375 
Q 7.171875 62.5 14.203125 68.359375 
Q 21.234375 74.21875 34.421875 74.21875 
Q 40.4375 74.21875 46.78125 73.3125 
Q 53.125 72.40625 59.90625 70.609375 
z
" id="DejaVuSans-Bold-83"/>
     <path d="M 45.609375 9.28125 
Q 42 4.5 37.640625 2.25 
Q 33.296875 0 27.59375 0 
Q 17.578125 0 11.03125 7.875 
Q 4.5 15.765625 4.5 27.984375 
Q 4.5 40.234375 11.03125 48.0625 
Q 17.578125 55.90625 27.59375 55.90625 
Q 33.296875 55.90625 37.640625 53.65625 
Q 42 51.421875 45.609375 46.578125 
L 45.609375 54.6875 
L 63.1875 54.6875 
L 63.1875 5.515625 
Q 63.1875 -7.671875 54.859375 -14.625 
Q 46.53125 -21.578125 30.71875 -21.578125 
Q 25.59375 -21.578125 20.796875 -20.796875 
Q 16.015625 -20.015625 11.1875 -18.40625 
L 11.1875 -4.78125 
Q 15.765625 -7.421875 20.15625 -8.71875 
Q 24.5625 -10.015625 29 -10.015625 
Q 37.59375 -10.015625 41.59375 -6.25 
Q 45.609375 -2.484375 45.609375 5.515625 
z
M 34.078125 43.3125 
Q 28.65625 43.3125 25.625 39.296875 
Q 22.609375 35.296875 22.609375 27.984375 
Q 22.609375 20.453125 25.53125 16.578125 
Q 28.46875 12.703125 34.078125 12.703125 
Q 39.546875 12.703125 42.578125 16.703125 
Q 45.609375 20.703125 45.609375 27.984375 
Q 45.609375 35.296875 42.578125 39.296875 
Q 39.546875 43.3125 34.078125 43.3125 
z
" id="DejaVuSans-Bold-103"/>
    </defs>
    <g transform="translate(77.008672 44.64)scale(0.45 -0.45)">
     <use xlink:href="#DejaVuSans-Bold-80"/>
     <use x="73.291016" xlink:href="#DejaVuSans-Bold-114"/>
     <use x="122.607422" xlink:href="#DejaVuSans-Bold-101"/>
     <use x="190.429688" xlink:href="#DejaVuSans-Bold-100"/>
     <use x="262.011719" xlink:href="#DejaVuSans-Bold-105"/>
     <use x="296.289062" xlink:href="#DejaVuSans-Bold-99"/>
     <use x="355.566406" xlink:href="#DejaVuSans-Bold-116"/>
     <use x="403.369141" xlink:href="#DejaVuSans-Bold-105"/>
     <use x="437.646484" xlink:href="#DejaVuSans-Bold-111"/>
     <use x="506.347656" xlink:href="#DejaVuSans-Bold-110"/>
     <use x="577.539062" xlink:href="#DejaVuSans-Bold-32"/>
     <use x="612.353516" xlink:href="#DejaVuSans-Bold-111"/>
     <use x="681.054688" xlink:href="#DejaVuSans-Bold-102"/>
     <use x="724.560547" xlink:href="#DejaVuSans-Bold-32"/>
     <use x="759.375" xlink:href="#DejaVuSans-Bold-67"/>
     <use x="832.763672" xlink:href="#DejaVuSans-Bold-105"/>
     <use x="867.041016" xlink:href="#DejaVuSans-Bold-116"/>
     <use x="914.84375" xlink:href="#DejaVuSans-Bold-105"/>
     <use x="949.121094" xlink:href="#DejaVuSans-Bold-32"/>
     <use x="983.935547" xlink:href="#DejaVuSans-Bold-66"/>
     <use x="1060.15625" xlink:href="#DejaVuSans-Bold-105"/>
     <use x="1094.433594" xlink:href="#DejaVuSans-Bold-107"/>
     <use x="1160.90625" xlink:href="#DejaVuSans-Bold-101"/>
     <use x="1228.728516" xlink:href="#DejaVuSans-Bold-32"/>
     <use x="1263.542969" xlink:href="#DejaVuSans-Bold-85"/>
     <use x="1344.744141" xlink:href="#DejaVuSans-Bold-115"/>
     <use x="1404.265625" xlink:href="#DejaVuSans-Bold-101"/>
     <use x="1472.087891" xlink:href="#DejaVuSans-Bold-32"/>
     <use x="1506.902344" xlink:href="#DejaVuSans-Bold-105"/>
     <use x="1541.179688" xlink:href="#DejaVuSans-Bold-110"/>
     <use x="1612.371094" xlink:href="#DejaVuSans-Bold-32"/>
     <use x="1647.185547" xlink:href="#DejaVuSans-Bold-83"/>
     <use x="1719.207031" xlink:href="#DejaVuSans-Bold-112"/>
     <use x="1790.789062" xlink:href="#DejaVuSans-Bold-114"/>
     <use x="1840.105469" xlink:href="#DejaVuSans-Bold-105"/>
     <use x="1874.382812" xlink:href="#DejaVuSans-Bold-110"/>
     <use x="1945.574219" xlink:href="#DejaVuSans-Bold-103"/>
    </g>
   </g>
   <g id="legend_1">
    <g id="patch_7">
     <path d="M 305.830156 106.528388 
L 755.900469 106.528388 
Q 761.900469 106.528388 761.900469 100.528388 
L 761.900469 59.494013 
Q 761.900469 53.494013 755.900469 53.494013 
L 305.830156 53.494013 
Q 299.830156 53.494013 299.830156 59.494013 
L 299.830156 100.528388 
Q 299.830156 106.528388 305.830156 106.528388 
z
" style="fill:#ffffff;opacity:0.8;"/>
    </g>
    <g id="line2d_3">
     <path d="M 311.830156 77.789325 
L 371.830156 77.789325 
" style="fill:none;stroke:#00c8fc;stroke-linecap:square;stroke-width:2;"/>
    </g>
    <g id="line2d_4"/>
    <g id="text_16">
     <!-- True -->
     <defs>
      <path d="M -0.296875 72.90625 
L 61.375 72.90625 
L 61.375 64.59375 
L 35.5 64.59375 
L 35.5 0 
L 25.59375 0 
L 25.59375 64.59375 
L -0.296875 64.59375 
z
" id="DejaVuSans-84"/>
      <path d="M 41.109375 46.296875 
Q 39.59375 47.171875 37.8125 47.578125 
Q 36.03125 48 33.890625 48 
Q 26.265625 48 22.1875 43.046875 
Q 18.109375 38.09375 18.109375 28.8125 
L 18.109375 0 
L 9.078125 0 
L 9.078125 54.6875 
L 18.109375 54.6875 
L 18.109375 46.1875 
Q 20.953125 51.171875 25.484375 53.578125 
Q 30.03125 56 36.53125 56 
Q 37.453125 56 38.578125 55.875 
Q 39.703125 55.765625 41.0625 55.515625 
z
" id="DejaVuSans-114"/>
      <path d="M 8.5 21.578125 
L 8.5 54.6875 
L 17.484375 54.6875 
L 17.484375 21.921875 
Q 17.484375 14.15625 20.5 10.265625 
Q 23.53125 6.390625 29.59375 6.390625 
Q 36.859375 6.390625 41.078125 11.03125 
Q 45.3125 15.671875 45.3125 23.6875 
L 45.3125 54.6875 
L 54.296875 54.6875 
L 54.296875 0 
L 45.3125 0 
L 45.3125 8.40625 
Q 42.046875 3.421875 37.71875 1 
Q 33.40625 -1.421875 27.6875 -1.421875 
Q 18.265625 -1.421875 13.375 4.4375 
Q 8.5 10.296875 8.5 21.578125 
z
M 31.109375 56 
z
" id="DejaVuSans-117"/>
      <path d="M 56.203125 29.59375 
L 56.203125 25.203125 
L 14.890625 25.203125 
Q 15.484375 15.921875 20.484375 11.0625 
Q 25.484375 6.203125 34.421875 6.203125 
Q 39.59375 6.203125 44.453125 7.46875 
Q 49.3125 8.734375 54.109375 11.28125 
L 54.109375 2.78125 
Q 49.265625 0.734375 44.1875 -0.34375 
Q 39.109375 -1.421875 33.890625 -1.421875 
Q 20.796875 -1.421875 13.15625 6.1875 
Q 5.515625 13.8125 5.515625 26.8125 
Q 5.515625 40.234375 12.765625 48.109375 
Q 20.015625 56 32.328125 56 
Q 43.359375 56 49.78125 48.890625 
Q 56.203125 41.796875 56.203125 29.59375 
z
M 47.21875 32.234375 
Q 47.125 39.59375 43.09375 43.984375 
Q 39.0625 48.390625 32.421875 48.390625 
Q 24.90625 48.390625 20.390625 44.140625 
Q 15.875 39.890625 15.1875 32.171875 
z
" id="DejaVuSans-101"/>
     </defs>
     <g transform="translate(395.830156 88.289325)scale(0.3 -0.3)">
      <use xlink:href="#DejaVuSans-84"/>
      <use x="60.865234" xlink:href="#DejaVuSans-114"/>
      <use x="101.978516" xlink:href="#DejaVuSans-117"/>
      <use x="165.357422" xlink:href="#DejaVuSans-101"/>
     </g>
    </g>
    <g id="line2d_5">
     <path d="M 523.892656 77.789325 
L 583.892656 77.789325 
" style="fill:none;stroke:#db4437;stroke-dasharray:7.4,3.2;stroke-dashoffset:0;stroke-width:2;"/>
    </g>
    <g id="line2d_6"/>
    <g id="text_17">
     <!-- Predicted -->
     <defs>
      <path d="M 19.671875 64.796875 
L 19.671875 37.40625 
L 32.078125 37.40625 
Q 38.96875 37.40625 42.71875 40.96875 
Q 46.484375 44.53125 46.484375 51.125 
Q 46.484375 57.671875 42.71875 61.234375 
Q 38.96875 64.796875 32.078125 64.796875 
z
M 9.8125 72.90625 
L 32.078125 72.90625 
Q 44.34375 72.90625 50.609375 67.359375 
Q 56.890625 61.8125 56.890625 51.125 
Q 56.890625 40.328125 50.609375 34.8125 
Q 44.34375 29.296875 32.078125 29.296875 
L 19.671875 29.296875 
L 19.671875 0 
L 9.8125 0 
z
" id="DejaVuSans-80"/>
      <path d="M 45.40625 46.390625 
L 45.40625 75.984375 
L 54.390625 75.984375 
L 54.390625 0 
L 45.40625 0 
L 45.40625 8.203125 
Q 42.578125 3.328125 38.25 0.953125 
Q 33.9375 -1.421875 27.875 -1.421875 
Q 17.96875 -1.421875 11.734375 6.484375 
Q 5.515625 14.40625 5.515625 27.296875 
Q 5.515625 40.1875 11.734375 48.09375 
Q 17.96875 56 27.875 56 
Q 33.9375 56 38.25 53.625 
Q 42.578125 51.265625 45.40625 46.390625 
z
M 14.796875 27.296875 
Q 14.796875 17.390625 18.875 11.75 
Q 22.953125 6.109375 30.078125 6.109375 
Q 37.203125 6.109375 41.296875 11.75 
Q 45.40625 17.390625 45.40625 27.296875 
Q 45.40625 37.203125 41.296875 42.84375 
Q 37.203125 48.484375 30.078125 48.484375 
Q 22.953125 48.484375 18.875 42.84375 
Q 14.796875 37.203125 14.796875 27.296875 
z
" id="DejaVuSans-100"/>
      <path d="M 9.421875 54.6875 
L 18.40625 54.6875 
L 18.40625 0 
L 9.421875 0 
z
M 9.421875 75.984375 
L 18.40625 75.984375 
L 18.40625 64.59375 
L 9.421875 64.59375 
z
" id="DejaVuSans-105"/>
      <path d="M 48.78125 52.59375 
L 48.78125 44.1875 
Q 44.96875 46.296875 41.140625 47.34375 
Q 37.3125 48.390625 33.40625 48.390625 
Q 24.65625 48.390625 19.8125 42.84375 
Q 14.984375 37.3125 14.984375 27.296875 
Q 14.984375 17.28125 19.8125 11.734375 
Q 24.65625 6.203125 33.40625 6.203125 
Q 37.3125 6.203125 41.140625 7.25 
Q 44.96875 8.296875 48.78125 10.40625 
L 48.78125 2.09375 
Q 45.015625 0.34375 40.984375 -0.53125 
Q 36.96875 -1.421875 32.421875 -1.421875 
Q 20.0625 -1.421875 12.78125 6.34375 
Q 5.515625 14.109375 5.515625 27.296875 
Q 5.515625 40.671875 12.859375 48.328125 
Q 20.21875 56 33.015625 56 
Q 37.15625 56 41.109375 55.140625 
Q 45.0625 54.296875 48.78125 52.59375 
z
" id="DejaVuSans-99"/>
      <path d="M 18.3125 70.21875 
L 18.3125 54.6875 
L 36.8125 54.6875 
L 36.8125 47.703125 
L 18.3125 47.703125 
L 18.3125 18.015625 
Q 18.3125 11.328125 20.140625 9.421875 
Q 21.96875 7.515625 27.59375 7.515625 
L 36.8125 7.515625 
L 36.8125 0 
L 27.59375 0 
Q 17.1875 0 13.234375 3.875 
Q 9.28125 7.765625 9.28125 18.015625 
L 9.28125 47.703125 
L 2.6875 47.703125 
L 2.6875 54.6875 
L 9.28125 54.6875 
L 9.28125 70.21875 
z
" id="DejaVuSans-116"/>
     </defs>
     <g transform="translate(607.892656 88.289325)scale(0.3 -0.3)">
      <use xlink:href="#DejaVuSans-80"/>
      <use x="60.287109" xlink:href="#DejaVuSans-114"/>
      <use x="101.369141" xlink:href="#DejaVuSans-101"/>
      <use x="162.892578" xlink:href="#DejaVuSans-100"/>
      <use x="226.369141" xlink:href="#DejaVuSans-105"/>
      <use x="254.152344" xlink:href="#DejaVuSans-99"/>
      <use x="309.132812" xlink:href="#DejaVuSans-116"/>
      <use x="348.341797" xlink:href="#DejaVuSans-101"/>
      <use x="409.865234" xlink:href="#DejaVuSans-100"/>
     </g>
    </g>
   </g>
  </g>
 </g>
 <defs>
  <clipPath id="pe7fc73d57d">
   <rect height="462.88" width="806.590625" x="127.57" y="84.64"/>
  </clipPath>
 </defs>
</svg>
