<?xml version="1.0" encoding="utf-8" standalone="no"?>
<!DOCTYPE svg PUBLIC "-//W3C//DTD SVG 1.1//EN"
  "http://www.w3.org/Graphics/SVG/1.1/DTD/svg11.dtd">
<!-- Created with matplotlib (https://matplotlib.org/) -->
<svg height="216pt" version="1.1" viewBox="0 0 1152 216" width="1152pt" xmlns="http://www.w3.org/2000/svg" xmlns:xlink="http://www.w3.org/1999/xlink">
 <defs>
  <style type="text/css">
*{stroke-linecap:butt;stroke-linejoin:round;}
  </style>
 </defs>
 <g id="figure_1">
  <g id="patch_1">
   <path d="M 0 216 
L 1152 216 
L 1152 0 
L 0 0 
z
" style="fill:#ffffff;"/>
  </g>
  <g id="axes_1">
   <g id="patch_2">
    <path d="M 30.24 156.82 
L 1121.76 156.82 
L 1121.76 77.816 
L 30.24 77.816 
z
" style="fill:#eaeaf2;"/>
   </g>
   <g id="matplotlib.axis_1">
    <g id="xtick_1">
     <g id="text_1">
      <!-- Citi Bike -->
      <defs>
       <path d="M 40.90625 -1.59375 
Q 25 -1.59375 14.296875 9.09375 
Q 3.703125 19.796875 3.703125 35.796875 
Q 3.703125 51.796875 14.296875 62.40625 
Q 24.90625 73.203125 40.90625 73.203125 
Q 57.09375 73.203125 67.203125 61.5 
L 60.59375 55.09375 
Q 52.90625 64.40625 40.90625 64.40625 
Q 29 64.40625 21 56.40625 
Q 13.09375 48.5 13.09375 35.796875 
Q 13.09375 23.09375 21 15.203125 
Q 29 7.203125 40.90625 7.203125 
Q 53.40625 7.203125 62.59375 17.703125 
L 69.296875 11.203125 
Q 64.203125 5.09375 56.796875 1.75 
Q 49.40625 -1.59375 40.90625 -1.59375 
z
" id="ProductSans-Regular-67"/>
       <path d="M 17.5 65.90625 
Q 17.5 63.203125 15.59375 61.296875 
Q 13.703125 59.40625 11 59.40625 
Q 8.296875 59.40625 6.390625 61.296875 
Q 4.5 63.203125 4.5 65.90625 
Q 4.5 68.59375 6.390625 70.5 
Q 8.296875 72.40625 11 72.40625 
Q 13.703125 72.40625 15.59375 70.5 
Q 17.5 68.59375 17.5 65.90625 
z
M 15.59375 49 
L 15.59375 0 
L 6.40625 0 
L 6.40625 49 
z
" id="ProductSans-Regular-105"/>
       <path d="M 25 -0.796875 
Q 19 -0.796875 15.046875 2.890625 
Q 11.09375 6.59375 11 13.203125 
L 11 40.59375 
L 2.40625 40.59375 
L 2.40625 49 
L 11 49 
L 11 64 
L 20.203125 64 
L 20.203125 49 
L 32.203125 49 
L 32.203125 40.59375 
L 20.203125 40.59375 
L 20.203125 16.203125 
Q 20.203125 11.296875 22.09375 9.546875 
Q 24 7.796875 26.40625 7.796875 
Q 27.5 7.796875 28.546875 8.046875 
Q 29.59375 8.296875 30.5 8.703125 
L 33.40625 0.5 
Q 29.796875 -0.796875 25 -0.796875 
z
" id="ProductSans-Regular-116"/>
       <path id="ProductSans-Regular-32"/>
       <path d="M 7.203125 0 
L 7.203125 71.59375 
L 33.09375 71.59375 
Q 41.59375 71.59375 47.703125 66 
Q 53.796875 60.5 53.796875 52.09375 
Q 53.796875 41.5 44.09375 37.203125 
L 44.09375 36.796875 
Q 49.59375 35 52.890625 30.546875 
Q 56.203125 26.09375 56.203125 20.40625 
Q 56.203125 11.59375 49.796875 5.796875 
Q 43.59375 0 34.5 0 
z
M 16.40625 62.796875 
L 16.40625 40.90625 
L 33.09375 40.90625 
Q 38 40.90625 41.296875 44.203125 
Q 44.59375 47.59375 44.59375 51.90625 
Q 44.59375 56.09375 41.40625 59.5 
Q 38.203125 62.796875 33.5 62.796875 
z
M 16.40625 32.296875 
L 16.40625 8.796875 
L 34.90625 8.796875 
Q 39.90625 8.796875 43.40625 12.296875 
Q 46.796875 15.796875 46.796875 20.59375 
Q 46.796875 25.296875 43.296875 28.796875 
Q 39.796875 32.296875 34.5 32.296875 
z
" id="ProductSans-Regular-66"/>
       <path d="M 48.703125 0 
L 37.59375 0 
L 22.296875 23.09375 
L 14.796875 15.703125 
L 14.796875 0 
L 5.59375 0 
L 5.59375 71.59375 
L 14.796875 71.59375 
L 14.796875 27.5 
L 36 49 
L 47.796875 49 
L 47.796875 48.59375 
L 28.703125 29.59375 
L 48.703125 0.40625 
z
" id="ProductSans-Regular-107"/>
       <path d="M 27.59375 -1.59375 
Q 16.796875 -1.59375 9.796875 5.796875 
Q 2.796875 13.203125 2.796875 24.5 
Q 2.796875 35.703125 9.59375 43.140625 
Q 16.40625 50.59375 27 50.59375 
Q 37.90625 50.59375 44.34375 43.546875 
Q 50.796875 36.5 50.796875 23.796875 
L 50.703125 22.796875 
L 12.203125 22.796875 
Q 12.40625 15.59375 17 11.1875 
Q 21.59375 6.796875 28 6.796875 
Q 36.796875 6.796875 41.796875 15.59375 
L 50 11.59375 
Q 46.703125 5.40625 40.84375 1.90625 
Q 35 -1.59375 27.59375 -1.59375 
z
M 12.90625 30.40625 
L 41 30.40625 
Q 40.59375 35.5 36.84375 38.84375 
Q 33.09375 42.203125 26.796875 42.203125 
Q 21.59375 42.203125 17.84375 39 
Q 14.09375 35.796875 12.90625 30.40625 
z
" id="ProductSans-Regular-101"/>
      </defs>
      <g style="fill:#262626;" transform="translate(92.902781 184.934375)scale(0.26 -0.26)">
       <use xlink:href="#ProductSans-Regular-67"/>
       <use x="72.899994" xlink:href="#ProductSans-Regular-105"/>
       <use x="94.899979" xlink:href="#ProductSans-Regular-116"/>
       <use x="130.299973" xlink:href="#ProductSans-Regular-105"/>
       <use x="152.299957" xlink:href="#ProductSans-Regular-32"/>
       <use x="174.299942" xlink:href="#ProductSans-Regular-66"/>
       <use x="233.699936" xlink:href="#ProductSans-Regular-105"/>
       <use x="255.699921" xlink:href="#ProductSans-Regular-107"/>
       <use x="303.999908" xlink:href="#ProductSans-Regular-101"/>
      </g>
     </g>
    </g>
    <g id="xtick_2">
     <g id="text_2">
      <!-- Green Taxi -->
      <defs>
       <path d="M 76.09375 32.90625 
Q 76.09375 17.90625 67.203125 9 
Q 57.203125 -1.59375 40.90625 -1.59375 
Q 25.296875 -1.59375 14.5 9.203125 
Q 3.703125 20 3.703125 35.796875 
Q 3.703125 51.59375 14.5 62.40625 
Q 25.296875 73.203125 40.90625 73.203125 
Q 48.796875 73.203125 55.796875 70.390625 
Q 62.796875 67.59375 67.296875 62.5 
L 60.703125 55.90625 
Q 57.40625 59.90625 52.15625 62.15625 
Q 46.90625 64.40625 40.90625 64.40625 
Q 29.203125 64.40625 21.09375 56.296875 
Q 13.09375 48.09375 13.09375 35.796875 
Q 13.09375 23.5 21.09375 15.296875 
Q 29.203125 7.203125 40.90625 7.203125 
Q 51.59375 7.203125 58.703125 13.203125 
Q 65.796875 19.203125 66.90625 29.703125 
L 40.90625 29.703125 
L 40.90625 38.296875 
L 75.59375 38.296875 
Q 76.09375 35.5 76.09375 32.90625 
z
" id="ProductSans-Regular-71"/>
       <path d="M 14.796875 0 
L 5.59375 0 
L 5.59375 49 
L 14.40625 49 
L 14.40625 41 
L 14.796875 41 
Q 16.203125 44.90625 20.546875 47.65625 
Q 24.90625 50.40625 29.09375 50.40625 
Q 33.09375 50.40625 35.90625 49.203125 
L 33.09375 40.296875 
Q 31.40625 41 27.703125 41 
Q 22.5 41 18.640625 36.796875 
Q 14.796875 32.59375 14.796875 27 
z
" id="ProductSans-Regular-114"/>
       <path d="M 5.59375 49 
L 14.40625 49 
L 14.40625 42.203125 
L 14.796875 42.203125 
Q 16.90625 45.796875 21.25 48.1875 
Q 25.59375 50.59375 30.296875 50.59375 
Q 39.296875 50.59375 44.140625 45.4375 
Q 49 40.296875 49 30.796875 
L 49 0 
L 39.796875 0 
L 39.796875 30.203125 
Q 39.5 42.203125 27.703125 42.203125 
Q 22.203125 42.203125 18.5 37.75 
Q 14.796875 33.296875 14.796875 27.09375 
L 14.796875 0 
L 5.59375 0 
z
" id="ProductSans-Regular-110"/>
       <path d="M 31.59375 62.796875 
L 31.59375 0 
L 22.40625 0 
L 22.40625 62.796875 
L 2.40625 62.796875 
L 2.40625 71.59375 
L 51.59375 71.59375 
L 51.59375 62.796875 
z
" id="ProductSans-Regular-84"/>
       <path d="M 12.296875 15 
Q 12.296875 11.40625 15.34375 9 
Q 18.40625 6.59375 22.5 6.59375 
Q 28.296875 6.59375 32.84375 10.890625 
Q 37.40625 15.203125 37.40625 21 
Q 33.09375 24.40625 25.40625 24.40625 
Q 19.796875 24.40625 16.046875 21.703125 
Q 12.296875 19 12.296875 15 
z
M 24.203125 50.59375 
Q 34.40625 50.59375 40.296875 45.140625 
Q 46.203125 39.703125 46.203125 30.203125 
L 46.203125 0 
L 37.40625 0 
L 37.40625 6.796875 
L 37 6.796875 
Q 31.296875 -1.59375 21.796875 -1.59375 
Q 13.703125 -1.59375 8.25 3.203125 
Q 2.796875 8 2.796875 15.203125 
Q 2.796875 22.796875 8.546875 27.296875 
Q 14.296875 31.796875 23.90625 31.796875 
Q 32.09375 31.796875 37.40625 28.796875 
L 37.40625 30.90625 
Q 37.40625 35.703125 33.59375 39.046875 
Q 29.796875 42.40625 24.703125 42.40625 
Q 17 42.40625 12.5 35.90625 
L 4.40625 41 
Q 11.09375 50.59375 24.203125 50.59375 
z
" id="ProductSans-Regular-97"/>
       <path d="M 28.90625 24.90625 
L 46.40625 0 
L 35.59375 0 
L 23.5 18.09375 
L 11.59375 0 
L 0.796875 0 
L 18.09375 24.90625 
L 1.203125 49 
L 11.59375 49 
L 23.703125 31.703125 
L 35.203125 49 
L 46 49 
z
" id="ProductSans-Regular-120"/>
      </defs>
      <g style="fill:#262626;" transform="translate(296.078031 184.934375)scale(0.26 -0.26)">
       <use xlink:href="#ProductSans-Regular-71"/>
       <use x="80.099991" xlink:href="#ProductSans-Regular-114"/>
       <use x="116.399979" xlink:href="#ProductSans-Regular-101"/>
       <use x="169.999969" xlink:href="#ProductSans-Regular-101"/>
       <use x="223.59996" xlink:href="#ProductSans-Regular-110"/>
       <use x="277.799957" xlink:href="#ProductSans-Regular-32"/>
       <use x="299.799942" xlink:href="#ProductSans-Regular-84"/>
       <use x="353.799927" xlink:href="#ProductSans-Regular-97"/>
       <use x="404.799911" xlink:href="#ProductSans-Regular-120"/>
       <use x="451.999908" xlink:href="#ProductSans-Regular-105"/>
      </g>
     </g>
    </g>
    <g id="xtick_3">
     <g id="text_3">
      <!-- Lyft -->
      <defs>
       <path d="M 47.40625 0 
L 7.203125 0 
L 7.203125 71.59375 
L 16.40625 71.59375 
L 16.40625 8.796875 
L 47.40625 8.796875 
z
" id="ProductSans-Regular-76"/>
       <path d="M 49.40625 49 
L 18.703125 -21.59375 
L 9.203125 -21.59375 
L 20.59375 3.09375 
L 0.40625 49 
L 10.40625 49 
L 25 13.796875 
L 25.203125 13.796875 
L 39.40625 49 
z
" id="ProductSans-Regular-121"/>
       <path d="M 28.203125 72.40625 
Q 33.203125 72.40625 36.40625 70.703125 
L 33.90625 62.59375 
Q 31.5 63.796875 28.5 63.796875 
Q 25.09375 63.796875 22.9375 61.4375 
Q 20.796875 59.09375 20.796875 55.203125 
L 20.796875 49 
L 33.59375 49 
L 33.59375 40.59375 
L 20.796875 40.59375 
L 20.796875 0 
L 11.59375 0 
L 11.59375 40.59375 
L 2.40625 40.59375 
L 2.40625 49 
L 11.59375 49 
L 11.59375 56.09375 
Q 11.59375 63.40625 16.25 67.90625 
Q 20.90625 72.40625 28.203125 72.40625 
z
" id="ProductSans-Regular-102"/>
      </defs>
      <g style="fill:#262626;" transform="translate(553.666406 185.145625)scale(0.26 -0.26)">
       <use xlink:href="#ProductSans-Regular-76"/>
       <use x="49.799988" xlink:href="#ProductSans-Regular-121"/>
       <use x="99.599976" xlink:href="#ProductSans-Regular-102"/>
       <use x="136.399963" xlink:href="#ProductSans-Regular-116"/>
      </g>
     </g>
    </g>
    <g id="xtick_4">
     <g id="text_4">
      <!-- Uber -->
      <defs>
       <path d="M 32.09375 -1.59375 
Q 20.203125 -1.59375 12.90625 6.203125 
Q 5.59375 13.90625 5.59375 26.59375 
L 5.59375 71.59375 
L 14.796875 71.59375 
L 14.796875 26.203125 
Q 14.796875 17.40625 19.390625 12.296875 
Q 24 7.203125 32.09375 7.203125 
Q 40.203125 7.203125 44.796875 12.296875 
Q 49.40625 17.40625 49.40625 26.203125 
L 49.40625 71.59375 
L 58.59375 71.59375 
L 58.59375 26.59375 
Q 58.59375 13.59375 51.40625 6 
Q 44.203125 -1.59375 32.09375 -1.59375 
z
" id="ProductSans-Regular-85"/>
       <path d="M 31.5 -1.59375 
Q 26.09375 -1.59375 21.640625 0.703125 
Q 17.203125 3 14.796875 6.796875 
L 14.40625 6.796875 
L 14.40625 0 
L 5.59375 0 
L 5.59375 71.59375 
L 14.796875 71.59375 
L 14.796875 49 
L 14.40625 42.203125 
L 14.796875 42.203125 
Q 17.203125 46 21.640625 48.296875 
Q 26.09375 50.59375 31.5 50.59375 
Q 41.203125 50.59375 47.90625 43 
Q 54.796875 35.296875 54.796875 24.5 
Q 54.796875 13.59375 47.90625 6 
Q 41.203125 -1.59375 31.5 -1.59375 
z
M 30 6.796875 
Q 36.59375 6.796875 41.09375 11.796875 
Q 45.59375 16.703125 45.59375 24.5 
Q 45.59375 32.203125 41.09375 37.203125 
Q 36.59375 42.203125 30 42.203125 
Q 23.296875 42.203125 18.796875 37.203125 
Q 14.40625 32.203125 14.40625 24.5 
Q 14.40625 16.703125 18.796875 11.703125 
Q 23.296875 6.796875 30 6.796875 
z
" id="ProductSans-Regular-98"/>
      </defs>
      <g style="fill:#262626;" transform="translate(766.784625 184.934375)scale(0.26 -0.26)">
       <use xlink:href="#ProductSans-Regular-85"/>
       <use x="64.199997" xlink:href="#ProductSans-Regular-98"/>
       <use x="121.799988" xlink:href="#ProductSans-Regular-101"/>
       <use x="175.399979" xlink:href="#ProductSans-Regular-114"/>
      </g>
     </g>
    </g>
    <g id="xtick_5">
     <g id="text_5">
      <!-- Yellow Taxi -->
      <defs>
       <path d="M 34.5 33.296875 
L 34.5 0 
L 25.296875 0 
L 25.296875 33.296875 
L 1.203125 71.59375 
L 12 71.59375 
L 29.703125 42.5 
L 30.09375 42.5 
L 47.40625 71.59375 
L 58.203125 71.59375 
z
" id="ProductSans-Regular-89"/>
       <path d="M 14.796875 71.59375 
L 14.796875 0 
L 5.59375 0 
L 5.59375 71.59375 
z
" id="ProductSans-Regular-108"/>
       <path d="M 2.796875 24.5 
Q 2.796875 35.796875 9.90625 43.203125 
Q 17.09375 50.59375 28 50.59375 
Q 38.90625 50.59375 46 43.203125 
Q 53.203125 35.796875 53.203125 24.5 
Q 53.203125 13.09375 46 5.796875 
Q 38.90625 -1.59375 28 -1.59375 
Q 17.09375 -1.59375 9.90625 5.796875 
Q 2.796875 13.203125 2.796875 24.5 
z
M 12 24.5 
Q 12 16.59375 16.59375 11.703125 
Q 21.203125 6.796875 28 6.796875 
Q 34.796875 6.796875 39.40625 11.703125 
Q 44 16.59375 44 24.5 
Q 44 32.296875 39.40625 37.203125 
Q 34.703125 42.203125 28 42.203125 
Q 21.296875 42.203125 16.59375 37.203125 
Q 12 32.296875 12 24.5 
z
" id="ProductSans-Regular-111"/>
       <path d="M 75 49 
L 59.203125 0 
L 49.796875 0 
L 37.59375 37.59375 
L 25.5 0 
L 16.203125 0 
L 0.40625 49 
L 10 49 
L 20.90625 12 
L 21 12 
L 33.09375 49 
L 42.59375 49 
L 54.703125 12 
L 54.796875 12 
L 65.59375 49 
z
" id="ProductSans-Regular-119"/>
      </defs>
      <g style="fill:#262626;" transform="translate(950.023156 184.934375)scale(0.26 -0.26)">
       <use xlink:href="#ProductSans-Regular-89"/>
       <use x="59.399994" xlink:href="#ProductSans-Regular-101"/>
       <use x="112.999985" xlink:href="#ProductSans-Regular-108"/>
       <use x="133.399979" xlink:href="#ProductSans-Regular-108"/>
       <use x="153.799973" xlink:href="#ProductSans-Regular-111"/>
       <use x="209.799957" xlink:href="#ProductSans-Regular-119"/>
       <use x="285.199951" xlink:href="#ProductSans-Regular-32"/>
       <use x="307.199936" xlink:href="#ProductSans-Regular-84"/>
       <use x="361.199921" xlink:href="#ProductSans-Regular-97"/>
       <use x="412.199905" xlink:href="#ProductSans-Regular-120"/>
       <use x="459.399902" xlink:href="#ProductSans-Regular-105"/>
      </g>
     </g>
    </g>
   </g>
   <g id="matplotlib.axis_2">
    <g id="ytick_1"/>
   </g>
   <g id="QuadMesh_1">
    <path clip-path="url(#pc8c0c571de)" d="M 30.24 77.816 
L 248.544 77.816 
L 248.544 156.82 
L 30.24 156.82 
L 30.24 77.816 
" style="fill:#4285f4;stroke:#ffffff;"/>
    <path clip-path="url(#pc8c0c571de)" d="M 248.544 77.816 
L 466.848 77.816 
L 466.848 156.82 
L 248.544 156.82 
L 248.544 77.816 
" style="fill:#82aef8;stroke:#ffffff;"/>
    <path clip-path="url(#pc8c0c571de)" d="M 466.848 77.816 
L 685.152 77.816 
L 685.152 156.82 
L 466.848 156.82 
L 466.848 77.816 
" style="fill:#6ca0f6;stroke:#ffffff;"/>
    <path clip-path="url(#pc8c0c571de)" d="M 685.152 77.816 
L 903.456 77.816 
L 903.456 156.82 
L 685.152 156.82 
L 685.152 77.816 
" style="fill:#97bcf9;stroke:#ffffff;"/>
    <path clip-path="url(#pc8c0c571de)" d="M 903.456 77.816 
L 1121.76 77.816 
L 1121.76 156.82 
L 903.456 156.82 
L 903.456 77.816 
" style="fill:#87b1f8;stroke:#ffffff;"/>
   </g>
   <g id="text_6">
    <!-- 0.2512 -->
    <defs>
     <path d="M 4.40625 34.203125 
Q 4.40625 49.796875 12.09375 59.90625 
Q 19.796875 70 31.90625 70 
Q 44 70 51.703125 59.796875 
Q 59.40625 49.703125 59.40625 34.203125 
Q 59.40625 18.796875 51.703125 8.5 
Q 44 -1.59375 31.90625 -1.59375 
Q 19.796875 -1.59375 12.09375 8.5 
Q 4.40625 18.796875 4.40625 34.203125 
z
M 50 34.203125 
Q 50 46 45 53.59375 
Q 40.09375 61.203125 31.90625 61.203125 
Q 23.703125 61.203125 18.796875 53.59375 
Q 13.796875 46 13.796875 34.203125 
Q 13.796875 22.40625 18.796875 14.703125 
Q 23.703125 7.203125 31.90625 7.203125 
Q 40.09375 7.203125 45 14.796875 
Q 50 22.5 50 34.203125 
z
" id="ProductSans-Regular-48"/>
     <path d="M 18.40625 6.203125 
Q 18.40625 3.40625 16.453125 1.40625 
Q 14.5 -0.59375 11.59375 -0.59375 
Q 8.796875 -0.59375 6.796875 1.40625 
Q 4.796875 3.40625 4.796875 6.203125 
Q 4.796875 9.09375 6.796875 11.046875 
Q 8.796875 13 11.59375 13 
Q 14.5 13 16.453125 11.046875 
Q 18.40625 9.09375 18.40625 6.203125 
z
" id="ProductSans-Regular-46"/>
     <path d="M 47.59375 8.796875 
L 47.59375 0 
L 4 0 
L 4 9.203125 
L 21.703125 27.09375 
Q 30.59375 36.203125 34 40.75 
Q 37.40625 45.296875 37.40625 50.296875 
Q 37.40625 54.796875 33.90625 58 
Q 30.40625 61.203125 24.90625 61.203125 
Q 20.203125 61.203125 16.796875 58.390625 
Q 13.40625 55.59375 12.40625 51.59375 
L 4 55 
Q 6 61.296875 11.703125 65.640625 
Q 17.40625 70 25.09375 70 
Q 34.40625 70 40.59375 64.296875 
Q 46.796875 58.59375 46.796875 50.296875 
Q 46.796875 40.40625 35.90625 28.90625 
L 15.90625 8.796875 
z
" id="ProductSans-Regular-50"/>
     <path d="M 50.703125 21.40625 
Q 50.703125 11.59375 43.890625 5 
Q 37.09375 -1.59375 27.09375 -1.59375 
Q 19.09375 -1.59375 12.59375 3.40625 
Q 6.09375 8.40625 4 16.90625 
L 12.203125 20.203125 
Q 13.703125 14.203125 17.640625 10.703125 
Q 21.59375 7.203125 26.90625 7.203125 
Q 33.296875 7.203125 37.34375 11.140625 
Q 41.40625 15.09375 41.40625 21.296875 
Q 41.40625 27.59375 37.34375 31.59375 
Q 33.296875 35.59375 27 35.59375 
Q 19.703125 35.59375 15.5 29.703125 
L 6.203125 33.703125 
L 10.59375 68.40625 
L 46.5 68.40625 
L 46.5 59.59375 
L 18.296875 59.59375 
L 15.796875 40 
L 16.203125 39.90625 
Q 21.296875 44 28.59375 44 
Q 37.796875 44 44.25 37.5 
Q 50.703125 31 50.703125 21.40625 
z
" id="ProductSans-Regular-53"/>
     <path d="M 30 68.40625 
L 30 0 
L 20.796875 0 
L 20.796875 57 
L 7.5 51.203125 
L 4 59 
L 24.09375 68.40625 
z
" id="ProductSans-Regular-49"/>
    </defs>
    <g style="fill:#ffffff;" transform="translate(105.20325 123.318)scale(0.24 -0.24)">
     <use xlink:href="#ProductSans-Regular-48"/>
     <use x="63.799988" xlink:href="#ProductSans-Regular-46"/>
     <use x="86.999985" xlink:href="#ProductSans-Regular-50"/>
     <use x="138.999969" xlink:href="#ProductSans-Regular-53"/>
     <use x="194.499954" xlink:href="#ProductSans-Regular-49"/>
     <use x="232.899948" xlink:href="#ProductSans-Regular-50"/>
    </g>
   </g>
   <g id="text_7">
    <!-- 0.154 -->
    <defs>
     <path d="M 45.703125 14.40625 
L 45.703125 0 
L 36.5 0 
L 36.5 14.40625 
L 4 14.40625 
L 4 21.40625 
L 35.703125 68.40625 
L 45.703125 68.40625 
L 45.703125 23 
L 54.5 23 
L 54.5 14.40625 
z
M 14.40625 23 
L 36.5 23 
L 36.5 54.90625 
L 36.09375 54.90625 
z
" id="ProductSans-Regular-52"/>
    </defs>
    <g style="fill:#ffffff;" transform="translate(328.9185 123.318)scale(0.24 -0.24)">
     <use xlink:href="#ProductSans-Regular-48"/>
     <use x="63.799988" xlink:href="#ProductSans-Regular-46"/>
     <use x="86.999985" xlink:href="#ProductSans-Regular-49"/>
     <use x="125.399979" xlink:href="#ProductSans-Regular-53"/>
     <use x="180.899963" xlink:href="#ProductSans-Regular-52"/>
    </g>
   </g>
   <g id="text_8">
    <!-- 0.1868 -->
    <defs>
     <path d="M 50.40625 18.90625 
Q 50.40625 10.09375 43.703125 4.296875 
Q 36.90625 -1.59375 27.203125 -1.59375 
Q 17.5 -1.59375 10.703125 4.296875 
Q 4 10.09375 4 18.90625 
Q 4 24.296875 6.890625 28.75 
Q 9.796875 33.203125 15.203125 35.796875 
L 15.203125 36.203125 
Q 11.203125 38.796875 8.75 42.59375 
Q 6.296875 46.40625 6.296875 50.59375 
Q 6.296875 58.90625 12.203125 64.5 
Q 18 70 27.203125 70 
Q 36.40625 70 42.203125 64.5 
Q 48.09375 58.90625 48.09375 50.59375 
Q 48.09375 46.40625 45.640625 42.59375 
Q 43.203125 38.796875 39.203125 36.203125 
L 39.203125 35.796875 
Q 44.59375 33.203125 47.5 28.75 
Q 50.40625 24.296875 50.40625 18.90625 
z
M 15.703125 50.796875 
Q 15.703125 46 18.890625 43.046875 
Q 22.09375 40.09375 27.203125 40.09375 
Q 32.296875 40.09375 35.5 43.046875 
Q 38.703125 46 38.703125 50.796875 
Q 38.703125 55.59375 35.5 58.390625 
Q 32.296875 61.203125 27.203125 61.203125 
Q 22.09375 61.203125 18.890625 58.390625 
Q 15.703125 55.59375 15.703125 50.796875 
z
M 13.40625 19.40625 
Q 13.40625 16.703125 14.453125 14.5 
Q 15.5 12.296875 17.34375 10.640625 
Q 19.203125 9 21.703125 8.09375 
Q 24.203125 7.203125 27.203125 7.203125 
Q 30.203125 7.203125 32.703125 8.09375 
Q 35.203125 9 37.046875 10.640625 
Q 38.90625 12.296875 39.953125 14.5 
Q 41 16.703125 41 19.40625 
Q 41 24.59375 37 28 
Q 33 31.5 27.203125 31.5 
Q 21.40625 31.5 17.296875 28 
Q 13.40625 24.5 13.40625 19.40625 
z
" id="ProductSans-Regular-56"/>
     <path d="M 29.5 43.40625 
Q 37.796875 43.40625 44.296875 36.796875 
Q 50.90625 30.296875 50.90625 21.296875 
Q 50.90625 12.09375 43.90625 5.203125 
Q 36.796875 -1.59375 27.5 -1.59375 
Q 17.59375 -1.59375 10.796875 5.203125 
Q 4 12 4 21.296875 
Q 4 29.59375 10.703125 40.203125 
L 30.59375 70 
L 38 64.90625 
L 21.09375 41.5 
L 21.296875 41.296875 
Q 24.40625 43.40625 29.5 43.40625 
z
M 13.296875 21.203125 
Q 13.296875 15.296875 17.40625 11.203125 
Q 21.5 7.203125 27.5 7.203125 
Q 33.5 7.203125 37.5 11.203125 
Q 41.59375 15.296875 41.59375 21.203125 
Q 41.59375 27 37.40625 31.09375 
Q 33.296875 35.203125 27.5 35.203125 
Q 21.796875 35.203125 17.5 31.09375 
Q 13.296875 27 13.296875 21.203125 
z
" id="ProductSans-Regular-54"/>
    </defs>
    <g style="fill:#ffffff;" transform="translate(541.305 123.318)scale(0.24 -0.24)">
     <use xlink:href="#ProductSans-Regular-48"/>
     <use x="63.799988" xlink:href="#ProductSans-Regular-46"/>
     <use x="86.999985" xlink:href="#ProductSans-Regular-49"/>
     <use x="125.399979" xlink:href="#ProductSans-Regular-56"/>
     <use x="179.799973" xlink:href="#ProductSans-Regular-54"/>
     <use x="234.699966" xlink:href="#ProductSans-Regular-56"/>
    </g>
   </g>
   <g id="text_9">
    <!-- 0.1223 -->
    <defs>
     <path d="M 49.09375 19.40625 
Q 49.09375 10.40625 42.40625 4.40625 
Q 35.796875 -1.59375 26 -1.59375 
Q 18.296875 -1.59375 12.09375 3 
Q 5.796875 7.796875 3.59375 15.5 
L 12 19 
Q 13.59375 13.296875 17.25 10.25 
Q 20.90625 7.203125 26 7.203125 
Q 31.59375 7.203125 35.703125 10.703125 
Q 39.703125 14.296875 39.703125 19.40625 
Q 39.703125 24.5 35.5 28 
Q 31.40625 31.5 25.59375 31.5 
L 19.703125 31.5 
L 19.703125 40.09375 
L 24.90625 40.09375 
Q 30.40625 40.09375 33.90625 43.140625 
Q 37.40625 46.203125 37.40625 51.09375 
Q 37.40625 55.59375 34.09375 58.390625 
Q 30.796875 61.203125 25.40625 61.203125 
Q 16.703125 61.203125 13.5 52.296875 
L 5 55.90625 
Q 7.296875 62.203125 12.6875 66.09375 
Q 18.09375 70 25.40625 70 
Q 34.5 70 40.703125 64.59375 
Q 46.796875 59.40625 46.796875 51.09375 
Q 46.796875 41.203125 37.59375 36.40625 
L 37.59375 36 
Q 43 33.703125 46.046875 29.296875 
Q 49.09375 24.90625 49.09375 19.40625 
z
" id="ProductSans-Regular-51"/>
    </defs>
    <g style="fill:#ffffff;" transform="translate(760.404 123.318)scale(0.24 -0.24)">
     <use xlink:href="#ProductSans-Regular-48"/>
     <use x="63.799988" xlink:href="#ProductSans-Regular-46"/>
     <use x="86.999985" xlink:href="#ProductSans-Regular-49"/>
     <use x="125.399979" xlink:href="#ProductSans-Regular-50"/>
     <use x="177.399963" xlink:href="#ProductSans-Regular-50"/>
     <use x="229.399948" xlink:href="#ProductSans-Regular-51"/>
    </g>
   </g>
   <g id="text_10">
    <!-- 0.147 -->
    <defs>
     <path d="M 48.296875 59 
L 15.09375 -1.59375 
L 6.90625 2.59375 
L 38.59375 59.59375 
L 4 59.59375 
L 4.203125 68.40625 
L 48.296875 68.40625 
z
" id="ProductSans-Regular-55"/>
    </defs>
    <g style="fill:#ffffff;" transform="translate(984.214875 123.318)scale(0.24 -0.24)">
     <use xlink:href="#ProductSans-Regular-48"/>
     <use x="63.799988" xlink:href="#ProductSans-Regular-46"/>
     <use x="86.999985" xlink:href="#ProductSans-Regular-49"/>
     <use x="125.399979" xlink:href="#ProductSans-Regular-52"/>
     <use x="184.299973" xlink:href="#ProductSans-Regular-55"/>
    </g>
   </g>
   <g id="text_11">
    <!-- $R{^2}$ values for each ride service -->
    <defs>
     <path d="M 25.203125 64.796875 
L 20.21875 38.921875 
L 32.90625 38.921875 
Q 40.375 38.921875 44.984375 43.046875 
Q 49.609375 47.171875 49.609375 53.8125 
Q 49.609375 59.125 46.5 61.953125 
Q 43.40625 64.796875 37.59375 64.796875 
z
M 43.3125 35.015625 
Q 46.4375 34.28125 48.515625 31.390625 
Q 50.59375 28.515625 53.328125 19.921875 
L 59.515625 0 
L 49.125 0 
L 43.40625 18.703125 
Q 41.21875 25.921875 38.328125 28.359375 
Q 35.453125 30.8125 29.5 30.8125 
L 18.609375 30.8125 
L 12.59375 0 
L 2.6875 0 
L 16.890625 72.90625 
L 39.109375 72.90625 
Q 49.21875 72.90625 54.609375 68.328125 
Q 60.015625 63.765625 60.015625 55.171875 
Q 60.015625 47.5625 55.421875 41.984375 
Q 50.828125 36.421875 43.3125 35.015625 
z
" id="DejaVuSans-Oblique-82"/>
     <path d="M 19.1875 8.296875 
L 53.609375 8.296875 
L 53.609375 0 
L 7.328125 0 
L 7.328125 8.296875 
Q 12.9375 14.109375 22.625 23.890625 
Q 32.328125 33.6875 34.8125 36.53125 
Q 39.546875 41.84375 41.421875 45.53125 
Q 43.3125 49.21875 43.3125 52.78125 
Q 43.3125 58.59375 39.234375 62.25 
Q 35.15625 65.921875 28.609375 65.921875 
Q 23.96875 65.921875 18.8125 64.3125 
Q 13.671875 62.703125 7.8125 59.421875 
L 7.8125 69.390625 
Q 13.765625 71.78125 18.9375 73 
Q 24.125 74.21875 28.421875 74.21875 
Q 39.75 74.21875 46.484375 68.546875 
Q 53.21875 62.890625 53.21875 53.421875 
Q 53.21875 48.921875 51.53125 44.890625 
Q 49.859375 40.875 45.40625 35.40625 
Q 44.1875 33.984375 37.640625 27.21875 
Q 31.109375 20.453125 19.1875 8.296875 
z
" id="DejaVuSans-50"/>
     <path d="M 0 0 
z
" id="ProductSans-Bold-32"/>
     <path d="M 0.40625 49 
L 15.296875 49 
L 27.5 17.796875 
L 28.203125 17.796875 
L 40.5 49 
L 55.296875 49 
L 34.203125 0 
L 21.296875 0 
z
" id="ProductSans-Bold-118"/>
     <path d="M 35.796875 5.203125 
L 35 5.203125 
Q 32.703125 2.40625 29.453125 0.40625 
Q 26.203125 -1.59375 21.09375 -1.59375 
Q 17.296875 -1.59375 13.9375 -0.34375 
Q 10.59375 0.90625 8.09375 3.09375 
Q 5.59375 5.296875 4.1875 8.390625 
Q 2.796875 11.5 2.796875 15.203125 
Q 2.796875 19 4.296875 22.046875 
Q 5.796875 25.09375 8.5 27.296875 
Q 11.203125 29.5 14.84375 30.640625 
Q 18.5 31.796875 22.796875 31.796875 
Q 27.59375 31.796875 30.6875 31.046875 
Q 33.796875 30.296875 35.796875 29.5 
L 35.796875 31 
Q 35.796875 34.90625 32.6875 37.453125 
Q 29.59375 40 25 40 
Q 18.203125 40 13.5 34.296875 
L 4 40.796875 
Q 11.796875 50.59375 25.296875 50.59375 
Q 36.703125 50.59375 42.703125 45.25 
Q 48.703125 39.90625 48.703125 29.40625 
L 48.703125 0 
L 35.796875 0 
z
M 35.796875 19.90625 
Q 33.5 21 31.046875 21.640625 
Q 28.59375 22.296875 25.703125 22.296875 
Q 21 22.296875 18.453125 20.25 
Q 15.90625 18.203125 15.90625 15.203125 
Q 15.90625 12.203125 18.34375 10.390625 
Q 20.796875 8.59375 24 8.59375 
Q 26.59375 8.59375 28.796875 9.546875 
Q 31 10.5 32.546875 12.046875 
Q 34.09375 13.59375 34.9375 15.640625 
Q 35.796875 17.703125 35.796875 19.90625 
z
" id="ProductSans-Bold-97"/>
     <path d="M 5.59375 0 
L 5.59375 71.59375 
L 18.703125 71.59375 
L 18.703125 0 
z
" id="ProductSans-Bold-108"/>
     <path d="M 39.5 6.40625 
L 38.703125 6.40625 
Q 36.40625 2.703125 32.5 0.546875 
Q 28.59375 -1.59375 23.59375 -1.59375 
Q 14.296875 -1.59375 9.75 4.09375 
Q 5.203125 9.796875 5.203125 19.296875 
L 5.203125 49 
L 18.296875 49 
L 18.296875 20.90625 
Q 18.296875 15.59375 20.640625 13.046875 
Q 23 10.5 27.5 10.5 
Q 30.203125 10.5 32.25 11.640625 
Q 34.296875 12.796875 35.75 14.75 
Q 37.203125 16.703125 37.953125 19.34375 
Q 38.703125 22 38.703125 25 
L 38.703125 49 
L 51.796875 49 
L 51.796875 0 
L 39.5 0 
z
" id="ProductSans-Bold-117"/>
     <path d="M 52 11.796875 
Q 48.59375 5.796875 42.84375 2.09375 
Q 37.09375 -1.59375 28.796875 -1.59375 
Q 23.203125 -1.59375 18.453125 0.34375 
Q 13.703125 2.296875 10.203125 5.796875 
Q 6.703125 9.296875 4.75 14.046875 
Q 2.796875 18.796875 2.796875 24.5 
Q 2.796875 29.796875 4.6875 34.546875 
Q 6.59375 39.296875 10 42.84375 
Q 13.40625 46.40625 18.046875 48.5 
Q 22.703125 50.59375 28.296875 50.59375 
Q 34.203125 50.59375 38.796875 48.640625 
Q 43.40625 46.703125 46.5 43.25 
Q 49.59375 39.796875 51.1875 35.09375 
Q 52.796875 30.40625 52.796875 24.90625 
Q 52.796875 24.203125 52.796875 23.703125 
Q 52.703125 23.09375 52.703125 22.59375 
Q 52.59375 22.09375 52.59375 21.5 
L 15.703125 21.5 
Q 16.09375 18.5 17.34375 16.34375 
Q 18.59375 14.203125 20.4375 12.75 
Q 22.296875 11.296875 24.5 10.640625 
Q 26.703125 10 29 10 
Q 33.5 10 36.453125 12.046875 
Q 39.40625 14.09375 41.09375 17.203125 
z
M 40.09375 30.796875 
Q 40 32.09375 39.25 33.6875 
Q 38.5 35.296875 37.046875 36.6875 
Q 35.59375 38.09375 33.4375 39 
Q 31.296875 39.90625 28.296875 39.90625 
Q 24.09375 39.90625 20.890625 37.5 
Q 17.703125 35.09375 16.40625 30.796875 
z
" id="ProductSans-Bold-101"/>
     <path d="M 25 -1.59375 
Q 20.203125 -1.59375 16.453125 -0.390625 
Q 12.703125 0.796875 9.953125 2.75 
Q 7.203125 4.703125 5.296875 7.25 
Q 3.40625 9.796875 2.40625 12.40625 
L 14.09375 17.40625 
Q 15.796875 13.59375 18.640625 11.75 
Q 21.5 9.90625 25 9.90625 
Q 28.59375 9.90625 30.6875 11.203125 
Q 32.796875 12.5 32.796875 14.296875 
Q 32.796875 16.296875 31.046875 17.546875 
Q 29.296875 18.796875 25 19.796875 
L 18.09375 21.296875 
Q 15.796875 21.796875 13.34375 22.890625 
Q 10.90625 24 8.90625 25.703125 
Q 6.90625 27.40625 5.59375 29.796875 
Q 4.296875 32.203125 4.296875 35.40625 
Q 4.296875 39 5.84375 41.796875 
Q 7.40625 44.59375 10.09375 46.546875 
Q 12.796875 48.5 16.4375 49.546875 
Q 20.09375 50.59375 24.296875 50.59375 
Q 31.296875 50.59375 36.796875 47.84375 
Q 42.296875 45.09375 44.90625 39.09375 
L 33.59375 34.5 
Q 32.203125 37.40625 29.5 38.703125 
Q 26.796875 40 24.09375 40 
Q 21.296875 40 19.1875 38.84375 
Q 17.09375 37.703125 17.09375 35.90625 
Q 17.09375 34.203125 18.84375 33.203125 
Q 20.59375 32.203125 23.59375 31.40625 
L 31.09375 29.59375 
Q 38.59375 27.796875 42.25 23.84375 
Q 45.90625 19.90625 45.90625 14.5 
Q 45.90625 11.296875 44.40625 8.390625 
Q 42.90625 5.5 40.15625 3.25 
Q 37.40625 1 33.546875 -0.296875 
Q 29.703125 -1.59375 25 -1.59375 
z
" id="ProductSans-Bold-115"/>
     <path d="M 29.796875 72.40625 
Q 32.59375 72.40625 35 71.90625 
Q 37.40625 71.40625 39.296875 70.59375 
L 35.59375 58.90625 
Q 34.59375 59.40625 33.4375 59.703125 
Q 32.296875 60 30.59375 60 
Q 27.703125 60 26 58.140625 
Q 24.296875 56.296875 24.296875 53 
L 24.296875 49 
L 36.5 49 
L 36.5 37.796875 
L 24.296875 37.796875 
L 24.296875 0 
L 11.203125 0 
L 11.203125 37.796875 
L 2.40625 37.796875 
L 2.40625 49 
L 11.203125 49 
L 11.203125 53.796875 
Q 11.203125 58.296875 12.546875 61.75 
Q 13.90625 65.203125 16.40625 67.546875 
Q 18.90625 69.90625 22.296875 71.15625 
Q 25.703125 72.40625 29.796875 72.40625 
z
" id="ProductSans-Bold-102"/>
     <path d="M 28.796875 50.59375 
Q 34.5 50.59375 39.25 48.640625 
Q 44 46.703125 47.453125 43.25 
Q 50.90625 39.796875 52.84375 35 
Q 54.796875 30.203125 54.796875 24.5 
Q 54.796875 18.796875 52.84375 14 
Q 50.90625 9.203125 47.453125 5.75 
Q 44 2.296875 39.25 0.34375 
Q 34.5 -1.59375 28.796875 -1.59375 
Q 23.09375 -1.59375 18.34375 0.34375 
Q 13.59375 2.296875 10.140625 5.75 
Q 6.703125 9.203125 4.75 14 
Q 2.796875 18.796875 2.796875 24.5 
Q 2.796875 30.203125 4.75 35 
Q 6.703125 39.796875 10.140625 43.25 
Q 13.59375 46.703125 18.34375 48.640625 
Q 23.09375 50.59375 28.796875 50.59375 
z
M 28.796875 10.5 
Q 31.296875 10.5 33.640625 11.453125 
Q 36 12.40625 37.796875 14.203125 
Q 39.59375 16 40.640625 18.59375 
Q 41.703125 21.203125 41.703125 24.5 
Q 41.703125 27.796875 40.640625 30.390625 
Q 39.59375 33 37.796875 34.796875 
Q 36 36.59375 33.640625 37.546875 
Q 31.296875 38.5 28.796875 38.5 
Q 26.203125 38.5 23.890625 37.546875 
Q 21.59375 36.59375 19.796875 34.796875 
Q 18 33 16.953125 30.390625 
Q 15.90625 27.796875 15.90625 24.5 
Q 15.90625 21.203125 16.953125 18.59375 
Q 18 16 19.796875 14.203125 
Q 21.59375 12.40625 23.890625 11.453125 
Q 26.203125 10.5 28.796875 10.5 
z
" id="ProductSans-Bold-111"/>
     <path d="M 5.59375 49 
L 17.90625 49 
L 17.90625 42.203125 
L 18.703125 42.203125 
Q 19.59375 44 21.09375 45.5 
Q 22.59375 47 24.4375 48.09375 
Q 26.296875 49.203125 28.4375 49.796875 
Q 30.59375 50.40625 32.703125 50.40625 
Q 35.296875 50.40625 37.140625 49.90625 
Q 39 49.40625 40.296875 48.59375 
L 36.796875 36.703125 
Q 35.59375 37.296875 34.140625 37.640625 
Q 32.703125 38 30.59375 38 
Q 27.90625 38 25.703125 36.953125 
Q 23.5 35.90625 21.953125 34 
Q 20.40625 32.09375 19.546875 29.546875 
Q 18.703125 27 18.703125 24 
L 18.703125 0 
L 5.59375 0 
z
" id="ProductSans-Bold-114"/>
     <path d="M 52.09375 12.5 
Q 48.90625 6.296875 43.15625 2.34375 
Q 37.40625 -1.59375 28.796875 -1.59375 
Q 23.09375 -1.59375 18.34375 0.34375 
Q 13.59375 2.296875 10.140625 5.796875 
Q 6.703125 9.296875 4.75 14.046875 
Q 2.796875 18.796875 2.796875 24.5 
Q 2.796875 30.203125 4.75 35 
Q 6.703125 39.796875 10.140625 43.25 
Q 13.59375 46.703125 18.34375 48.640625 
Q 23.09375 50.59375 28.796875 50.59375 
Q 37.296875 50.59375 43.09375 46.6875 
Q 48.90625 42.796875 51.59375 36.59375 
L 39.59375 31.59375 
Q 37.90625 35 35.25 36.75 
Q 32.59375 38.5 28.59375 38.5 
Q 26 38.5 23.703125 37.5 
Q 21.40625 36.5 19.65625 34.703125 
Q 17.90625 32.90625 16.90625 30.296875 
Q 15.90625 27.703125 15.90625 24.5 
Q 15.90625 21.296875 16.90625 18.6875 
Q 17.90625 16.09375 19.65625 14.296875 
Q 21.40625 12.5 23.703125 11.5 
Q 26 10.5 28.59375 10.5 
Q 32.703125 10.5 35.546875 12.34375 
Q 38.40625 14.203125 40.09375 17.703125 
z
" id="ProductSans-Bold-99"/>
     <path d="M 5.59375 71.59375 
L 18.703125 71.59375 
L 18.703125 51.5 
L 17.90625 42.59375 
L 18.703125 42.59375 
Q 20.796875 46.09375 24.75 48.34375 
Q 28.703125 50.59375 33.59375 50.59375 
Q 43.09375 50.59375 47.640625 45 
Q 52.203125 39.40625 52.203125 29.703125 
L 52.203125 0 
L 39.09375 0 
L 39.09375 28.09375 
Q 39.09375 33.203125 36.6875 35.84375 
Q 34.296875 38.5 30 38.5 
Q 27.296875 38.5 25.1875 37.34375 
Q 23.09375 36.203125 21.640625 34.203125 
Q 20.203125 32.203125 19.453125 29.546875 
Q 18.703125 26.90625 18.703125 23.90625 
L 18.703125 0 
L 5.59375 0 
z
" id="ProductSans-Bold-104"/>
     <path d="M 12.90625 56.09375 
Q 11.203125 56.09375 9.640625 56.75 
Q 8.09375 57.40625 6.9375 58.546875 
Q 5.796875 59.703125 5.140625 61.203125 
Q 4.5 62.703125 4.5 64.5 
Q 4.5 66.296875 5.140625 67.796875 
Q 5.796875 69.296875 6.9375 70.4375 
Q 8.09375 71.59375 9.640625 72.25 
Q 11.203125 72.90625 12.90625 72.90625 
Q 16.40625 72.90625 18.90625 70.453125 
Q 21.40625 68 21.40625 64.5 
Q 21.40625 61 18.90625 58.546875 
Q 16.40625 56.09375 12.90625 56.09375 
z
M 6.40625 0 
L 6.40625 49 
L 19.5 49 
L 19.5 0 
z
" id="ProductSans-Bold-105"/>
     <path d="M 42.09375 5.90625 
L 41.296875 5.90625 
Q 39.5 2.796875 35.703125 0.59375 
Q 31.90625 -1.59375 26.296875 -1.59375 
Q 21.59375 -1.59375 17.34375 0.34375 
Q 13.09375 2.296875 9.84375 5.75 
Q 6.59375 9.203125 4.6875 14 
Q 2.796875 18.796875 2.796875 24.5 
Q 2.796875 30.203125 4.6875 35 
Q 6.59375 39.796875 9.84375 43.25 
Q 13.09375 46.703125 17.34375 48.640625 
Q 21.59375 50.59375 26.296875 50.59375 
Q 31.90625 50.59375 35.703125 48.390625 
Q 39.5 46.203125 41.296875 43.09375 
L 42.09375 43.09375 
L 41.296875 50.09375 
L 41.296875 71.59375 
L 54.40625 71.59375 
L 54.40625 0 
L 42.09375 0 
z
M 29 10.5 
Q 31.59375 10.5 33.9375 11.453125 
Q 36.296875 12.40625 38.09375 14.203125 
Q 39.90625 16 41 18.59375 
Q 42.09375 21.203125 42.09375 24.5 
Q 42.09375 27.796875 41 30.390625 
Q 39.90625 33 38.09375 34.796875 
Q 36.296875 36.59375 33.9375 37.546875 
Q 31.59375 38.5 29 38.5 
Q 26.40625 38.5 24.046875 37.5 
Q 21.703125 36.5 19.890625 34.703125 
Q 18.09375 32.90625 17 30.296875 
Q 15.90625 27.703125 15.90625 24.5 
Q 15.90625 21.296875 17 18.6875 
Q 18.09375 16.09375 19.890625 14.296875 
Q 21.703125 12.5 24.046875 11.5 
Q 26.40625 10.5 29 10.5 
z
" id="ProductSans-Bold-100"/>
    </defs>
    <g style="fill:#262626;" transform="translate(295.8 57.816)scale(0.4 -0.4)">
     <use transform="translate(0 0.765625)" xlink:href="#DejaVuSans-Oblique-82"/>
     <use transform="translate(70.439453 39.046875)scale(0.7)" xlink:href="#DejaVuSans-50"/>
     <use transform="translate(117.709961 0.765625)" xlink:href="#ProductSans-Bold-32"/>
     <use transform="translate(139.709946 0.765625)" xlink:href="#ProductSans-Bold-118"/>
     <use transform="translate(195.409943 0.765625)" xlink:href="#ProductSans-Bold-97"/>
     <use transform="translate(248.909927 0.765625)" xlink:href="#ProductSans-Bold-108"/>
     <use transform="translate(273.209915 0.765625)" xlink:href="#ProductSans-Bold-117"/>
     <use transform="translate(330.609909 0.765625)" xlink:href="#ProductSans-Bold-101"/>
     <use transform="translate(386.2099 0.765625)" xlink:href="#ProductSans-Bold-115"/>
     <use transform="translate(434.509888 0.765625)" xlink:href="#ProductSans-Bold-32"/>
     <use transform="translate(456.509872 0.765625)" xlink:href="#ProductSans-Bold-102"/>
     <use transform="translate(496.209869 0.765625)" xlink:href="#ProductSans-Bold-111"/>
     <use transform="translate(553.80986 0.765625)" xlink:href="#ProductSans-Bold-114"/>
     <use transform="translate(594.509857 0.765625)" xlink:href="#ProductSans-Bold-32"/>
     <use transform="translate(616.509842 0.765625)" xlink:href="#ProductSans-Bold-101"/>
     <use transform="translate(672.109833 0.765625)" xlink:href="#ProductSans-Bold-97"/>
     <use transform="translate(725.609818 0.765625)" xlink:href="#ProductSans-Bold-99"/>
     <use transform="translate(780.109802 0.765625)" xlink:href="#ProductSans-Bold-104"/>
     <use transform="translate(837.509796 0.765625)" xlink:href="#ProductSans-Bold-32"/>
     <use transform="translate(859.509781 0.765625)" xlink:href="#ProductSans-Bold-114"/>
     <use transform="translate(900.209778 0.765625)" xlink:href="#ProductSans-Bold-105"/>
     <use transform="translate(926.109772 0.765625)" xlink:href="#ProductSans-Bold-100"/>
     <use transform="translate(986.109756 0.765625)" xlink:href="#ProductSans-Bold-101"/>
     <use transform="translate(1041.709747 0.765625)" xlink:href="#ProductSans-Bold-32"/>
     <use transform="translate(1063.709732 0.765625)" xlink:href="#ProductSans-Bold-115"/>
     <use transform="translate(1112.00972 0.765625)" xlink:href="#ProductSans-Bold-101"/>
     <use transform="translate(1167.609711 0.765625)" xlink:href="#ProductSans-Bold-114"/>
     <use transform="translate(1208.309708 0.765625)" xlink:href="#ProductSans-Bold-118"/>
     <use transform="translate(1264.009705 0.765625)" xlink:href="#ProductSans-Bold-105"/>
     <use transform="translate(1289.909698 0.765625)" xlink:href="#ProductSans-Bold-99"/>
     <use transform="translate(1344.409683 0.765625)" xlink:href="#ProductSans-Bold-101"/>
    </g>
   </g>
  </g>
 </g>
 <defs>
  <clipPath id="pc8c0c571de">
   <rect height="79.004" width="1091.52" x="30.24" y="77.816"/>
  </clipPath>
 </defs>
</svg>
