<?xml version="1.0" encoding="utf-8" standalone="no"?>
<!DOCTYPE svg PUBLIC "-//W3C//DTD SVG 1.1//EN"
  "http://www.w3.org/Graphics/SVG/1.1/DTD/svg11.dtd">
<!-- Created with matplotlib (https://matplotlib.org/) -->
<svg height="720pt" version="1.1" viewBox="0 0 1440 720" width="1440pt" xmlns="http://www.w3.org/2000/svg" xmlns:xlink="http://www.w3.org/1999/xlink">
 <defs>
  <style type="text/css">
*{stroke-linecap:butt;stroke-linejoin:round;}
  </style>
 </defs>
 <g id="figure_1">
  <g id="patch_1">
   <path d="M 0 720 
L 1440 720 
L 1440 0 
L 0 0 
z
" style="fill:#ffffff;"/>
  </g>
  <g id="axes_1">
   <g id="patch_2">
    <path d="M 141.88 622.76 
L 1352.745 622.76 
L 1352.745 83.92 
L 141.88 83.92 
z
" style="fill:#ffffff;"/>
   </g>
   <g id="PolyCollection_1">
    <defs>
     <path d="M 141.88 -97.24 
L 141.88 -265.567629 
L 192.332708 -205.337291 
L 242.785417 -169.205076 
L 293.238125 -143.819724 
L 343.690833 -134.41996 
L 394.143542 -128.013751 
L 444.59625 -142.173269 
L 495.048958 -174.473733 
L 545.501667 -212.432018 
L 595.954375 -221.71204 
L 646.407083 -213.509698 
L 696.859792 -206.3551 
L 747.3125 -200.876893 
L 797.765208 -195.668107 
L 848.217917 -207.612393 
L 898.670625 -219.407002 
L 949.123333 -232.937873 
L 999.576042 -260.50852 
L 1050.02875 -292.150402 
L 1100.481458 -306.399727 
L 1150.934167 -356.601653 
L 1201.386875 -353.638033 
L 1251.839583 -357.379978 
L 1302.292292 -318.523627 
L 1352.745 -213.120536 
L 1352.745 -97.24 
L 1352.745 -97.24 
L 1302.292292 -97.24 
L 1251.839583 -97.24 
L 1201.386875 -97.24 
L 1150.934167 -97.24 
L 1100.481458 -97.24 
L 1050.02875 -97.24 
L 999.576042 -97.24 
L 949.123333 -97.24 
L 898.670625 -97.24 
L 848.217917 -97.24 
L 797.765208 -97.24 
L 747.3125 -97.24 
L 696.859792 -97.24 
L 646.407083 -97.24 
L 595.954375 -97.24 
L 545.501667 -97.24 
L 495.048958 -97.24 
L 444.59625 -97.24 
L 394.143542 -97.24 
L 343.690833 -97.24 
L 293.238125 -97.24 
L 242.785417 -97.24 
L 192.332708 -97.24 
L 141.88 -97.24 
z
" id="m28236909c9" style="stroke:#90ee90;stroke-opacity:0.8;"/>
    </defs>
    <g clip-path="url(#pdfd744bcd3)">
     <use style="fill:#90ee90;fill-opacity:0.8;stroke:#90ee90;stroke-opacity:0.8;" x="0" xlink:href="#m28236909c9" y="720"/>
    </g>
   </g>
   <g id="PolyCollection_2">
    <defs>
     <path d="M 141.88 -97.24 
L 141.88 -251.827209 
L 192.332708 -206.414971 
L 242.785417 -173.635538 
L 293.238125 -150.255869 
L 343.690833 -147.980767 
L 394.143542 -141.903849 
L 444.59625 -165.523002 
L 495.048958 -186.328213 
L 545.501667 -185.849244 
L 595.954375 -166.21152 
L 646.407083 -146.244504 
L 696.859792 -137.952356 
L 747.3125 -139.987973 
L 797.765208 -143.789789 
L 848.217917 -142.50256 
L 898.670625 -142.592367 
L 949.123333 -138.521131 
L 999.576042 -148.459736 
L 1050.02875 -164.744678 
L 1100.481458 -181.089491 
L 1150.934167 -219.766229 
L 1201.386875 -231.081869 
L 1251.839583 -249.611978 
L 1302.292292 -263.352398 
L 1352.745 -229.644962 
L 1352.745 -97.24 
L 1352.745 -97.24 
L 1302.292292 -97.24 
L 1251.839583 -97.24 
L 1201.386875 -97.24 
L 1150.934167 -97.24 
L 1100.481458 -97.24 
L 1050.02875 -97.24 
L 999.576042 -97.24 
L 949.123333 -97.24 
L 898.670625 -97.24 
L 848.217917 -97.24 
L 797.765208 -97.24 
L 747.3125 -97.24 
L 696.859792 -97.24 
L 646.407083 -97.24 
L 595.954375 -97.24 
L 545.501667 -97.24 
L 495.048958 -97.24 
L 444.59625 -97.24 
L 394.143542 -97.24 
L 343.690833 -97.24 
L 293.238125 -97.24 
L 242.785417 -97.24 
L 192.332708 -97.24 
L 141.88 -97.24 
z
" id="m4aff39d784" style="stroke:#ffd253;stroke-opacity:0.8;"/>
    </defs>
    <g clip-path="url(#pdfd744bcd3)">
     <use style="fill:#ffd253;fill-opacity:0.8;stroke:#ffd253;stroke-opacity:0.8;" x="0" xlink:href="#m4aff39d784" y="720"/>
    </g>
   </g>
   <g id="PolyCollection_3">
    <defs>
     <path d="M 141.88 -97.24 
L 141.88 -118.194889 
L 192.332708 -110.98042 
L 242.785417 -109.304029 
L 293.238125 -115.650367 
L 343.690833 -123.074384 
L 394.143542 -136.3059 
L 444.59625 -145.316502 
L 495.048958 -148.818962 
L 545.501667 -145.765536 
L 595.954375 -143.071336 
L 646.407083 -136.724998 
L 696.859792 -135.407833 
L 747.3125 -135.048607 
L 797.765208 -134.360089 
L 848.217917 -135.437769 
L 898.670625 -136.126287 
L 949.123333 -141.035718 
L 999.576042 -147.172507 
L 1050.02875 -153.039876 
L 1100.481458 -149.357802 
L 1150.934167 -166.151649 
L 1201.386875 -160.523764 
L 1251.839583 -150.944387 
L 1302.292292 -134.779187 
L 1352.745 -112.417327 
L 1352.745 -97.24 
L 1352.745 -97.24 
L 1302.292292 -97.24 
L 1251.839583 -97.24 
L 1201.386875 -97.24 
L 1150.934167 -97.24 
L 1100.481458 -97.24 
L 1050.02875 -97.24 
L 999.576042 -97.24 
L 949.123333 -97.24 
L 898.670625 -97.24 
L 848.217917 -97.24 
L 797.765208 -97.24 
L 747.3125 -97.24 
L 696.859792 -97.24 
L 646.407083 -97.24 
L 595.954375 -97.24 
L 545.501667 -97.24 
L 495.048958 -97.24 
L 444.59625 -97.24 
L 394.143542 -97.24 
L 343.690833 -97.24 
L 293.238125 -97.24 
L 242.785417 -97.24 
L 192.332708 -97.24 
L 141.88 -97.24 
z
" id="ma6caef9305" style="stroke:#000000;stroke-opacity:0.8;"/>
    </defs>
    <g clip-path="url(#pdfd744bcd3)">
     <use style="fill-opacity:0.8;stroke:#000000;stroke-opacity:0.8;" x="0" xlink:href="#ma6caef9305" y="720"/>
    </g>
   </g>
   <g id="PolyCollection_4">
    <defs>
     <path d="M 141.88 -97.24 
L 141.88 -102.987627 
L 192.332708 -99.874329 
L 242.785417 -98.437422 
L 293.238125 -98.149293 
L 343.690833 -97.91355 
L 394.143542 -100.562847 
L 444.59625 -109.543513 
L 495.048958 -127.834138 
L 545.501667 -160.463893 
L 595.954375 -145.675729 
L 646.407083 -122.475673 
L 696.859792 -121.75722 
L 747.3125 -122.385867 
L 797.765208 -125.648842 
L 848.217917 -124.810647 
L 898.670625 -126.33736 
L 949.123333 -130.348724 
L 999.576042 -146.304376 
L 1050.02875 -154.62646 
L 1100.481458 -145.526051 
L 1150.934167 -126.008069 
L 1201.386875 -118.763664 
L 1251.839583 -114.393073 
L 1302.292292 -108.28622 
L 1352.745 -102.418851 
L 1352.745 -97.24 
L 1352.745 -97.24 
L 1302.292292 -97.24 
L 1251.839583 -97.24 
L 1201.386875 -97.24 
L 1150.934167 -97.24 
L 1100.481458 -97.24 
L 1050.02875 -97.24 
L 999.576042 -97.24 
L 949.123333 -97.24 
L 898.670625 -97.24 
L 848.217917 -97.24 
L 797.765208 -97.24 
L 747.3125 -97.24 
L 696.859792 -97.24 
L 646.407083 -97.24 
L 595.954375 -97.24 
L 545.501667 -97.24 
L 495.048958 -97.24 
L 444.59625 -97.24 
L 394.143542 -97.24 
L 343.690833 -97.24 
L 293.238125 -97.24 
L 242.785417 -97.24 
L 192.332708 -97.24 
L 141.88 -97.24 
z
" id="mc332610269" style="stroke:#00c8fc;stroke-opacity:0.8;"/>
    </defs>
    <g clip-path="url(#pdfd744bcd3)">
     <use style="fill:#00c8fc;fill-opacity:0.8;stroke:#00c8fc;stroke-opacity:0.8;" x="0" xlink:href="#mc332610269" y="720"/>
    </g>
   </g>
   <g id="PolyCollection_5">
    <defs>
     <path d="M 141.88 -97.24 
L 141.88 -116.787918 
L 192.332708 -116.458627 
L 242.785417 -115.650367 
L 293.238125 -112.86636 
L 343.690833 -109.034609 
L 394.143542 -105.172922 
L 444.59625 -102.239238 
L 495.048958 -100.323362 
L 545.501667 -99.39536 
L 595.954375 -99.275618 
L 646.407083 -100.981944 
L 696.859792 -102.239238 
L 747.3125 -105.023244 
L 797.765208 -104.51434 
L 848.217917 -105.741698 
L 898.670625 -106.699636 
L 949.123333 -106.190731 
L 999.576042 -106.969056 
L 1050.02875 -109.304029 
L 1100.481458 -107.956929 
L 1150.934167 -116.428691 
L 1201.386875 -116.249078 
L 1251.839583 -116.787918 
L 1302.292292 -117.207016 
L 1352.745 -113.465071 
L 1352.745 -97.24 
L 1352.745 -97.24 
L 1302.292292 -97.24 
L 1251.839583 -97.24 
L 1201.386875 -97.24 
L 1150.934167 -97.24 
L 1100.481458 -97.24 
L 1050.02875 -97.24 
L 999.576042 -97.24 
L 949.123333 -97.24 
L 898.670625 -97.24 
L 848.217917 -97.24 
L 797.765208 -97.24 
L 747.3125 -97.24 
L 696.859792 -97.24 
L 646.407083 -97.24 
L 595.954375 -97.24 
L 545.501667 -97.24 
L 495.048958 -97.24 
L 444.59625 -97.24 
L 394.143542 -97.24 
L 343.690833 -97.24 
L 293.238125 -97.24 
L 242.785417 -97.24 
L 192.332708 -97.24 
L 141.88 -97.24 
z
" id="m55d7785021" style="stroke:#ff14bb;stroke-opacity:0.8;"/>
    </defs>
    <g clip-path="url(#pdfd744bcd3)">
     <use style="fill:#ff14bb;fill-opacity:0.8;stroke:#ff14bb;stroke-opacity:0.8;" x="0" xlink:href="#m55d7785021" y="720"/>
    </g>
   </g>
   <g id="matplotlib.axis_1">
    <g id="xtick_1">
     <g id="text_1">
      <!-- 0:00 -->
      <defs>
       <path d="M 4.40625 34.203125 
Q 4.40625 49.796875 12.09375 59.90625 
Q 19.796875 70 31.90625 70 
Q 44 70 51.703125 59.796875 
Q 59.40625 49.703125 59.40625 34.203125 
Q 59.40625 18.796875 51.703125 8.5 
Q 44 -1.59375 31.90625 -1.59375 
Q 19.796875 -1.59375 12.09375 8.5 
Q 4.40625 18.796875 4.40625 34.203125 
z
M 50 34.203125 
Q 50 46 45 53.59375 
Q 40.09375 61.203125 31.90625 61.203125 
Q 23.703125 61.203125 18.796875 53.59375 
Q 13.796875 46 13.796875 34.203125 
Q 13.796875 22.40625 18.796875 14.703125 
Q 23.703125 7.203125 31.90625 7.203125 
Q 40.09375 7.203125 45 14.796875 
Q 50 22.5 50 34.203125 
z
" id="ProductSans-Regular-48"/>
       <path d="M 18.40625 42.796875 
Q 18.40625 40 16.453125 38 
Q 14.5 36 11.59375 36 
Q 8.796875 36 6.796875 38 
Q 4.796875 40 4.796875 42.796875 
Q 4.796875 45.703125 6.796875 47.640625 
Q 8.796875 49.59375 11.59375 49.59375 
Q 14.5 49.59375 16.453125 47.640625 
Q 18.40625 45.703125 18.40625 42.796875 
z
M 18.40625 6.203125 
Q 18.40625 3.40625 16.453125 1.40625 
Q 14.5 -0.59375 11.59375 -0.59375 
Q 8.796875 -0.59375 6.796875 1.40625 
Q 4.796875 3.40625 4.796875 6.203125 
Q 4.796875 9.09375 6.796875 11.046875 
Q 8.796875 13 11.59375 13 
Q 14.5 13 16.453125 11.046875 
Q 18.40625 9.09375 18.40625 6.203125 
z
" id="ProductSans-Regular-58"/>
      </defs>
      <g transform="translate(109.690938 651.238125)scale(0.3 -0.3)">
       <use xlink:href="#ProductSans-Regular-48"/>
       <use x="63.799988" xlink:href="#ProductSans-Regular-58"/>
       <use x="86.999985" xlink:href="#ProductSans-Regular-48"/>
       <use x="150.799973" xlink:href="#ProductSans-Regular-48"/>
      </g>
     </g>
    </g>
    <g id="xtick_2"/>
    <g id="xtick_3"/>
    <g id="xtick_4"/>
    <g id="xtick_5">
     <g id="text_2">
      <!-- 4:00 -->
      <defs>
       <path d="M 45.703125 14.40625 
L 45.703125 0 
L 36.5 0 
L 36.5 14.40625 
L 4 14.40625 
L 4 21.40625 
L 35.703125 68.40625 
L 45.703125 68.40625 
L 45.703125 23 
L 54.5 23 
L 54.5 14.40625 
z
M 14.40625 23 
L 36.5 23 
L 36.5 54.90625 
L 36.09375 54.90625 
z
" id="ProductSans-Regular-52"/>
      </defs>
      <g transform="translate(312.235365 651.238125)scale(0.3 -0.3)">
       <use xlink:href="#ProductSans-Regular-52"/>
       <use x="58.899994" xlink:href="#ProductSans-Regular-58"/>
       <use x="82.099991" xlink:href="#ProductSans-Regular-48"/>
       <use x="145.899979" xlink:href="#ProductSans-Regular-48"/>
      </g>
     </g>
    </g>
    <g id="xtick_6"/>
    <g id="xtick_7"/>
    <g id="xtick_8"/>
    <g id="xtick_9">
     <g id="text_3">
      <!-- 8:00 -->
      <defs>
       <path d="M 50.40625 18.90625 
Q 50.40625 10.09375 43.703125 4.296875 
Q 36.90625 -1.59375 27.203125 -1.59375 
Q 17.5 -1.59375 10.703125 4.296875 
Q 4 10.09375 4 18.90625 
Q 4 24.296875 6.890625 28.75 
Q 9.796875 33.203125 15.203125 35.796875 
L 15.203125 36.203125 
Q 11.203125 38.796875 8.75 42.59375 
Q 6.296875 46.40625 6.296875 50.59375 
Q 6.296875 58.90625 12.203125 64.5 
Q 18 70 27.203125 70 
Q 36.40625 70 42.203125 64.5 
Q 48.09375 58.90625 48.09375 50.59375 
Q 48.09375 46.40625 45.640625 42.59375 
Q 43.203125 38.796875 39.203125 36.203125 
L 39.203125 35.796875 
Q 44.59375 33.203125 47.5 28.75 
Q 50.40625 24.296875 50.40625 18.90625 
z
M 15.703125 50.796875 
Q 15.703125 46 18.890625 43.046875 
Q 22.09375 40.09375 27.203125 40.09375 
Q 32.296875 40.09375 35.5 43.046875 
Q 38.703125 46 38.703125 50.796875 
Q 38.703125 55.59375 35.5 58.390625 
Q 32.296875 61.203125 27.203125 61.203125 
Q 22.09375 61.203125 18.890625 58.390625 
Q 15.703125 55.59375 15.703125 50.796875 
z
M 13.40625 19.40625 
Q 13.40625 16.703125 14.453125 14.5 
Q 15.5 12.296875 17.34375 10.640625 
Q 19.203125 9 21.703125 8.09375 
Q 24.203125 7.203125 27.203125 7.203125 
Q 30.203125 7.203125 32.703125 8.09375 
Q 35.203125 9 37.046875 10.640625 
Q 38.90625 12.296875 39.953125 14.5 
Q 41 16.703125 41 19.40625 
Q 41 24.59375 37 28 
Q 33 31.5 27.203125 31.5 
Q 21.40625 31.5 17.296875 28 
Q 13.40625 24.5 13.40625 19.40625 
z
" id="ProductSans-Regular-56"/>
      </defs>
      <g transform="translate(514.721198 651.238125)scale(0.3 -0.3)">
       <use xlink:href="#ProductSans-Regular-56"/>
       <use x="54.399994" xlink:href="#ProductSans-Regular-58"/>
       <use x="77.599991" xlink:href="#ProductSans-Regular-48"/>
       <use x="141.399979" xlink:href="#ProductSans-Regular-48"/>
      </g>
     </g>
    </g>
    <g id="xtick_10"/>
    <g id="xtick_11"/>
    <g id="xtick_12"/>
    <g id="xtick_13">
     <g id="text_4">
      <!-- 12:00 -->
      <defs>
       <path d="M 30 68.40625 
L 30 0 
L 20.796875 0 
L 20.796875 57 
L 7.5 51.203125 
L 4 59 
L 24.09375 68.40625 
z
" id="ProductSans-Regular-49"/>
       <path d="M 47.59375 8.796875 
L 47.59375 0 
L 4 0 
L 4 9.203125 
L 21.703125 27.09375 
Q 30.59375 36.203125 34 40.75 
Q 37.40625 45.296875 37.40625 50.296875 
Q 37.40625 54.796875 33.90625 58 
Q 30.40625 61.203125 24.90625 61.203125 
Q 20.203125 61.203125 16.796875 58.390625 
Q 13.40625 55.59375 12.40625 51.59375 
L 4 55 
Q 6 61.296875 11.703125 65.640625 
Q 17.40625 70 25.09375 70 
Q 34.40625 70 40.59375 64.296875 
Q 46.796875 58.59375 46.796875 50.296875 
Q 46.796875 40.40625 35.90625 28.90625 
L 15.90625 8.796875 
z
" id="ProductSans-Regular-50"/>
      </defs>
      <g transform="translate(711.132031 651.238125)scale(0.3 -0.3)">
       <use xlink:href="#ProductSans-Regular-49"/>
       <use x="38.399994" xlink:href="#ProductSans-Regular-50"/>
       <use x="90.399979" xlink:href="#ProductSans-Regular-58"/>
       <use x="113.599976" xlink:href="#ProductSans-Regular-48"/>
       <use x="177.399963" xlink:href="#ProductSans-Regular-48"/>
      </g>
     </g>
    </g>
    <g id="xtick_14"/>
    <g id="xtick_15"/>
    <g id="xtick_16"/>
    <g id="xtick_17">
     <g id="text_5">
      <!-- 16:00 -->
      <defs>
       <path d="M 29.5 43.40625 
Q 37.796875 43.40625 44.296875 36.796875 
Q 50.90625 30.296875 50.90625 21.296875 
Q 50.90625 12.09375 43.90625 5.203125 
Q 36.796875 -1.59375 27.5 -1.59375 
Q 17.59375 -1.59375 10.796875 5.203125 
Q 4 12 4 21.296875 
Q 4 29.59375 10.703125 40.203125 
L 30.59375 70 
L 38 64.90625 
L 21.09375 41.5 
L 21.296875 41.296875 
Q 24.40625 43.40625 29.5 43.40625 
z
M 13.296875 21.203125 
Q 13.296875 15.296875 17.40625 11.203125 
Q 21.5 7.203125 27.5 7.203125 
Q 33.5 7.203125 37.5 11.203125 
Q 41.59375 15.296875 41.59375 21.203125 
Q 41.59375 27 37.40625 31.09375 
Q 33.296875 35.203125 27.5 35.203125 
Q 21.796875 35.203125 17.5 31.09375 
Q 13.296875 27 13.296875 21.203125 
z
" id="ProductSans-Regular-54"/>
      </defs>
      <g transform="translate(912.506927 651.238125)scale(0.3 -0.3)">
       <use xlink:href="#ProductSans-Regular-49"/>
       <use x="38.399994" xlink:href="#ProductSans-Regular-54"/>
       <use x="93.299988" xlink:href="#ProductSans-Regular-58"/>
       <use x="116.499985" xlink:href="#ProductSans-Regular-48"/>
       <use x="180.299973" xlink:href="#ProductSans-Regular-48"/>
      </g>
     </g>
    </g>
    <g id="xtick_18"/>
    <g id="xtick_19"/>
    <g id="xtick_20"/>
    <g id="xtick_21">
     <g id="text_6">
      <!-- 20:00 -->
      <g transform="translate(1110.945104 651.238125)scale(0.3 -0.3)">
       <use xlink:href="#ProductSans-Regular-50"/>
       <use x="51.999985" xlink:href="#ProductSans-Regular-48"/>
       <use x="115.799973" xlink:href="#ProductSans-Regular-58"/>
       <use x="138.999969" xlink:href="#ProductSans-Regular-48"/>
       <use x="202.799957" xlink:href="#ProductSans-Regular-48"/>
      </g>
     </g>
    </g>
    <g id="xtick_22"/>
    <g id="xtick_23"/>
    <g id="xtick_24"/>
    <g id="xtick_25">
     <g id="text_7">
      <!-- 0:00 (Tues) -->
      <defs>
       <path id="ProductSans-Regular-32"/>
       <path d="M 31 73.203125 
Q 24.09375 65 19.796875 53.796875 
Q 15.59375 42.796875 15.59375 32.203125 
Q 15.59375 21.5 19.796875 10.59375 
Q 24.09375 -0.59375 31 -8.796875 
L 24.203125 -13.59375 
Q 15.90625 -3.90625 11.09375 8 
Q 6.40625 20.296875 6.40625 32.203125 
Q 6.40625 44.203125 11.09375 56.296875 
Q 15.796875 68.203125 24.203125 78 
z
" id="ProductSans-Regular-40"/>
       <path d="M 31.59375 62.796875 
L 31.59375 0 
L 22.40625 0 
L 22.40625 62.796875 
L 2.40625 62.796875 
L 2.40625 71.59375 
L 51.59375 71.59375 
L 51.59375 62.796875 
z
" id="ProductSans-Regular-84"/>
       <path d="M 48.59375 0 
L 39.796875 0 
L 39.796875 6.796875 
L 39.40625 6.796875 
Q 37.296875 3.203125 32.9375 0.796875 
Q 28.59375 -1.59375 23.90625 -1.59375 
Q 14.90625 -1.59375 10.046875 3.546875 
Q 5.203125 8.703125 5.203125 18.203125 
L 5.203125 49 
L 14.40625 49 
L 14.40625 18.796875 
Q 14.703125 6.796875 26.5 6.796875 
Q 32 6.796875 35.703125 11.25 
Q 39.40625 15.703125 39.40625 21.90625 
L 39.40625 49 
L 48.59375 49 
z
" id="ProductSans-Regular-117"/>
       <path d="M 27.59375 -1.59375 
Q 16.796875 -1.59375 9.796875 5.796875 
Q 2.796875 13.203125 2.796875 24.5 
Q 2.796875 35.703125 9.59375 43.140625 
Q 16.40625 50.59375 27 50.59375 
Q 37.90625 50.59375 44.34375 43.546875 
Q 50.796875 36.5 50.796875 23.796875 
L 50.703125 22.796875 
L 12.203125 22.796875 
Q 12.40625 15.59375 17 11.1875 
Q 21.59375 6.796875 28 6.796875 
Q 36.796875 6.796875 41.796875 15.59375 
L 50 11.59375 
Q 46.703125 5.40625 40.84375 1.90625 
Q 35 -1.59375 27.59375 -1.59375 
z
M 12.90625 30.40625 
L 41 30.40625 
Q 40.59375 35.5 36.84375 38.84375 
Q 33.09375 42.203125 26.796875 42.203125 
Q 21.59375 42.203125 17.84375 39 
Q 14.09375 35.796875 12.90625 30.40625 
z
" id="ProductSans-Regular-101"/>
       <path d="M 43.09375 13.59375 
Q 43.09375 7.203125 37.5 2.796875 
Q 31.90625 -1.59375 23.40625 -1.59375 
Q 16 -1.59375 10.390625 2.25 
Q 4.796875 6.09375 2.40625 12.40625 
L 10.59375 15.90625 
Q 12.40625 11.5 15.84375 9.046875 
Q 19.296875 6.59375 23.40625 6.59375 
Q 27.796875 6.59375 30.75 8.5 
Q 33.703125 10.40625 33.703125 13 
Q 33.703125 17.703125 26.5 19.90625 
L 18.09375 22 
Q 3.796875 25.59375 3.796875 35.796875 
Q 3.796875 42.5 9.25 46.546875 
Q 14.703125 50.59375 23.203125 50.59375 
Q 29.703125 50.59375 34.953125 47.5 
Q 40.203125 44.40625 42.296875 39.203125 
L 34.09375 35.796875 
Q 32.703125 38.90625 29.546875 40.65625 
Q 26.40625 42.40625 22.5 42.40625 
Q 18.90625 42.40625 16.046875 40.59375 
Q 13.203125 38.796875 13.203125 36.203125 
Q 13.203125 32 21.09375 30.203125 
L 28.5 28.296875 
Q 43.09375 24.703125 43.09375 13.59375 
z
" id="ProductSans-Regular-115"/>
       <path d="M 8.796875 78 
Q 13 73.203125 16.25 67.796875 
Q 19.5 62.40625 21.796875 56.296875 
Q 26.59375 44.296875 26.59375 32.203125 
Q 26.59375 20.09375 21.796875 8 
Q 17.203125 -3.796875 8.796875 -13.59375 
L 2 -8.796875 
Q 8.90625 -0.59375 13.203125 10.59375 
Q 17.40625 21.5 17.40625 32.203125 
Q 17.40625 42.796875 13.203125 53.796875 
Q 8.90625 65 2 73.203125 
z
" id="ProductSans-Regular-41"/>
      </defs>
      <g transform="translate(1276.261406 651.238125)scale(0.3 -0.3)">
       <use xlink:href="#ProductSans-Regular-48"/>
       <use x="63.799988" xlink:href="#ProductSans-Regular-58"/>
       <use x="86.999985" xlink:href="#ProductSans-Regular-48"/>
       <use x="150.799973" xlink:href="#ProductSans-Regular-48"/>
       <use x="214.59996" xlink:href="#ProductSans-Regular-32"/>
       <use x="236.599945" xlink:href="#ProductSans-Regular-40"/>
       <use x="269.59993" xlink:href="#ProductSans-Regular-84"/>
       <use x="323.599915" xlink:href="#ProductSans-Regular-117"/>
       <use x="377.799911" xlink:href="#ProductSans-Regular-101"/>
       <use x="431.399902" xlink:href="#ProductSans-Regular-115"/>
       <use x="476.899887" xlink:href="#ProductSans-Regular-41"/>
      </g>
     </g>
    </g>
    <g id="text_8">
     <!-- Hour in day -->
     <defs>
      <path d="M 7.203125 71.59375 
L 20.703125 71.59375 
L 20.703125 43 
L 50.796875 43 
L 50.796875 71.59375 
L 64.296875 71.59375 
L 64.296875 0 
L 50.796875 0 
L 50.796875 30.203125 
L 20.703125 30.203125 
L 20.703125 0 
L 7.203125 0 
z
" id="ProductSans-Bold-72"/>
      <path d="M 28.796875 50.59375 
Q 34.5 50.59375 39.25 48.640625 
Q 44 46.703125 47.453125 43.25 
Q 50.90625 39.796875 52.84375 35 
Q 54.796875 30.203125 54.796875 24.5 
Q 54.796875 18.796875 52.84375 14 
Q 50.90625 9.203125 47.453125 5.75 
Q 44 2.296875 39.25 0.34375 
Q 34.5 -1.59375 28.796875 -1.59375 
Q 23.09375 -1.59375 18.34375 0.34375 
Q 13.59375 2.296875 10.140625 5.75 
Q 6.703125 9.203125 4.75 14 
Q 2.796875 18.796875 2.796875 24.5 
Q 2.796875 30.203125 4.75 35 
Q 6.703125 39.796875 10.140625 43.25 
Q 13.59375 46.703125 18.34375 48.640625 
Q 23.09375 50.59375 28.796875 50.59375 
z
M 28.796875 10.5 
Q 31.296875 10.5 33.640625 11.453125 
Q 36 12.40625 37.796875 14.203125 
Q 39.59375 16 40.640625 18.59375 
Q 41.703125 21.203125 41.703125 24.5 
Q 41.703125 27.796875 40.640625 30.390625 
Q 39.59375 33 37.796875 34.796875 
Q 36 36.59375 33.640625 37.546875 
Q 31.296875 38.5 28.796875 38.5 
Q 26.203125 38.5 23.890625 37.546875 
Q 21.59375 36.59375 19.796875 34.796875 
Q 18 33 16.953125 30.390625 
Q 15.90625 27.796875 15.90625 24.5 
Q 15.90625 21.203125 16.953125 18.59375 
Q 18 16 19.796875 14.203125 
Q 21.59375 12.40625 23.890625 11.453125 
Q 26.203125 10.5 28.796875 10.5 
z
" id="ProductSans-Bold-111"/>
      <path d="M 39.5 6.40625 
L 38.703125 6.40625 
Q 36.40625 2.703125 32.5 0.546875 
Q 28.59375 -1.59375 23.59375 -1.59375 
Q 14.296875 -1.59375 9.75 4.09375 
Q 5.203125 9.796875 5.203125 19.296875 
L 5.203125 49 
L 18.296875 49 
L 18.296875 20.90625 
Q 18.296875 15.59375 20.640625 13.046875 
Q 23 10.5 27.5 10.5 
Q 30.203125 10.5 32.25 11.640625 
Q 34.296875 12.796875 35.75 14.75 
Q 37.203125 16.703125 37.953125 19.34375 
Q 38.703125 22 38.703125 25 
L 38.703125 49 
L 51.796875 49 
L 51.796875 0 
L 39.5 0 
z
" id="ProductSans-Bold-117"/>
      <path d="M 5.59375 49 
L 17.90625 49 
L 17.90625 42.203125 
L 18.703125 42.203125 
Q 19.59375 44 21.09375 45.5 
Q 22.59375 47 24.4375 48.09375 
Q 26.296875 49.203125 28.4375 49.796875 
Q 30.59375 50.40625 32.703125 50.40625 
Q 35.296875 50.40625 37.140625 49.90625 
Q 39 49.40625 40.296875 48.59375 
L 36.796875 36.703125 
Q 35.59375 37.296875 34.140625 37.640625 
Q 32.703125 38 30.59375 38 
Q 27.90625 38 25.703125 36.953125 
Q 23.5 35.90625 21.953125 34 
Q 20.40625 32.09375 19.546875 29.546875 
Q 18.703125 27 18.703125 24 
L 18.703125 0 
L 5.59375 0 
z
" id="ProductSans-Bold-114"/>
      <path d="M 0 0 
z
" id="ProductSans-Bold-32"/>
      <path d="M 12.90625 56.09375 
Q 11.203125 56.09375 9.640625 56.75 
Q 8.09375 57.40625 6.9375 58.546875 
Q 5.796875 59.703125 5.140625 61.203125 
Q 4.5 62.703125 4.5 64.5 
Q 4.5 66.296875 5.140625 67.796875 
Q 5.796875 69.296875 6.9375 70.4375 
Q 8.09375 71.59375 9.640625 72.25 
Q 11.203125 72.90625 12.90625 72.90625 
Q 16.40625 72.90625 18.90625 70.453125 
Q 21.40625 68 21.40625 64.5 
Q 21.40625 61 18.90625 58.546875 
Q 16.40625 56.09375 12.90625 56.09375 
z
M 6.40625 0 
L 6.40625 49 
L 19.5 49 
L 19.5 0 
z
" id="ProductSans-Bold-105"/>
      <path d="M 17.90625 42.59375 
L 18.703125 42.59375 
Q 21 46.296875 24.890625 48.4375 
Q 28.796875 50.59375 33.796875 50.59375 
Q 38.40625 50.59375 41.90625 49.09375 
Q 45.40625 47.59375 47.65625 44.84375 
Q 49.90625 42.09375 51.046875 38.25 
Q 52.203125 34.40625 52.203125 29.703125 
L 52.203125 0 
L 39.09375 0 
L 39.09375 28.09375 
Q 39.09375 33.40625 36.75 35.953125 
Q 34.40625 38.5 29.90625 38.5 
Q 27.203125 38.5 25.140625 37.34375 
Q 23.09375 36.203125 21.640625 34.25 
Q 20.203125 32.296875 19.453125 29.640625 
Q 18.703125 27 18.703125 24 
L 18.703125 0 
L 5.59375 0 
L 5.59375 49 
L 17.90625 49 
z
" id="ProductSans-Bold-110"/>
      <path d="M 42.09375 5.90625 
L 41.296875 5.90625 
Q 39.5 2.796875 35.703125 0.59375 
Q 31.90625 -1.59375 26.296875 -1.59375 
Q 21.59375 -1.59375 17.34375 0.34375 
Q 13.09375 2.296875 9.84375 5.75 
Q 6.59375 9.203125 4.6875 14 
Q 2.796875 18.796875 2.796875 24.5 
Q 2.796875 30.203125 4.6875 35 
Q 6.59375 39.796875 9.84375 43.25 
Q 13.09375 46.703125 17.34375 48.640625 
Q 21.59375 50.59375 26.296875 50.59375 
Q 31.90625 50.59375 35.703125 48.390625 
Q 39.5 46.203125 41.296875 43.09375 
L 42.09375 43.09375 
L 41.296875 50.09375 
L 41.296875 71.59375 
L 54.40625 71.59375 
L 54.40625 0 
L 42.09375 0 
z
M 29 10.5 
Q 31.59375 10.5 33.9375 11.453125 
Q 36.296875 12.40625 38.09375 14.203125 
Q 39.90625 16 41 18.59375 
Q 42.09375 21.203125 42.09375 24.5 
Q 42.09375 27.796875 41 30.390625 
Q 39.90625 33 38.09375 34.796875 
Q 36.296875 36.59375 33.9375 37.546875 
Q 31.59375 38.5 29 38.5 
Q 26.40625 38.5 24.046875 37.5 
Q 21.703125 36.5 19.890625 34.703125 
Q 18.09375 32.90625 17 30.296875 
Q 15.90625 27.703125 15.90625 24.5 
Q 15.90625 21.296875 17 18.6875 
Q 18.09375 16.09375 19.890625 14.296875 
Q 21.703125 12.5 24.046875 11.5 
Q 26.40625 10.5 29 10.5 
z
" id="ProductSans-Bold-100"/>
      <path d="M 35.796875 5.203125 
L 35 5.203125 
Q 32.703125 2.40625 29.453125 0.40625 
Q 26.203125 -1.59375 21.09375 -1.59375 
Q 17.296875 -1.59375 13.9375 -0.34375 
Q 10.59375 0.90625 8.09375 3.09375 
Q 5.59375 5.296875 4.1875 8.390625 
Q 2.796875 11.5 2.796875 15.203125 
Q 2.796875 19 4.296875 22.046875 
Q 5.796875 25.09375 8.5 27.296875 
Q 11.203125 29.5 14.84375 30.640625 
Q 18.5 31.796875 22.796875 31.796875 
Q 27.59375 31.796875 30.6875 31.046875 
Q 33.796875 30.296875 35.796875 29.5 
L 35.796875 31 
Q 35.796875 34.90625 32.6875 37.453125 
Q 29.59375 40 25 40 
Q 18.203125 40 13.5 34.296875 
L 4 40.796875 
Q 11.796875 50.59375 25.296875 50.59375 
Q 36.703125 50.59375 42.703125 45.25 
Q 48.703125 39.90625 48.703125 29.40625 
L 48.703125 0 
L 35.796875 0 
z
M 35.796875 19.90625 
Q 33.5 21 31.046875 21.640625 
Q 28.59375 22.296875 25.703125 22.296875 
Q 21 22.296875 18.453125 20.25 
Q 15.90625 18.203125 15.90625 15.203125 
Q 15.90625 12.203125 18.34375 10.390625 
Q 20.796875 8.59375 24 8.59375 
Q 26.59375 8.59375 28.796875 9.546875 
Q 31 10.5 32.546875 12.046875 
Q 34.09375 13.59375 34.9375 15.640625 
Q 35.796875 17.703125 35.796875 19.90625 
z
" id="ProductSans-Bold-97"/>
      <path d="M 21 2.40625 
L 0.40625 49 
L 15.296875 49 
L 27.703125 19.296875 
L 28.40625 19.296875 
L 40.296875 49 
L 54.90625 49 
L 24.203125 -21.59375 
L 10.09375 -21.59375 
z
" id="ProductSans-Bold-121"/>
     </defs>
     <g transform="translate(647.883125 700.420625)scale(0.38 -0.38)">
      <use xlink:href="#ProductSans-Bold-72"/>
      <use x="71.499985" xlink:href="#ProductSans-Bold-111"/>
      <use x="129.099976" xlink:href="#ProductSans-Bold-117"/>
      <use x="186.499969" xlink:href="#ProductSans-Bold-114"/>
      <use x="227.199966" xlink:href="#ProductSans-Bold-32"/>
      <use x="249.199951" xlink:href="#ProductSans-Bold-105"/>
      <use x="275.099945" xlink:href="#ProductSans-Bold-110"/>
      <use x="332.499939" xlink:href="#ProductSans-Bold-32"/>
      <use x="354.499924" xlink:href="#ProductSans-Bold-100"/>
      <use x="414.499908" xlink:href="#ProductSans-Bold-97"/>
      <use x="467.999893" xlink:href="#ProductSans-Bold-121"/>
     </g>
    </g>
   </g>
   <g id="matplotlib.axis_2">
    <g id="ytick_1"/>
    <g id="ytick_2">
     <g id="text_9">
      <!-- 250 -->
      <defs>
       <path d="M 50.703125 21.40625 
Q 50.703125 11.59375 43.890625 5 
Q 37.09375 -1.59375 27.09375 -1.59375 
Q 19.09375 -1.59375 12.59375 3.40625 
Q 6.09375 8.40625 4 16.90625 
L 12.203125 20.203125 
Q 13.703125 14.203125 17.640625 10.703125 
Q 21.59375 7.203125 26.90625 7.203125 
Q 33.296875 7.203125 37.34375 11.140625 
Q 41.40625 15.09375 41.40625 21.296875 
Q 41.40625 27.59375 37.34375 31.59375 
Q 33.296875 35.59375 27 35.59375 
Q 19.703125 35.59375 15.5 29.703125 
L 6.203125 33.703125 
L 10.59375 68.40625 
L 46.5 68.40625 
L 46.5 59.59375 
L 18.296875 59.59375 
L 15.796875 40 
L 16.203125 39.90625 
Q 21.296875 44 28.59375 44 
Q 37.796875 44 44.25 37.5 
Q 50.703125 31 50.703125 21.40625 
z
" id="ProductSans-Regular-53"/>
      </defs>
      <g transform="translate(83.490938 566.144063)scale(0.3 -0.3)">
       <use xlink:href="#ProductSans-Regular-50"/>
       <use x="51.999985" xlink:href="#ProductSans-Regular-53"/>
       <use x="107.499969" xlink:href="#ProductSans-Regular-48"/>
      </g>
     </g>
    </g>
    <g id="ytick_3">
     <g id="text_10">
      <!-- 500 -->
      <g transform="translate(79.951875 498.789062)scale(0.3 -0.3)">
       <use xlink:href="#ProductSans-Regular-53"/>
       <use x="55.499985" xlink:href="#ProductSans-Regular-48"/>
       <use x="119.299973" xlink:href="#ProductSans-Regular-48"/>
      </g>
     </g>
    </g>
    <g id="ytick_4">
     <g id="text_11">
      <!-- 750 -->
      <defs>
       <path d="M 48.296875 59 
L 15.09375 -1.59375 
L 6.90625 2.59375 
L 38.59375 59.59375 
L 4 59.59375 
L 4.203125 68.40625 
L 48.296875 68.40625 
z
" id="ProductSans-Regular-55"/>
      </defs>
      <g transform="translate(83.401875 431.434062)scale(0.3 -0.3)">
       <use xlink:href="#ProductSans-Regular-55"/>
       <use x="52.299988" xlink:href="#ProductSans-Regular-53"/>
       <use x="107.799973" xlink:href="#ProductSans-Regular-48"/>
      </g>
     </g>
    </g>
    <g id="ytick_5">
     <g id="text_12">
      <!-- 1000 -->
      <g transform="translate(65.940938 364.079062)scale(0.3 -0.3)">
       <use xlink:href="#ProductSans-Regular-49"/>
       <use x="38.399994" xlink:href="#ProductSans-Regular-48"/>
       <use x="102.199982" xlink:href="#ProductSans-Regular-48"/>
       <use x="165.999969" xlink:href="#ProductSans-Regular-48"/>
      </g>
     </g>
    </g>
    <g id="ytick_6">
     <g id="text_13">
      <!-- 1250 -->
      <g transform="translate(71.969063 296.724062)scale(0.3 -0.3)">
       <use xlink:href="#ProductSans-Regular-49"/>
       <use x="38.399994" xlink:href="#ProductSans-Regular-50"/>
       <use x="90.399979" xlink:href="#ProductSans-Regular-53"/>
       <use x="145.899963" xlink:href="#ProductSans-Regular-48"/>
      </g>
     </g>
    </g>
    <g id="ytick_7">
     <g id="text_14">
      <!-- 1500 -->
      <g transform="translate(68.43 229.369062)scale(0.3 -0.3)">
       <use xlink:href="#ProductSans-Regular-49"/>
       <use x="38.399994" xlink:href="#ProductSans-Regular-53"/>
       <use x="93.899979" xlink:href="#ProductSans-Regular-48"/>
       <use x="157.699966" xlink:href="#ProductSans-Regular-48"/>
      </g>
     </g>
    </g>
    <g id="ytick_8">
     <g id="text_15">
      <!-- 1750 -->
      <g transform="translate(71.88 162.014062)scale(0.3 -0.3)">
       <use xlink:href="#ProductSans-Regular-49"/>
       <use x="38.399994" xlink:href="#ProductSans-Regular-55"/>
       <use x="90.699982" xlink:href="#ProductSans-Regular-53"/>
       <use x="146.199966" xlink:href="#ProductSans-Regular-48"/>
      </g>
     </g>
    </g>
    <g id="ytick_9">
     <g id="text_16">
      <!-- 2000 -->
      <g transform="translate(61.862813 94.659062)scale(0.3 -0.3)">
       <use xlink:href="#ProductSans-Regular-50"/>
       <use x="51.999985" xlink:href="#ProductSans-Regular-48"/>
       <use x="115.799973" xlink:href="#ProductSans-Regular-48"/>
       <use x="179.59996" xlink:href="#ProductSans-Regular-48"/>
      </g>
     </g>
    </g>
    <g id="text_17">
     <!-- Number of rides -->
     <defs>
      <path d="M 7.203125 71.59375 
L 22.90625 71.59375 
L 51.703125 23.59375 
L 52.5 23.59375 
L 51.703125 37.40625 
L 51.703125 71.59375 
L 65.09375 71.59375 
L 65.09375 0 
L 50.90625 0 
L 20.5 50.703125 
L 19.703125 50.703125 
L 20.5 36.90625 
L 20.5 0 
L 7.203125 0 
z
" id="ProductSans-Bold-78"/>
      <path d="M 5.59375 49 
L 17.90625 49 
L 17.90625 42.59375 
L 18.703125 42.59375 
Q 21 46.203125 24.953125 48.390625 
Q 28.90625 50.59375 33.703125 50.59375 
Q 39.296875 50.59375 43.09375 48 
Q 46.90625 45.40625 48.5 41.59375 
Q 50.796875 45.296875 55 47.9375 
Q 59.203125 50.59375 65.203125 50.59375 
Q 69.703125 50.59375 73 49.140625 
Q 76.296875 47.703125 78.4375 45.09375 
Q 80.59375 42.5 81.6875 38.84375 
Q 82.796875 35.203125 82.796875 30.90625 
L 82.796875 0 
L 69.703125 0 
L 69.703125 28.5 
Q 69.703125 38.5 61.5 38.5 
Q 58.90625 38.5 56.90625 37.34375 
Q 54.90625 36.203125 53.546875 34.25 
Q 52.203125 32.296875 51.453125 29.59375 
Q 50.703125 26.90625 50.703125 23.796875 
L 50.703125 0 
L 37.59375 0 
L 37.59375 28.5 
Q 37.59375 38.5 29 38.5 
Q 26.5 38.5 24.59375 37.34375 
Q 22.703125 36.203125 21.390625 34.25 
Q 20.09375 32.296875 19.390625 29.59375 
Q 18.703125 26.90625 18.703125 23.796875 
L 18.703125 0 
L 5.59375 0 
z
" id="ProductSans-Bold-109"/>
      <path d="M 5.59375 71.59375 
L 18.703125 71.59375 
L 18.703125 50.09375 
L 17.90625 43.09375 
L 18.703125 43.09375 
Q 20.5 46.203125 24.296875 48.390625 
Q 28.09375 50.59375 33.703125 50.59375 
Q 38.40625 50.59375 42.65625 48.640625 
Q 46.90625 46.703125 50.15625 43.25 
Q 53.40625 39.796875 55.296875 35 
Q 57.203125 30.203125 57.203125 24.5 
Q 57.203125 18.796875 55.296875 14 
Q 53.40625 9.203125 50.15625 5.75 
Q 46.90625 2.296875 42.65625 0.34375 
Q 38.40625 -1.59375 33.703125 -1.59375 
Q 28.09375 -1.59375 24.296875 0.59375 
Q 20.5 2.796875 18.703125 5.90625 
L 17.90625 5.90625 
L 17.90625 0 
L 5.59375 0 
z
M 31 10.5 
Q 33.59375 10.5 35.9375 11.5 
Q 38.296875 12.5 40.09375 14.296875 
Q 41.90625 16.09375 43 18.6875 
Q 44.09375 21.296875 44.09375 24.5 
Q 44.09375 27.703125 43 30.296875 
Q 41.90625 32.90625 40.09375 34.703125 
Q 38.296875 36.5 35.9375 37.5 
Q 33.59375 38.5 31 38.5 
Q 28.40625 38.5 26.046875 37.546875 
Q 23.703125 36.59375 21.890625 34.796875 
Q 20.09375 33 19 30.390625 
Q 17.90625 27.796875 17.90625 24.5 
Q 17.90625 21.203125 19 18.59375 
Q 20.09375 16 21.890625 14.203125 
Q 23.703125 12.40625 26.046875 11.453125 
Q 28.40625 10.5 31 10.5 
z
" id="ProductSans-Bold-98"/>
      <path d="M 52 11.796875 
Q 48.59375 5.796875 42.84375 2.09375 
Q 37.09375 -1.59375 28.796875 -1.59375 
Q 23.203125 -1.59375 18.453125 0.34375 
Q 13.703125 2.296875 10.203125 5.796875 
Q 6.703125 9.296875 4.75 14.046875 
Q 2.796875 18.796875 2.796875 24.5 
Q 2.796875 29.796875 4.6875 34.546875 
Q 6.59375 39.296875 10 42.84375 
Q 13.40625 46.40625 18.046875 48.5 
Q 22.703125 50.59375 28.296875 50.59375 
Q 34.203125 50.59375 38.796875 48.640625 
Q 43.40625 46.703125 46.5 43.25 
Q 49.59375 39.796875 51.1875 35.09375 
Q 52.796875 30.40625 52.796875 24.90625 
Q 52.796875 24.203125 52.796875 23.703125 
Q 52.703125 23.09375 52.703125 22.59375 
Q 52.59375 22.09375 52.59375 21.5 
L 15.703125 21.5 
Q 16.09375 18.5 17.34375 16.34375 
Q 18.59375 14.203125 20.4375 12.75 
Q 22.296875 11.296875 24.5 10.640625 
Q 26.703125 10 29 10 
Q 33.5 10 36.453125 12.046875 
Q 39.40625 14.09375 41.09375 17.203125 
z
M 40.09375 30.796875 
Q 40 32.09375 39.25 33.6875 
Q 38.5 35.296875 37.046875 36.6875 
Q 35.59375 38.09375 33.4375 39 
Q 31.296875 39.90625 28.296875 39.90625 
Q 24.09375 39.90625 20.890625 37.5 
Q 17.703125 35.09375 16.40625 30.796875 
z
" id="ProductSans-Bold-101"/>
      <path d="M 29.796875 72.40625 
Q 32.59375 72.40625 35 71.90625 
Q 37.40625 71.40625 39.296875 70.59375 
L 35.59375 58.90625 
Q 34.59375 59.40625 33.4375 59.703125 
Q 32.296875 60 30.59375 60 
Q 27.703125 60 26 58.140625 
Q 24.296875 56.296875 24.296875 53 
L 24.296875 49 
L 36.5 49 
L 36.5 37.796875 
L 24.296875 37.796875 
L 24.296875 0 
L 11.203125 0 
L 11.203125 37.796875 
L 2.40625 37.796875 
L 2.40625 49 
L 11.203125 49 
L 11.203125 53.796875 
Q 11.203125 58.296875 12.546875 61.75 
Q 13.90625 65.203125 16.40625 67.546875 
Q 18.90625 69.90625 22.296875 71.15625 
Q 25.703125 72.40625 29.796875 72.40625 
z
" id="ProductSans-Bold-102"/>
      <path d="M 25 -1.59375 
Q 20.203125 -1.59375 16.453125 -0.390625 
Q 12.703125 0.796875 9.953125 2.75 
Q 7.203125 4.703125 5.296875 7.25 
Q 3.40625 9.796875 2.40625 12.40625 
L 14.09375 17.40625 
Q 15.796875 13.59375 18.640625 11.75 
Q 21.5 9.90625 25 9.90625 
Q 28.59375 9.90625 30.6875 11.203125 
Q 32.796875 12.5 32.796875 14.296875 
Q 32.796875 16.296875 31.046875 17.546875 
Q 29.296875 18.796875 25 19.796875 
L 18.09375 21.296875 
Q 15.796875 21.796875 13.34375 22.890625 
Q 10.90625 24 8.90625 25.703125 
Q 6.90625 27.40625 5.59375 29.796875 
Q 4.296875 32.203125 4.296875 35.40625 
Q 4.296875 39 5.84375 41.796875 
Q 7.40625 44.59375 10.09375 46.546875 
Q 12.796875 48.5 16.4375 49.546875 
Q 20.09375 50.59375 24.296875 50.59375 
Q 31.296875 50.59375 36.796875 47.84375 
Q 42.296875 45.09375 44.90625 39.09375 
L 33.59375 34.5 
Q 32.203125 37.40625 29.5 38.703125 
Q 26.796875 40 24.09375 40 
Q 21.296875 40 19.1875 38.84375 
Q 17.09375 37.703125 17.09375 35.90625 
Q 17.09375 34.203125 18.84375 33.203125 
Q 20.59375 32.203125 23.59375 31.40625 
L 31.09375 29.59375 
Q 38.59375 27.796875 42.25 23.84375 
Q 45.90625 19.90625 45.90625 14.5 
Q 45.90625 11.296875 44.40625 8.390625 
Q 42.90625 5.5 40.15625 3.25 
Q 37.40625 1 33.546875 -0.296875 
Q 29.703125 -1.59375 25 -1.59375 
z
" id="ProductSans-Bold-115"/>
     </defs>
     <g transform="translate(38.657188 495.041406)rotate(-90)scale(0.38 -0.38)">
      <use xlink:href="#ProductSans-Bold-78"/>
      <use x="72.299988" xlink:href="#ProductSans-Bold-117"/>
      <use x="129.699982" xlink:href="#ProductSans-Bold-109"/>
      <use x="217.699966" xlink:href="#ProductSans-Bold-98"/>
      <use x="277.699951" xlink:href="#ProductSans-Bold-101"/>
      <use x="333.299942" xlink:href="#ProductSans-Bold-114"/>
      <use x="373.999939" xlink:href="#ProductSans-Bold-32"/>
      <use x="395.999924" xlink:href="#ProductSans-Bold-111"/>
      <use x="453.599915" xlink:href="#ProductSans-Bold-102"/>
      <use x="493.299911" xlink:href="#ProductSans-Bold-32"/>
      <use x="515.299896" xlink:href="#ProductSans-Bold-114"/>
      <use x="555.999893" xlink:href="#ProductSans-Bold-105"/>
      <use x="581.899887" xlink:href="#ProductSans-Bold-100"/>
      <use x="641.899872" xlink:href="#ProductSans-Bold-101"/>
      <use x="697.499863" xlink:href="#ProductSans-Bold-115"/>
     </g>
    </g>
   </g>
   <g id="patch_3">
    <path d="M 141.88 622.76 
L 141.88 83.92 
" style="fill:none;opacity:0;"/>
   </g>
   <g id="patch_4">
    <path d="M 1352.745 622.76 
L 1352.745 83.92 
" style="fill:none;opacity:0;"/>
   </g>
   <g id="patch_5">
    <path d="M 141.88 622.76 
L 1352.745 622.76 
" style="fill:none;opacity:0;"/>
   </g>
   <g id="patch_6">
    <path d="M 141.88 83.92 
L 1352.745 83.92 
" style="fill:none;opacity:0;"/>
   </g>
   <g id="text_18">
    <!-- Average rides per hour on Mondays in Brooklyn -->
    <defs>
     <path d="M 28.09375 71.59375 
L 43.5 71.59375 
L 70.40625 0 
L 55.5 0 
L 49.59375 17.09375 
L 22 17.09375 
L 16.09375 0 
L 1.203125 0 
z
M 45.203125 29.5 
L 38.796875 47.40625 
L 36.203125 56.09375 
L 35.40625 56.09375 
L 32.796875 47.40625 
L 26.40625 29.5 
z
" id="ProductSans-Bold-65"/>
     <path d="M 0.40625 49 
L 15.296875 49 
L 27.5 17.796875 
L 28.203125 17.796875 
L 40.5 49 
L 55.296875 49 
L 34.203125 0 
L 21.296875 0 
z
" id="ProductSans-Bold-118"/>
     <path d="M 28.203125 -23.203125 
Q 23 -23.203125 18.953125 -21.84375 
Q 14.90625 -20.5 11.90625 -18.34375 
Q 8.90625 -16.203125 6.90625 -13.59375 
Q 4.90625 -11 4 -8.40625 
L 16.5 -3.40625 
Q 17.90625 -7.296875 21.09375 -9.4375 
Q 24.296875 -11.59375 28.203125 -11.59375 
Q 34.40625 -11.59375 38 -7.75 
Q 41.59375 -3.90625 41.59375 3 
L 41.59375 6.40625 
L 40.796875 6.40625 
Q 38.5 3.203125 34.75 1.34375 
Q 31 -0.5 25.90625 -0.5 
Q 21.5 -0.5 17.34375 1.296875 
Q 13.203125 3.09375 10 6.4375 
Q 6.796875 9.796875 4.796875 14.5 
Q 2.796875 19.203125 2.796875 25 
Q 2.796875 30.796875 4.796875 35.546875 
Q 6.796875 40.296875 10 43.640625 
Q 13.203125 47 17.34375 48.796875 
Q 21.5 50.59375 25.90625 50.59375 
Q 31 50.59375 34.75 48.75 
Q 38.5 46.90625 40.796875 43.703125 
L 41.59375 43.703125 
L 41.59375 49 
L 54.09375 49 
L 54.09375 3.5 
Q 54.09375 -2.703125 52.1875 -7.640625 
Q 50.296875 -12.59375 46.890625 -16.046875 
Q 43.5 -19.5 38.75 -21.34375 
Q 34 -23.203125 28.203125 -23.203125 
z
M 28.703125 11.296875 
Q 31.09375 11.296875 33.4375 12.1875 
Q 35.796875 13.09375 37.59375 14.84375 
Q 39.40625 16.59375 40.5 19.140625 
Q 41.59375 21.703125 41.59375 25 
Q 41.59375 28.296875 40.5 30.890625 
Q 39.40625 33.5 37.59375 35.25 
Q 35.796875 37 33.4375 37.890625 
Q 31.09375 38.796875 28.703125 38.796875 
Q 26.296875 38.796875 24 37.890625 
Q 21.703125 37 19.890625 35.203125 
Q 18.09375 33.40625 17 30.84375 
Q 15.90625 28.296875 15.90625 25 
Q 15.90625 21.703125 17 19.140625 
Q 18.09375 16.59375 19.890625 14.84375 
Q 21.703125 13.09375 24 12.1875 
Q 26.296875 11.296875 28.703125 11.296875 
z
" id="ProductSans-Bold-103"/>
     <path d="M 5.203125 49 
L 17.5 49 
L 17.5 43.09375 
L 18.296875 43.09375 
Q 20.09375 46.203125 23.890625 48.390625 
Q 27.703125 50.59375 33.296875 50.59375 
Q 38 50.59375 42.25 48.640625 
Q 46.5 46.703125 49.75 43.25 
Q 53 39.796875 54.890625 35 
Q 56.796875 30.203125 56.796875 24.5 
Q 56.796875 18.796875 54.890625 14 
Q 53 9.203125 49.75 5.75 
Q 46.5 2.296875 42.25 0.34375 
Q 38 -1.59375 33.296875 -1.59375 
Q 27.703125 -1.59375 23.890625 0.59375 
Q 20.09375 2.796875 18.296875 5.90625 
L 17.5 5.90625 
L 18.296875 -1.09375 
L 18.296875 -21.59375 
L 5.203125 -21.59375 
z
M 30.59375 10.5 
Q 33.203125 10.5 35.546875 11.5 
Q 37.90625 12.5 39.703125 14.296875 
Q 41.5 16.09375 42.59375 18.6875 
Q 43.703125 21.296875 43.703125 24.5 
Q 43.703125 27.703125 42.59375 30.296875 
Q 41.5 32.90625 39.703125 34.703125 
Q 37.90625 36.5 35.546875 37.5 
Q 33.203125 38.5 30.59375 38.5 
Q 28 38.5 25.640625 37.546875 
Q 23.296875 36.59375 21.5 34.796875 
Q 19.703125 33 18.59375 30.390625 
Q 17.5 27.796875 17.5 24.5 
Q 17.5 21.203125 18.59375 18.59375 
Q 19.703125 16 21.5 14.203125 
Q 23.296875 12.40625 25.640625 11.453125 
Q 28 10.5 30.59375 10.5 
z
" id="ProductSans-Bold-112"/>
     <path d="M 5.59375 71.59375 
L 18.703125 71.59375 
L 18.703125 51.5 
L 17.90625 42.59375 
L 18.703125 42.59375 
Q 20.796875 46.09375 24.75 48.34375 
Q 28.703125 50.59375 33.59375 50.59375 
Q 43.09375 50.59375 47.640625 45 
Q 52.203125 39.40625 52.203125 29.703125 
L 52.203125 0 
L 39.09375 0 
L 39.09375 28.09375 
Q 39.09375 33.203125 36.6875 35.84375 
Q 34.296875 38.5 30 38.5 
Q 27.296875 38.5 25.1875 37.34375 
Q 23.09375 36.203125 21.640625 34.203125 
Q 20.203125 32.203125 19.453125 29.546875 
Q 18.703125 26.90625 18.703125 23.90625 
L 18.703125 0 
L 5.59375 0 
z
" id="ProductSans-Bold-104"/>
     <path d="M 7.203125 71.59375 
L 20.5 71.59375 
L 42.40625 33.703125 
L 43.203125 33.703125 
L 65.09375 71.59375 
L 78.5 71.59375 
L 78.5 0 
L 65.09375 0 
L 65.09375 35.296875 
L 65.90625 47.296875 
L 65.09375 47.296875 
L 46.90625 15.203125 
L 38.796875 15.203125 
L 20.5 47.296875 
L 19.703125 47.296875 
L 20.5 35.296875 
L 20.5 0 
L 7.203125 0 
z
" id="ProductSans-Bold-77"/>
     <path d="M 7.203125 71.59375 
L 35.203125 71.59375 
Q 39.796875 71.59375 43.796875 70.140625 
Q 47.796875 68.703125 50.75 66.140625 
Q 53.703125 63.59375 55.390625 60.1875 
Q 57.09375 56.796875 57.09375 52.90625 
Q 57.09375 47.203125 54.34375 43.34375 
Q 51.59375 39.5 47.5 37.5 
L 47.5 36.703125 
Q 53 34.703125 56.34375 30.453125 
Q 59.703125 26.203125 59.703125 19.90625 
Q 59.703125 15.296875 57.84375 11.640625 
Q 56 8 52.796875 5.390625 
Q 49.59375 2.796875 45.34375 1.390625 
Q 41.09375 0 36.203125 0 
L 7.203125 0 
z
M 34.203125 42.40625 
Q 38.90625 42.40625 41.453125 44.953125 
Q 44 47.5 44 51 
Q 44 54.5 41.5 57 
Q 39 59.5 34.59375 59.5 
L 20.703125 59.5 
L 20.703125 42.40625 
z
M 35.703125 12.40625 
Q 40.796875 12.40625 43.5 14.953125 
Q 46.203125 17.5 46.203125 21.5 
Q 46.203125 25.5 43.453125 28.140625 
Q 40.703125 30.796875 35.296875 30.796875 
L 20.703125 30.796875 
L 20.703125 12.40625 
z
" id="ProductSans-Bold-66"/>
     <path d="M 5.59375 71.59375 
L 18.703125 71.59375 
L 18.703125 32.59375 
L 19.296875 32.59375 
L 35.703125 49 
L 51.90625 49 
L 51.90625 48.203125 
L 33.703125 30.5 
L 53.40625 0.796875 
L 53.40625 0 
L 37.90625 0 
L 24.5 21.5 
L 18.703125 15.796875 
L 18.703125 0 
L 5.59375 0 
z
" id="ProductSans-Bold-107"/>
     <path d="M 5.59375 0 
L 5.59375 71.59375 
L 18.703125 71.59375 
L 18.703125 0 
z
" id="ProductSans-Bold-108"/>
    </defs>
    <g transform="translate(258.883203 43.92)scale(0.45 -0.45)">
     <use xlink:href="#ProductSans-Bold-65"/>
     <use x="71.599991" xlink:href="#ProductSans-Bold-118"/>
     <use x="127.299988" xlink:href="#ProductSans-Bold-101"/>
     <use x="182.899979" xlink:href="#ProductSans-Bold-114"/>
     <use x="223.599976" xlink:href="#ProductSans-Bold-97"/>
     <use x="277.09996" xlink:href="#ProductSans-Bold-103"/>
     <use x="336.799957" xlink:href="#ProductSans-Bold-101"/>
     <use x="392.399948" xlink:href="#ProductSans-Bold-32"/>
     <use x="414.399933" xlink:href="#ProductSans-Bold-114"/>
     <use x="455.09993" xlink:href="#ProductSans-Bold-105"/>
     <use x="480.999924" xlink:href="#ProductSans-Bold-100"/>
     <use x="540.999908" xlink:href="#ProductSans-Bold-101"/>
     <use x="596.599899" xlink:href="#ProductSans-Bold-115"/>
     <use x="644.899887" xlink:href="#ProductSans-Bold-32"/>
     <use x="666.899872" xlink:href="#ProductSans-Bold-112"/>
     <use x="726.499863" xlink:href="#ProductSans-Bold-101"/>
     <use x="782.099854" xlink:href="#ProductSans-Bold-114"/>
     <use x="822.79985" xlink:href="#ProductSans-Bold-32"/>
     <use x="844.799835" xlink:href="#ProductSans-Bold-104"/>
     <use x="902.199829" xlink:href="#ProductSans-Bold-111"/>
     <use x="959.79982" xlink:href="#ProductSans-Bold-117"/>
     <use x="1017.199814" xlink:href="#ProductSans-Bold-114"/>
     <use x="1057.899811" xlink:href="#ProductSans-Bold-32"/>
     <use x="1079.899796" xlink:href="#ProductSans-Bold-111"/>
     <use x="1137.499786" xlink:href="#ProductSans-Bold-110"/>
     <use x="1194.89978" xlink:href="#ProductSans-Bold-32"/>
     <use x="1216.899765" xlink:href="#ProductSans-Bold-77"/>
     <use x="1302.599747" xlink:href="#ProductSans-Bold-111"/>
     <use x="1360.199738" xlink:href="#ProductSans-Bold-110"/>
     <use x="1417.599731" xlink:href="#ProductSans-Bold-100"/>
     <use x="1477.599716" xlink:href="#ProductSans-Bold-97"/>
     <use x="1531.099701" xlink:href="#ProductSans-Bold-121"/>
     <use x="1586.399689" xlink:href="#ProductSans-Bold-115"/>
     <use x="1634.699677" xlink:href="#ProductSans-Bold-32"/>
     <use x="1656.699661" xlink:href="#ProductSans-Bold-105"/>
     <use x="1682.599655" xlink:href="#ProductSans-Bold-110"/>
     <use x="1739.999649" xlink:href="#ProductSans-Bold-32"/>
     <use x="1761.999634" xlink:href="#ProductSans-Bold-66"/>
     <use x="1824.899628" xlink:href="#ProductSans-Bold-114"/>
     <use x="1865.599625" xlink:href="#ProductSans-Bold-111"/>
     <use x="1923.199615" xlink:href="#ProductSans-Bold-111"/>
     <use x="1980.799606" xlink:href="#ProductSans-Bold-107"/>
     <use x="2033.799591" xlink:href="#ProductSans-Bold-108"/>
     <use x="2058.099579" xlink:href="#ProductSans-Bold-121"/>
     <use x="2113.399567" xlink:href="#ProductSans-Bold-110"/>
    </g>
   </g>
   <g id="legend_1">
    <g id="patch_7">
     <path d="M 1091.318437 322.945 
L 1331.745 322.945 
Q 1337.745 322.945 1337.745 316.945 
L 1337.745 104.92 
Q 1337.745 98.92 1331.745 98.92 
L 1091.318437 98.92 
Q 1085.318437 98.92 1085.318437 104.92 
L 1085.318437 316.945 
Q 1085.318437 322.945 1091.318437 322.945 
z
" style="fill:#ffffff;opacity:0.8;"/>
    </g>
    <g id="patch_8">
     <path d="M 1097.318437 132.398125 
L 1157.318437 132.398125 
L 1157.318437 111.398125 
L 1097.318437 111.398125 
z
" style="fill:#90ee90;opacity:0.8;stroke:#90ee90;stroke-linejoin:miter;"/>
    </g>
    <g id="text_19">
     <!-- Green Taxi -->
     <defs>
      <path d="M 76.09375 32.90625 
Q 76.09375 17.90625 67.203125 9 
Q 57.203125 -1.59375 40.90625 -1.59375 
Q 25.296875 -1.59375 14.5 9.203125 
Q 3.703125 20 3.703125 35.796875 
Q 3.703125 51.59375 14.5 62.40625 
Q 25.296875 73.203125 40.90625 73.203125 
Q 48.796875 73.203125 55.796875 70.390625 
Q 62.796875 67.59375 67.296875 62.5 
L 60.703125 55.90625 
Q 57.40625 59.90625 52.15625 62.15625 
Q 46.90625 64.40625 40.90625 64.40625 
Q 29.203125 64.40625 21.09375 56.296875 
Q 13.09375 48.09375 13.09375 35.796875 
Q 13.09375 23.5 21.09375 15.296875 
Q 29.203125 7.203125 40.90625 7.203125 
Q 51.59375 7.203125 58.703125 13.203125 
Q 65.796875 19.203125 66.90625 29.703125 
L 40.90625 29.703125 
L 40.90625 38.296875 
L 75.59375 38.296875 
Q 76.09375 35.5 76.09375 32.90625 
z
" id="ProductSans-Regular-71"/>
      <path d="M 14.796875 0 
L 5.59375 0 
L 5.59375 49 
L 14.40625 49 
L 14.40625 41 
L 14.796875 41 
Q 16.203125 44.90625 20.546875 47.65625 
Q 24.90625 50.40625 29.09375 50.40625 
Q 33.09375 50.40625 35.90625 49.203125 
L 33.09375 40.296875 
Q 31.40625 41 27.703125 41 
Q 22.5 41 18.640625 36.796875 
Q 14.796875 32.59375 14.796875 27 
z
" id="ProductSans-Regular-114"/>
      <path d="M 5.59375 49 
L 14.40625 49 
L 14.40625 42.203125 
L 14.796875 42.203125 
Q 16.90625 45.796875 21.25 48.1875 
Q 25.59375 50.59375 30.296875 50.59375 
Q 39.296875 50.59375 44.140625 45.4375 
Q 49 40.296875 49 30.796875 
L 49 0 
L 39.796875 0 
L 39.796875 30.203125 
Q 39.5 42.203125 27.703125 42.203125 
Q 22.203125 42.203125 18.5 37.75 
Q 14.796875 33.296875 14.796875 27.09375 
L 14.796875 0 
L 5.59375 0 
z
" id="ProductSans-Regular-110"/>
      <path d="M 12.296875 15 
Q 12.296875 11.40625 15.34375 9 
Q 18.40625 6.59375 22.5 6.59375 
Q 28.296875 6.59375 32.84375 10.890625 
Q 37.40625 15.203125 37.40625 21 
Q 33.09375 24.40625 25.40625 24.40625 
Q 19.796875 24.40625 16.046875 21.703125 
Q 12.296875 19 12.296875 15 
z
M 24.203125 50.59375 
Q 34.40625 50.59375 40.296875 45.140625 
Q 46.203125 39.703125 46.203125 30.203125 
L 46.203125 0 
L 37.40625 0 
L 37.40625 6.796875 
L 37 6.796875 
Q 31.296875 -1.59375 21.796875 -1.59375 
Q 13.703125 -1.59375 8.25 3.203125 
Q 2.796875 8 2.796875 15.203125 
Q 2.796875 22.796875 8.546875 27.296875 
Q 14.296875 31.796875 23.90625 31.796875 
Q 32.09375 31.796875 37.40625 28.796875 
L 37.40625 30.90625 
Q 37.40625 35.703125 33.59375 39.046875 
Q 29.796875 42.40625 24.703125 42.40625 
Q 17 42.40625 12.5 35.90625 
L 4.40625 41 
Q 11.09375 50.59375 24.203125 50.59375 
z
" id="ProductSans-Regular-97"/>
      <path d="M 28.90625 24.90625 
L 46.40625 0 
L 35.59375 0 
L 23.5 18.09375 
L 11.59375 0 
L 0.796875 0 
L 18.09375 24.90625 
L 1.203125 49 
L 11.59375 49 
L 23.703125 31.703125 
L 35.203125 49 
L 46 49 
z
" id="ProductSans-Regular-120"/>
      <path d="M 17.5 65.90625 
Q 17.5 63.203125 15.59375 61.296875 
Q 13.703125 59.40625 11 59.40625 
Q 8.296875 59.40625 6.390625 61.296875 
Q 4.5 63.203125 4.5 65.90625 
Q 4.5 68.59375 6.390625 70.5 
Q 8.296875 72.40625 11 72.40625 
Q 13.703125 72.40625 15.59375 70.5 
Q 17.5 68.59375 17.5 65.90625 
z
M 15.59375 49 
L 15.59375 0 
L 6.40625 0 
L 6.40625 49 
z
" id="ProductSans-Regular-105"/>
     </defs>
     <g transform="translate(1181.318437 132.398125)scale(0.3 -0.3)">
      <use xlink:href="#ProductSans-Regular-71"/>
      <use x="80.099991" xlink:href="#ProductSans-Regular-114"/>
      <use x="116.399979" xlink:href="#ProductSans-Regular-101"/>
      <use x="169.999969" xlink:href="#ProductSans-Regular-101"/>
      <use x="223.59996" xlink:href="#ProductSans-Regular-110"/>
      <use x="277.799957" xlink:href="#ProductSans-Regular-32"/>
      <use x="299.799942" xlink:href="#ProductSans-Regular-84"/>
      <use x="353.799927" xlink:href="#ProductSans-Regular-97"/>
      <use x="404.799911" xlink:href="#ProductSans-Regular-120"/>
      <use x="451.999908" xlink:href="#ProductSans-Regular-105"/>
     </g>
    </g>
    <g id="patch_9">
     <path d="M 1097.318437 175.354375 
L 1157.318437 175.354375 
L 1157.318437 154.354375 
L 1097.318437 154.354375 
z
" style="fill:#ffd253;opacity:0.8;stroke:#ffd253;stroke-linejoin:miter;"/>
    </g>
    <g id="text_20">
     <!-- Yellow Taxi -->
     <defs>
      <path d="M 34.5 33.296875 
L 34.5 0 
L 25.296875 0 
L 25.296875 33.296875 
L 1.203125 71.59375 
L 12 71.59375 
L 29.703125 42.5 
L 30.09375 42.5 
L 47.40625 71.59375 
L 58.203125 71.59375 
z
" id="ProductSans-Regular-89"/>
      <path d="M 14.796875 71.59375 
L 14.796875 0 
L 5.59375 0 
L 5.59375 71.59375 
z
" id="ProductSans-Regular-108"/>
      <path d="M 2.796875 24.5 
Q 2.796875 35.796875 9.90625 43.203125 
Q 17.09375 50.59375 28 50.59375 
Q 38.90625 50.59375 46 43.203125 
Q 53.203125 35.796875 53.203125 24.5 
Q 53.203125 13.09375 46 5.796875 
Q 38.90625 -1.59375 28 -1.59375 
Q 17.09375 -1.59375 9.90625 5.796875 
Q 2.796875 13.203125 2.796875 24.5 
z
M 12 24.5 
Q 12 16.59375 16.59375 11.703125 
Q 21.203125 6.796875 28 6.796875 
Q 34.796875 6.796875 39.40625 11.703125 
Q 44 16.59375 44 24.5 
Q 44 32.296875 39.40625 37.203125 
Q 34.703125 42.203125 28 42.203125 
Q 21.296875 42.203125 16.59375 37.203125 
Q 12 32.296875 12 24.5 
z
" id="ProductSans-Regular-111"/>
      <path d="M 75 49 
L 59.203125 0 
L 49.796875 0 
L 37.59375 37.59375 
L 25.5 0 
L 16.203125 0 
L 0.40625 49 
L 10 49 
L 20.90625 12 
L 21 12 
L 33.09375 49 
L 42.59375 49 
L 54.703125 12 
L 54.796875 12 
L 65.59375 49 
z
" id="ProductSans-Regular-119"/>
     </defs>
     <g transform="translate(1181.318437 175.354375)scale(0.3 -0.3)">
      <use xlink:href="#ProductSans-Regular-89"/>
      <use x="59.399994" xlink:href="#ProductSans-Regular-101"/>
      <use x="112.999985" xlink:href="#ProductSans-Regular-108"/>
      <use x="133.399979" xlink:href="#ProductSans-Regular-108"/>
      <use x="153.799973" xlink:href="#ProductSans-Regular-111"/>
      <use x="209.799957" xlink:href="#ProductSans-Regular-119"/>
      <use x="285.199951" xlink:href="#ProductSans-Regular-32"/>
      <use x="307.199936" xlink:href="#ProductSans-Regular-84"/>
      <use x="361.199921" xlink:href="#ProductSans-Regular-97"/>
      <use x="412.199905" xlink:href="#ProductSans-Regular-120"/>
      <use x="459.399902" xlink:href="#ProductSans-Regular-105"/>
     </g>
    </g>
    <g id="patch_10">
     <path d="M 1097.318437 218.310625 
L 1157.318437 218.310625 
L 1157.318437 197.310625 
L 1097.318437 197.310625 
z
" style="opacity:0.8;stroke:#000000;stroke-linejoin:miter;"/>
    </g>
    <g id="text_21">
     <!-- Uber -->
     <defs>
      <path d="M 32.09375 -1.59375 
Q 20.203125 -1.59375 12.90625 6.203125 
Q 5.59375 13.90625 5.59375 26.59375 
L 5.59375 71.59375 
L 14.796875 71.59375 
L 14.796875 26.203125 
Q 14.796875 17.40625 19.390625 12.296875 
Q 24 7.203125 32.09375 7.203125 
Q 40.203125 7.203125 44.796875 12.296875 
Q 49.40625 17.40625 49.40625 26.203125 
L 49.40625 71.59375 
L 58.59375 71.59375 
L 58.59375 26.59375 
Q 58.59375 13.59375 51.40625 6 
Q 44.203125 -1.59375 32.09375 -1.59375 
z
" id="ProductSans-Regular-85"/>
      <path d="M 31.5 -1.59375 
Q 26.09375 -1.59375 21.640625 0.703125 
Q 17.203125 3 14.796875 6.796875 
L 14.40625 6.796875 
L 14.40625 0 
L 5.59375 0 
L 5.59375 71.59375 
L 14.796875 71.59375 
L 14.796875 49 
L 14.40625 42.203125 
L 14.796875 42.203125 
Q 17.203125 46 21.640625 48.296875 
Q 26.09375 50.59375 31.5 50.59375 
Q 41.203125 50.59375 47.90625 43 
Q 54.796875 35.296875 54.796875 24.5 
Q 54.796875 13.59375 47.90625 6 
Q 41.203125 -1.59375 31.5 -1.59375 
z
M 30 6.796875 
Q 36.59375 6.796875 41.09375 11.796875 
Q 45.59375 16.703125 45.59375 24.5 
Q 45.59375 32.203125 41.09375 37.203125 
Q 36.59375 42.203125 30 42.203125 
Q 23.296875 42.203125 18.796875 37.203125 
Q 14.40625 32.203125 14.40625 24.5 
Q 14.40625 16.703125 18.796875 11.703125 
Q 23.296875 6.796875 30 6.796875 
z
" id="ProductSans-Regular-98"/>
     </defs>
     <g transform="translate(1181.318437 218.310625)scale(0.3 -0.3)">
      <use xlink:href="#ProductSans-Regular-85"/>
      <use x="64.199997" xlink:href="#ProductSans-Regular-98"/>
      <use x="121.799988" xlink:href="#ProductSans-Regular-101"/>
      <use x="175.399979" xlink:href="#ProductSans-Regular-114"/>
     </g>
    </g>
    <g id="patch_11">
     <path d="M 1097.318437 261.266875 
L 1157.318437 261.266875 
L 1157.318437 240.266875 
L 1097.318437 240.266875 
z
" style="fill:#00c8fc;opacity:0.8;stroke:#00c8fc;stroke-linejoin:miter;"/>
    </g>
    <g id="text_22">
     <!-- Citi Bike -->
     <defs>
      <path d="M 40.90625 -1.59375 
Q 25 -1.59375 14.296875 9.09375 
Q 3.703125 19.796875 3.703125 35.796875 
Q 3.703125 51.796875 14.296875 62.40625 
Q 24.90625 73.203125 40.90625 73.203125 
Q 57.09375 73.203125 67.203125 61.5 
L 60.59375 55.09375 
Q 52.90625 64.40625 40.90625 64.40625 
Q 29 64.40625 21 56.40625 
Q 13.09375 48.5 13.09375 35.796875 
Q 13.09375 23.09375 21 15.203125 
Q 29 7.203125 40.90625 7.203125 
Q 53.40625 7.203125 62.59375 17.703125 
L 69.296875 11.203125 
Q 64.203125 5.09375 56.796875 1.75 
Q 49.40625 -1.59375 40.90625 -1.59375 
z
" id="ProductSans-Regular-67"/>
      <path d="M 25 -0.796875 
Q 19 -0.796875 15.046875 2.890625 
Q 11.09375 6.59375 11 13.203125 
L 11 40.59375 
L 2.40625 40.59375 
L 2.40625 49 
L 11 49 
L 11 64 
L 20.203125 64 
L 20.203125 49 
L 32.203125 49 
L 32.203125 40.59375 
L 20.203125 40.59375 
L 20.203125 16.203125 
Q 20.203125 11.296875 22.09375 9.546875 
Q 24 7.796875 26.40625 7.796875 
Q 27.5 7.796875 28.546875 8.046875 
Q 29.59375 8.296875 30.5 8.703125 
L 33.40625 0.5 
Q 29.796875 -0.796875 25 -0.796875 
z
" id="ProductSans-Regular-116"/>
      <path d="M 7.203125 0 
L 7.203125 71.59375 
L 33.09375 71.59375 
Q 41.59375 71.59375 47.703125 66 
Q 53.796875 60.5 53.796875 52.09375 
Q 53.796875 41.5 44.09375 37.203125 
L 44.09375 36.796875 
Q 49.59375 35 52.890625 30.546875 
Q 56.203125 26.09375 56.203125 20.40625 
Q 56.203125 11.59375 49.796875 5.796875 
Q 43.59375 0 34.5 0 
z
M 16.40625 62.796875 
L 16.40625 40.90625 
L 33.09375 40.90625 
Q 38 40.90625 41.296875 44.203125 
Q 44.59375 47.59375 44.59375 51.90625 
Q 44.59375 56.09375 41.40625 59.5 
Q 38.203125 62.796875 33.5 62.796875 
z
M 16.40625 32.296875 
L 16.40625 8.796875 
L 34.90625 8.796875 
Q 39.90625 8.796875 43.40625 12.296875 
Q 46.796875 15.796875 46.796875 20.59375 
Q 46.796875 25.296875 43.296875 28.796875 
Q 39.796875 32.296875 34.5 32.296875 
z
" id="ProductSans-Regular-66"/>
      <path d="M 48.703125 0 
L 37.59375 0 
L 22.296875 23.09375 
L 14.796875 15.703125 
L 14.796875 0 
L 5.59375 0 
L 5.59375 71.59375 
L 14.796875 71.59375 
L 14.796875 27.5 
L 36 49 
L 47.796875 49 
L 47.796875 48.59375 
L 28.703125 29.59375 
L 48.703125 0.40625 
z
" id="ProductSans-Regular-107"/>
     </defs>
     <g transform="translate(1181.318437 261.266875)scale(0.3 -0.3)">
      <use xlink:href="#ProductSans-Regular-67"/>
      <use x="72.899994" xlink:href="#ProductSans-Regular-105"/>
      <use x="94.899979" xlink:href="#ProductSans-Regular-116"/>
      <use x="130.299973" xlink:href="#ProductSans-Regular-105"/>
      <use x="152.299957" xlink:href="#ProductSans-Regular-32"/>
      <use x="174.299942" xlink:href="#ProductSans-Regular-66"/>
      <use x="233.699936" xlink:href="#ProductSans-Regular-105"/>
      <use x="255.699921" xlink:href="#ProductSans-Regular-107"/>
      <use x="303.999908" xlink:href="#ProductSans-Regular-101"/>
     </g>
    </g>
    <g id="patch_12">
     <path d="M 1097.318437 304.466875 
L 1157.318437 304.466875 
L 1157.318437 283.466875 
L 1097.318437 283.466875 
z
" style="fill:#ff14bb;opacity:0.8;stroke:#ff14bb;stroke-linejoin:miter;"/>
    </g>
    <g id="text_23">
     <!-- Lyft -->
     <defs>
      <path d="M 47.40625 0 
L 7.203125 0 
L 7.203125 71.59375 
L 16.40625 71.59375 
L 16.40625 8.796875 
L 47.40625 8.796875 
z
" id="ProductSans-Regular-76"/>
      <path d="M 49.40625 49 
L 18.703125 -21.59375 
L 9.203125 -21.59375 
L 20.59375 3.09375 
L 0.40625 49 
L 10.40625 49 
L 25 13.796875 
L 25.203125 13.796875 
L 39.40625 49 
z
" id="ProductSans-Regular-121"/>
      <path d="M 28.203125 72.40625 
Q 33.203125 72.40625 36.40625 70.703125 
L 33.90625 62.59375 
Q 31.5 63.796875 28.5 63.796875 
Q 25.09375 63.796875 22.9375 61.4375 
Q 20.796875 59.09375 20.796875 55.203125 
L 20.796875 49 
L 33.59375 49 
L 33.59375 40.59375 
L 20.796875 40.59375 
L 20.796875 0 
L 11.59375 0 
L 11.59375 40.59375 
L 2.40625 40.59375 
L 2.40625 49 
L 11.59375 49 
L 11.59375 56.09375 
Q 11.59375 63.40625 16.25 67.90625 
Q 20.90625 72.40625 28.203125 72.40625 
z
" id="ProductSans-Regular-102"/>
     </defs>
     <g transform="translate(1181.318437 304.466875)scale(0.3 -0.3)">
      <use xlink:href="#ProductSans-Regular-76"/>
      <use x="49.799988" xlink:href="#ProductSans-Regular-121"/>
      <use x="99.599976" xlink:href="#ProductSans-Regular-102"/>
      <use x="136.399963" xlink:href="#ProductSans-Regular-116"/>
     </g>
    </g>
   </g>
  </g>
 </g>
 <defs>
  <clipPath id="pdfd744bcd3">
   <rect height="538.84" width="1210.865" x="141.88" y="83.92"/>
  </clipPath>
 </defs>
</svg>
